M48
; DRILL file {KiCad (5.1.6)-1} date 07/06/20 19:45:45
; FORMAT={-:-/ absolute / inch / decimal}
; #@! TF.CreationDate,2020-07-06T19:45:45+02:00
; #@! TF.GenerationSoftware,Kicad,Pcbnew,(5.1.6)-1
; #@! TF.FileFunction,NonPlated,1,2,NPTH
FMAT,2
INCH
T1C0.0669
T2C0.1575
%
G90
G05
T1
X5.085Y-5.055
X5.485Y-5.055
X4.335Y-2.805
X4.735Y-2.805
X6.585Y-4.305
X6.985Y-4.305
X6.585Y-2.805
X6.985Y-2.805
X5.085Y-2.055
X5.485Y-2.055
X6.585Y-3.555
X6.985Y-3.555
X5.085Y-2.805
X5.485Y-2.805
X4.335Y-4.305
X4.735Y-4.305
X5.835Y-4.305
X6.235Y-4.305
X5.835Y-5.055
X6.235Y-5.055
X5.835Y-3.555
X6.235Y-3.555
X5.835Y-2.055
X6.235Y-2.055
X6.585Y-5.055
X6.985Y-5.055
X6.585Y-2.055
X6.985Y-2.055
X5.085Y-4.305
X5.485Y-4.305
X5.835Y-2.805
X6.235Y-2.805
X4.335Y-2.055
X4.735Y-2.055
X4.335Y-5.055
X4.735Y-5.055
X4.335Y-3.555
X4.735Y-3.555
X5.085Y-3.555
X5.485Y-3.555
T2
X6.785Y-3.555
X5.285Y-2.805
X4.535Y-4.305
X6.035Y-4.305
X6.035Y-5.055
X6.035Y-3.555
X6.035Y-2.055
X6.785Y-5.055
X6.785Y-2.055
X5.285Y-4.305
X6.035Y-2.805
X4.535Y-2.055
X4.535Y-5.055
X4.535Y-3.555
X5.285Y-3.555
X5.285Y-5.055
X4.535Y-2.805
X6.785Y-4.305
X6.785Y-2.805
X5.285Y-2.055
T0
M30
