M48
; DRILL file {KiCad (5.1.6)-1} date 07/06/20 19:45:45
; FORMAT={-:-/ absolute / inch / decimal}
; #@! TF.CreationDate,2020-07-06T19:45:45+02:00
; #@! TF.GenerationSoftware,Kicad,Pcbnew,(5.1.6)-1
; #@! TF.FileFunction,Plated,1,2,PTH
FMAT,2
INCH
T1C0.0315
T2C0.0354
T3C0.0430
T4C0.0433
T5C0.0591
%
G90
G05
T1
X7.0Y-0.8
X7.0Y-1.0
X6.1Y-1.3
X6.1Y-1.5
X6.9Y-1.3
X6.9Y-1.5
X6.7Y-1.3
X6.7Y-1.5
X6.4Y-1.3
X6.4Y-1.5
X6.4Y-0.8
X6.4Y-1.0
X6.6Y-0.8
X6.6Y-1.0
X6.8Y-0.8
X6.8Y-1.0
X6.9Y-0.8
X6.9Y-1.0
X6.2Y-0.8
X6.2Y-1.0
X6.8Y-1.3
X6.8Y-1.5
X6.3Y-0.8
X6.3Y-1.0
X6.3Y-1.3
X6.3Y-1.5
X5.65Y-1.15
X5.65Y-1.45
X6.1Y-0.8
X6.1Y-1.0
X6.5Y-0.8
X6.5Y-1.0
X6.5Y-1.3
X6.5Y-1.5
X7.0Y-1.3
X7.0Y-1.5
X5.7821Y-1.15
X5.7821Y-1.45
X6.2Y-1.3
X6.2Y-1.5
X6.7Y-0.8
X6.7Y-1.0
X6.6Y-1.3
X6.6Y-1.5
T2
X5.65Y-0.95
X5.65Y-1.05
T3
X4.35Y-0.8
X4.35Y-1.4
X4.45Y-0.8
X4.45Y-1.4
X4.55Y-0.8
X4.55Y-1.4
X4.65Y-0.8
X4.65Y-1.4
X4.75Y-0.8
X4.75Y-1.4
X4.85Y-0.8
X4.85Y-1.4
X4.95Y-0.8
X4.95Y-1.4
X5.05Y-0.8
X5.05Y-1.4
X5.15Y-0.8
X5.15Y-1.4
X5.25Y-0.8
X5.25Y-1.4
X5.35Y-0.8
X5.35Y-1.4
X5.45Y-0.8
X5.45Y-1.4
T4
X5.5941Y-0.6628
X5.5941Y-0.84
X5.85Y-0.6628
X5.85Y-0.84
T5
X6.635Y-4.955
X6.885Y-4.855
X6.635Y-1.955
X6.885Y-1.855
X5.135Y-4.205
X5.385Y-4.105
X5.885Y-2.705
X6.135Y-2.605
X4.385Y-1.955
X4.635Y-1.855
X4.385Y-4.955
X4.635Y-4.855
X4.385Y-3.455
X4.635Y-3.355
X5.135Y-3.455
X5.385Y-3.355
X5.135Y-4.955
X5.385Y-4.855
X4.385Y-2.705
X4.635Y-2.605
X6.635Y-4.205
X6.885Y-4.105
X6.635Y-2.705
X6.885Y-2.605
X5.135Y-1.955
X5.385Y-1.855
X6.635Y-3.455
X6.885Y-3.355
X5.135Y-2.705
X5.385Y-2.605
X4.385Y-4.205
X4.635Y-4.105
X5.885Y-4.205
X6.135Y-4.105
X5.885Y-4.955
X6.135Y-4.855
X5.885Y-3.455
X6.135Y-3.355
X5.885Y-1.955
X6.135Y-1.855
T0
M30
