G04 #@! TF.GenerationSoftware,KiCad,Pcbnew,(5.1.6)-1*
G04 #@! TF.CreationDate,2020-07-06T19:45:24+02:00*
G04 #@! TF.ProjectId,numpad,6e756d70-6164-42e6-9b69-6361645f7063,rev?*
G04 #@! TF.SameCoordinates,Original*
G04 #@! TF.FileFunction,Soldermask,Bot*
G04 #@! TF.FilePolarity,Negative*
%FSLAX46Y46*%
G04 Gerber Fmt 4.6, Leading zero omitted, Abs format (unit mm)*
G04 Created by KiCad (PCBNEW (5.1.6)-1) date 2020-07-06 19:45:24*
%MOMM*%
%LPD*%
G01*
G04 APERTURE LIST*
%ADD10C,0.100000*%
G04 APERTURE END LIST*
D10*
G36*
X134837254Y-126424818D02*
G01*
X135210511Y-126579426D01*
X135210513Y-126579427D01*
X135546436Y-126803884D01*
X135832116Y-127089564D01*
X136056574Y-127425489D01*
X136211182Y-127798746D01*
X136290000Y-128194993D01*
X136290000Y-128599007D01*
X136211182Y-128995254D01*
X136056574Y-129368511D01*
X136056573Y-129368513D01*
X135832116Y-129704436D01*
X135546436Y-129990116D01*
X135210513Y-130214573D01*
X135210512Y-130214574D01*
X135210511Y-130214574D01*
X134837254Y-130369182D01*
X134441007Y-130448000D01*
X134036993Y-130448000D01*
X133640746Y-130369182D01*
X133267489Y-130214574D01*
X133267488Y-130214574D01*
X133267487Y-130214573D01*
X132931564Y-129990116D01*
X132645884Y-129704436D01*
X132421427Y-129368513D01*
X132421426Y-129368511D01*
X132266818Y-128995254D01*
X132188000Y-128599007D01*
X132188000Y-128194993D01*
X132266818Y-127798746D01*
X132421426Y-127425489D01*
X132645884Y-127089564D01*
X132931564Y-126803884D01*
X133267487Y-126579427D01*
X133267489Y-126579426D01*
X133640746Y-126424818D01*
X134036993Y-126346000D01*
X134441007Y-126346000D01*
X134837254Y-126424818D01*
G37*
G36*
X153887254Y-126424818D02*
G01*
X154260511Y-126579426D01*
X154260513Y-126579427D01*
X154596436Y-126803884D01*
X154882116Y-127089564D01*
X155106574Y-127425489D01*
X155261182Y-127798746D01*
X155340000Y-128194993D01*
X155340000Y-128599007D01*
X155261182Y-128995254D01*
X155106574Y-129368511D01*
X155106573Y-129368513D01*
X154882116Y-129704436D01*
X154596436Y-129990116D01*
X154260513Y-130214573D01*
X154260512Y-130214574D01*
X154260511Y-130214574D01*
X153887254Y-130369182D01*
X153491007Y-130448000D01*
X153086993Y-130448000D01*
X152690746Y-130369182D01*
X152317489Y-130214574D01*
X152317488Y-130214574D01*
X152317487Y-130214573D01*
X151981564Y-129990116D01*
X151695884Y-129704436D01*
X151471427Y-129368513D01*
X151471426Y-129368511D01*
X151316818Y-128995254D01*
X151238000Y-128599007D01*
X151238000Y-128194993D01*
X151316818Y-127798746D01*
X151471426Y-127425489D01*
X151695884Y-127089564D01*
X151981564Y-126803884D01*
X152317487Y-126579427D01*
X152317489Y-126579426D01*
X152690746Y-126424818D01*
X153086993Y-126346000D01*
X153491007Y-126346000D01*
X153887254Y-126424818D01*
G37*
G36*
X115787254Y-126424818D02*
G01*
X116160511Y-126579426D01*
X116160513Y-126579427D01*
X116496436Y-126803884D01*
X116782116Y-127089564D01*
X117006574Y-127425489D01*
X117161182Y-127798746D01*
X117240000Y-128194993D01*
X117240000Y-128599007D01*
X117161182Y-128995254D01*
X117006574Y-129368511D01*
X117006573Y-129368513D01*
X116782116Y-129704436D01*
X116496436Y-129990116D01*
X116160513Y-130214573D01*
X116160512Y-130214574D01*
X116160511Y-130214574D01*
X115787254Y-130369182D01*
X115391007Y-130448000D01*
X114986993Y-130448000D01*
X114590746Y-130369182D01*
X114217489Y-130214574D01*
X114217488Y-130214574D01*
X114217487Y-130214573D01*
X113881564Y-129990116D01*
X113595884Y-129704436D01*
X113371427Y-129368513D01*
X113371426Y-129368511D01*
X113216818Y-128995254D01*
X113138000Y-128599007D01*
X113138000Y-128194993D01*
X113216818Y-127798746D01*
X113371426Y-127425489D01*
X113595884Y-127089564D01*
X113881564Y-126803884D01*
X114217487Y-126579427D01*
X114217489Y-126579426D01*
X114590746Y-126424818D01*
X114986993Y-126346000D01*
X115391007Y-126346000D01*
X115787254Y-126424818D01*
G37*
G36*
X172937254Y-126424818D02*
G01*
X173310511Y-126579426D01*
X173310513Y-126579427D01*
X173646436Y-126803884D01*
X173932116Y-127089564D01*
X174156574Y-127425489D01*
X174311182Y-127798746D01*
X174390000Y-128194993D01*
X174390000Y-128599007D01*
X174311182Y-128995254D01*
X174156574Y-129368511D01*
X174156573Y-129368513D01*
X173932116Y-129704436D01*
X173646436Y-129990116D01*
X173310513Y-130214573D01*
X173310512Y-130214574D01*
X173310511Y-130214574D01*
X172937254Y-130369182D01*
X172541007Y-130448000D01*
X172136993Y-130448000D01*
X171740746Y-130369182D01*
X171367489Y-130214574D01*
X171367488Y-130214574D01*
X171367487Y-130214573D01*
X171031564Y-129990116D01*
X170745884Y-129704436D01*
X170521427Y-129368513D01*
X170521426Y-129368511D01*
X170366818Y-128995254D01*
X170288000Y-128599007D01*
X170288000Y-128194993D01*
X170366818Y-127798746D01*
X170521426Y-127425489D01*
X170745884Y-127089564D01*
X171031564Y-126803884D01*
X171367487Y-126579427D01*
X171367489Y-126579426D01*
X171740746Y-126424818D01*
X172136993Y-126346000D01*
X172541007Y-126346000D01*
X172937254Y-126424818D01*
G37*
G36*
X148322512Y-127500927D02*
G01*
X148471812Y-127530624D01*
X148635784Y-127598544D01*
X148783354Y-127697147D01*
X148908853Y-127822646D01*
X149007456Y-127970216D01*
X149075376Y-128134188D01*
X149110000Y-128308259D01*
X149110000Y-128485741D01*
X149075376Y-128659812D01*
X149007456Y-128823784D01*
X148908853Y-128971354D01*
X148783354Y-129096853D01*
X148635784Y-129195456D01*
X148471812Y-129263376D01*
X148322512Y-129293073D01*
X148297742Y-129298000D01*
X148120258Y-129298000D01*
X148095488Y-129293073D01*
X147946188Y-129263376D01*
X147782216Y-129195456D01*
X147634646Y-129096853D01*
X147509147Y-128971354D01*
X147410544Y-128823784D01*
X147342624Y-128659812D01*
X147308000Y-128485741D01*
X147308000Y-128308259D01*
X147342624Y-128134188D01*
X147410544Y-127970216D01*
X147509147Y-127822646D01*
X147634646Y-127697147D01*
X147782216Y-127598544D01*
X147946188Y-127530624D01*
X148095488Y-127500927D01*
X148120258Y-127496000D01*
X148297742Y-127496000D01*
X148322512Y-127500927D01*
G37*
G36*
X167372512Y-127500927D02*
G01*
X167521812Y-127530624D01*
X167685784Y-127598544D01*
X167833354Y-127697147D01*
X167958853Y-127822646D01*
X168057456Y-127970216D01*
X168125376Y-128134188D01*
X168160000Y-128308259D01*
X168160000Y-128485741D01*
X168125376Y-128659812D01*
X168057456Y-128823784D01*
X167958853Y-128971354D01*
X167833354Y-129096853D01*
X167685784Y-129195456D01*
X167521812Y-129263376D01*
X167372512Y-129293073D01*
X167347742Y-129298000D01*
X167170258Y-129298000D01*
X167145488Y-129293073D01*
X166996188Y-129263376D01*
X166832216Y-129195456D01*
X166684646Y-129096853D01*
X166559147Y-128971354D01*
X166460544Y-128823784D01*
X166392624Y-128659812D01*
X166358000Y-128485741D01*
X166358000Y-128308259D01*
X166392624Y-128134188D01*
X166460544Y-127970216D01*
X166559147Y-127822646D01*
X166684646Y-127697147D01*
X166832216Y-127598544D01*
X166996188Y-127530624D01*
X167145488Y-127500927D01*
X167170258Y-127496000D01*
X167347742Y-127496000D01*
X167372512Y-127500927D01*
G37*
G36*
X120382512Y-127500927D02*
G01*
X120531812Y-127530624D01*
X120695784Y-127598544D01*
X120843354Y-127697147D01*
X120968853Y-127822646D01*
X121067456Y-127970216D01*
X121135376Y-128134188D01*
X121170000Y-128308259D01*
X121170000Y-128485741D01*
X121135376Y-128659812D01*
X121067456Y-128823784D01*
X120968853Y-128971354D01*
X120843354Y-129096853D01*
X120695784Y-129195456D01*
X120531812Y-129263376D01*
X120382512Y-129293073D01*
X120357742Y-129298000D01*
X120180258Y-129298000D01*
X120155488Y-129293073D01*
X120006188Y-129263376D01*
X119842216Y-129195456D01*
X119694646Y-129096853D01*
X119569147Y-128971354D01*
X119470544Y-128823784D01*
X119402624Y-128659812D01*
X119368000Y-128485741D01*
X119368000Y-128308259D01*
X119402624Y-128134188D01*
X119470544Y-127970216D01*
X119569147Y-127822646D01*
X119694646Y-127697147D01*
X119842216Y-127598544D01*
X120006188Y-127530624D01*
X120155488Y-127500927D01*
X120180258Y-127496000D01*
X120357742Y-127496000D01*
X120382512Y-127500927D01*
G37*
G36*
X110222512Y-127500927D02*
G01*
X110371812Y-127530624D01*
X110535784Y-127598544D01*
X110683354Y-127697147D01*
X110808853Y-127822646D01*
X110907456Y-127970216D01*
X110975376Y-128134188D01*
X111010000Y-128308259D01*
X111010000Y-128485741D01*
X110975376Y-128659812D01*
X110907456Y-128823784D01*
X110808853Y-128971354D01*
X110683354Y-129096853D01*
X110535784Y-129195456D01*
X110371812Y-129263376D01*
X110222512Y-129293073D01*
X110197742Y-129298000D01*
X110020258Y-129298000D01*
X109995488Y-129293073D01*
X109846188Y-129263376D01*
X109682216Y-129195456D01*
X109534646Y-129096853D01*
X109409147Y-128971354D01*
X109310544Y-128823784D01*
X109242624Y-128659812D01*
X109208000Y-128485741D01*
X109208000Y-128308259D01*
X109242624Y-128134188D01*
X109310544Y-127970216D01*
X109409147Y-127822646D01*
X109534646Y-127697147D01*
X109682216Y-127598544D01*
X109846188Y-127530624D01*
X109995488Y-127500927D01*
X110020258Y-127496000D01*
X110197742Y-127496000D01*
X110222512Y-127500927D01*
G37*
G36*
X177532512Y-127500927D02*
G01*
X177681812Y-127530624D01*
X177845784Y-127598544D01*
X177993354Y-127697147D01*
X178118853Y-127822646D01*
X178217456Y-127970216D01*
X178285376Y-128134188D01*
X178320000Y-128308259D01*
X178320000Y-128485741D01*
X178285376Y-128659812D01*
X178217456Y-128823784D01*
X178118853Y-128971354D01*
X177993354Y-129096853D01*
X177845784Y-129195456D01*
X177681812Y-129263376D01*
X177532512Y-129293073D01*
X177507742Y-129298000D01*
X177330258Y-129298000D01*
X177305488Y-129293073D01*
X177156188Y-129263376D01*
X176992216Y-129195456D01*
X176844646Y-129096853D01*
X176719147Y-128971354D01*
X176620544Y-128823784D01*
X176552624Y-128659812D01*
X176518000Y-128485741D01*
X176518000Y-128308259D01*
X176552624Y-128134188D01*
X176620544Y-127970216D01*
X176719147Y-127822646D01*
X176844646Y-127697147D01*
X176992216Y-127598544D01*
X177156188Y-127530624D01*
X177305488Y-127500927D01*
X177330258Y-127496000D01*
X177507742Y-127496000D01*
X177532512Y-127500927D01*
G37*
G36*
X158482512Y-127500927D02*
G01*
X158631812Y-127530624D01*
X158795784Y-127598544D01*
X158943354Y-127697147D01*
X159068853Y-127822646D01*
X159167456Y-127970216D01*
X159235376Y-128134188D01*
X159270000Y-128308259D01*
X159270000Y-128485741D01*
X159235376Y-128659812D01*
X159167456Y-128823784D01*
X159068853Y-128971354D01*
X158943354Y-129096853D01*
X158795784Y-129195456D01*
X158631812Y-129263376D01*
X158482512Y-129293073D01*
X158457742Y-129298000D01*
X158280258Y-129298000D01*
X158255488Y-129293073D01*
X158106188Y-129263376D01*
X157942216Y-129195456D01*
X157794646Y-129096853D01*
X157669147Y-128971354D01*
X157570544Y-128823784D01*
X157502624Y-128659812D01*
X157468000Y-128485741D01*
X157468000Y-128308259D01*
X157502624Y-128134188D01*
X157570544Y-127970216D01*
X157669147Y-127822646D01*
X157794646Y-127697147D01*
X157942216Y-127598544D01*
X158106188Y-127530624D01*
X158255488Y-127500927D01*
X158280258Y-127496000D01*
X158457742Y-127496000D01*
X158482512Y-127500927D01*
G37*
G36*
X139432512Y-127500927D02*
G01*
X139581812Y-127530624D01*
X139745784Y-127598544D01*
X139893354Y-127697147D01*
X140018853Y-127822646D01*
X140117456Y-127970216D01*
X140185376Y-128134188D01*
X140220000Y-128308259D01*
X140220000Y-128485741D01*
X140185376Y-128659812D01*
X140117456Y-128823784D01*
X140018853Y-128971354D01*
X139893354Y-129096853D01*
X139745784Y-129195456D01*
X139581812Y-129263376D01*
X139432512Y-129293073D01*
X139407742Y-129298000D01*
X139230258Y-129298000D01*
X139205488Y-129293073D01*
X139056188Y-129263376D01*
X138892216Y-129195456D01*
X138744646Y-129096853D01*
X138619147Y-128971354D01*
X138520544Y-128823784D01*
X138452624Y-128659812D01*
X138418000Y-128485741D01*
X138418000Y-128308259D01*
X138452624Y-128134188D01*
X138520544Y-127970216D01*
X138619147Y-127822646D01*
X138744646Y-127697147D01*
X138892216Y-127598544D01*
X139056188Y-127530624D01*
X139205488Y-127500927D01*
X139230258Y-127496000D01*
X139407742Y-127496000D01*
X139432512Y-127500927D01*
G37*
G36*
X129272512Y-127500927D02*
G01*
X129421812Y-127530624D01*
X129585784Y-127598544D01*
X129733354Y-127697147D01*
X129858853Y-127822646D01*
X129957456Y-127970216D01*
X130025376Y-128134188D01*
X130060000Y-128308259D01*
X130060000Y-128485741D01*
X130025376Y-128659812D01*
X129957456Y-128823784D01*
X129858853Y-128971354D01*
X129733354Y-129096853D01*
X129585784Y-129195456D01*
X129421812Y-129263376D01*
X129272512Y-129293073D01*
X129247742Y-129298000D01*
X129070258Y-129298000D01*
X129045488Y-129293073D01*
X128896188Y-129263376D01*
X128732216Y-129195456D01*
X128584646Y-129096853D01*
X128459147Y-128971354D01*
X128360544Y-128823784D01*
X128292624Y-128659812D01*
X128258000Y-128485741D01*
X128258000Y-128308259D01*
X128292624Y-128134188D01*
X128360544Y-127970216D01*
X128459147Y-127822646D01*
X128584646Y-127697147D01*
X128732216Y-127598544D01*
X128896188Y-127530624D01*
X129045488Y-127500927D01*
X129070258Y-127496000D01*
X129247742Y-127496000D01*
X129272512Y-127500927D01*
G37*
G36*
X111603549Y-124728116D02*
G01*
X111714734Y-124750232D01*
X111924203Y-124836997D01*
X112112720Y-124962960D01*
X112273040Y-125123280D01*
X112399003Y-125311797D01*
X112485768Y-125521266D01*
X112530000Y-125743636D01*
X112530000Y-125970364D01*
X112485768Y-126192734D01*
X112399003Y-126402203D01*
X112273040Y-126590720D01*
X112112720Y-126751040D01*
X111924203Y-126877003D01*
X111714734Y-126963768D01*
X111603549Y-126985884D01*
X111492365Y-127008000D01*
X111265635Y-127008000D01*
X111154451Y-126985884D01*
X111043266Y-126963768D01*
X110833797Y-126877003D01*
X110645280Y-126751040D01*
X110484960Y-126590720D01*
X110358997Y-126402203D01*
X110272232Y-126192734D01*
X110228000Y-125970364D01*
X110228000Y-125743636D01*
X110272232Y-125521266D01*
X110358997Y-125311797D01*
X110484960Y-125123280D01*
X110645280Y-124962960D01*
X110833797Y-124836997D01*
X111043266Y-124750232D01*
X111154451Y-124728116D01*
X111265635Y-124706000D01*
X111492365Y-124706000D01*
X111603549Y-124728116D01*
G37*
G36*
X149703549Y-124728116D02*
G01*
X149814734Y-124750232D01*
X150024203Y-124836997D01*
X150212720Y-124962960D01*
X150373040Y-125123280D01*
X150499003Y-125311797D01*
X150585768Y-125521266D01*
X150630000Y-125743636D01*
X150630000Y-125970364D01*
X150585768Y-126192734D01*
X150499003Y-126402203D01*
X150373040Y-126590720D01*
X150212720Y-126751040D01*
X150024203Y-126877003D01*
X149814734Y-126963768D01*
X149703549Y-126985884D01*
X149592365Y-127008000D01*
X149365635Y-127008000D01*
X149254451Y-126985884D01*
X149143266Y-126963768D01*
X148933797Y-126877003D01*
X148745280Y-126751040D01*
X148584960Y-126590720D01*
X148458997Y-126402203D01*
X148372232Y-126192734D01*
X148328000Y-125970364D01*
X148328000Y-125743636D01*
X148372232Y-125521266D01*
X148458997Y-125311797D01*
X148584960Y-125123280D01*
X148745280Y-124962960D01*
X148933797Y-124836997D01*
X149143266Y-124750232D01*
X149254451Y-124728116D01*
X149365635Y-124706000D01*
X149592365Y-124706000D01*
X149703549Y-124728116D01*
G37*
G36*
X168753549Y-124728116D02*
G01*
X168864734Y-124750232D01*
X169074203Y-124836997D01*
X169262720Y-124962960D01*
X169423040Y-125123280D01*
X169549003Y-125311797D01*
X169635768Y-125521266D01*
X169680000Y-125743636D01*
X169680000Y-125970364D01*
X169635768Y-126192734D01*
X169549003Y-126402203D01*
X169423040Y-126590720D01*
X169262720Y-126751040D01*
X169074203Y-126877003D01*
X168864734Y-126963768D01*
X168753549Y-126985884D01*
X168642365Y-127008000D01*
X168415635Y-127008000D01*
X168304451Y-126985884D01*
X168193266Y-126963768D01*
X167983797Y-126877003D01*
X167795280Y-126751040D01*
X167634960Y-126590720D01*
X167508997Y-126402203D01*
X167422232Y-126192734D01*
X167378000Y-125970364D01*
X167378000Y-125743636D01*
X167422232Y-125521266D01*
X167508997Y-125311797D01*
X167634960Y-125123280D01*
X167795280Y-124962960D01*
X167983797Y-124836997D01*
X168193266Y-124750232D01*
X168304451Y-124728116D01*
X168415635Y-124706000D01*
X168642365Y-124706000D01*
X168753549Y-124728116D01*
G37*
G36*
X130653549Y-124728116D02*
G01*
X130764734Y-124750232D01*
X130974203Y-124836997D01*
X131162720Y-124962960D01*
X131323040Y-125123280D01*
X131449003Y-125311797D01*
X131535768Y-125521266D01*
X131580000Y-125743636D01*
X131580000Y-125970364D01*
X131535768Y-126192734D01*
X131449003Y-126402203D01*
X131323040Y-126590720D01*
X131162720Y-126751040D01*
X130974203Y-126877003D01*
X130764734Y-126963768D01*
X130653549Y-126985884D01*
X130542365Y-127008000D01*
X130315635Y-127008000D01*
X130204451Y-126985884D01*
X130093266Y-126963768D01*
X129883797Y-126877003D01*
X129695280Y-126751040D01*
X129534960Y-126590720D01*
X129408997Y-126402203D01*
X129322232Y-126192734D01*
X129278000Y-125970364D01*
X129278000Y-125743636D01*
X129322232Y-125521266D01*
X129408997Y-125311797D01*
X129534960Y-125123280D01*
X129695280Y-124962960D01*
X129883797Y-124836997D01*
X130093266Y-124750232D01*
X130204451Y-124728116D01*
X130315635Y-124706000D01*
X130542365Y-124706000D01*
X130653549Y-124728116D01*
G37*
G36*
X175103549Y-122188116D02*
G01*
X175214734Y-122210232D01*
X175424203Y-122296997D01*
X175612720Y-122422960D01*
X175773040Y-122583280D01*
X175899003Y-122771797D01*
X175985768Y-122981266D01*
X176030000Y-123203636D01*
X176030000Y-123430364D01*
X175985768Y-123652734D01*
X175899003Y-123862203D01*
X175773040Y-124050720D01*
X175612720Y-124211040D01*
X175424203Y-124337003D01*
X175214734Y-124423768D01*
X175103549Y-124445884D01*
X174992365Y-124468000D01*
X174765635Y-124468000D01*
X174654451Y-124445884D01*
X174543266Y-124423768D01*
X174333797Y-124337003D01*
X174145280Y-124211040D01*
X173984960Y-124050720D01*
X173858997Y-123862203D01*
X173772232Y-123652734D01*
X173728000Y-123430364D01*
X173728000Y-123203636D01*
X173772232Y-122981266D01*
X173858997Y-122771797D01*
X173984960Y-122583280D01*
X174145280Y-122422960D01*
X174333797Y-122296997D01*
X174543266Y-122210232D01*
X174654451Y-122188116D01*
X174765635Y-122166000D01*
X174992365Y-122166000D01*
X175103549Y-122188116D01*
G37*
G36*
X137003549Y-122188116D02*
G01*
X137114734Y-122210232D01*
X137324203Y-122296997D01*
X137512720Y-122422960D01*
X137673040Y-122583280D01*
X137799003Y-122771797D01*
X137885768Y-122981266D01*
X137930000Y-123203636D01*
X137930000Y-123430364D01*
X137885768Y-123652734D01*
X137799003Y-123862203D01*
X137673040Y-124050720D01*
X137512720Y-124211040D01*
X137324203Y-124337003D01*
X137114734Y-124423768D01*
X137003549Y-124445884D01*
X136892365Y-124468000D01*
X136665635Y-124468000D01*
X136554451Y-124445884D01*
X136443266Y-124423768D01*
X136233797Y-124337003D01*
X136045280Y-124211040D01*
X135884960Y-124050720D01*
X135758997Y-123862203D01*
X135672232Y-123652734D01*
X135628000Y-123430364D01*
X135628000Y-123203636D01*
X135672232Y-122981266D01*
X135758997Y-122771797D01*
X135884960Y-122583280D01*
X136045280Y-122422960D01*
X136233797Y-122296997D01*
X136443266Y-122210232D01*
X136554451Y-122188116D01*
X136665635Y-122166000D01*
X136892365Y-122166000D01*
X137003549Y-122188116D01*
G37*
G36*
X117953549Y-122188116D02*
G01*
X118064734Y-122210232D01*
X118274203Y-122296997D01*
X118462720Y-122422960D01*
X118623040Y-122583280D01*
X118749003Y-122771797D01*
X118835768Y-122981266D01*
X118880000Y-123203636D01*
X118880000Y-123430364D01*
X118835768Y-123652734D01*
X118749003Y-123862203D01*
X118623040Y-124050720D01*
X118462720Y-124211040D01*
X118274203Y-124337003D01*
X118064734Y-124423768D01*
X117953549Y-124445884D01*
X117842365Y-124468000D01*
X117615635Y-124468000D01*
X117504451Y-124445884D01*
X117393266Y-124423768D01*
X117183797Y-124337003D01*
X116995280Y-124211040D01*
X116834960Y-124050720D01*
X116708997Y-123862203D01*
X116622232Y-123652734D01*
X116578000Y-123430364D01*
X116578000Y-123203636D01*
X116622232Y-122981266D01*
X116708997Y-122771797D01*
X116834960Y-122583280D01*
X116995280Y-122422960D01*
X117183797Y-122296997D01*
X117393266Y-122210232D01*
X117504451Y-122188116D01*
X117615635Y-122166000D01*
X117842365Y-122166000D01*
X117953549Y-122188116D01*
G37*
G36*
X156053549Y-122188116D02*
G01*
X156164734Y-122210232D01*
X156374203Y-122296997D01*
X156562720Y-122422960D01*
X156723040Y-122583280D01*
X156849003Y-122771797D01*
X156935768Y-122981266D01*
X156980000Y-123203636D01*
X156980000Y-123430364D01*
X156935768Y-123652734D01*
X156849003Y-123862203D01*
X156723040Y-124050720D01*
X156562720Y-124211040D01*
X156374203Y-124337003D01*
X156164734Y-124423768D01*
X156053549Y-124445884D01*
X155942365Y-124468000D01*
X155715635Y-124468000D01*
X155604451Y-124445884D01*
X155493266Y-124423768D01*
X155283797Y-124337003D01*
X155095280Y-124211040D01*
X154934960Y-124050720D01*
X154808997Y-123862203D01*
X154722232Y-123652734D01*
X154678000Y-123430364D01*
X154678000Y-123203636D01*
X154722232Y-122981266D01*
X154808997Y-122771797D01*
X154934960Y-122583280D01*
X155095280Y-122422960D01*
X155283797Y-122296997D01*
X155493266Y-122210232D01*
X155604451Y-122188116D01*
X155715635Y-122166000D01*
X155942365Y-122166000D01*
X156053549Y-122188116D01*
G37*
G36*
X172937254Y-107374818D02*
G01*
X173310511Y-107529426D01*
X173310513Y-107529427D01*
X173646436Y-107753884D01*
X173932116Y-108039564D01*
X174156574Y-108375489D01*
X174311182Y-108748746D01*
X174390000Y-109144993D01*
X174390000Y-109549007D01*
X174311182Y-109945254D01*
X174156574Y-110318511D01*
X174156573Y-110318513D01*
X173932116Y-110654436D01*
X173646436Y-110940116D01*
X173310513Y-111164573D01*
X173310512Y-111164574D01*
X173310511Y-111164574D01*
X172937254Y-111319182D01*
X172541007Y-111398000D01*
X172136993Y-111398000D01*
X171740746Y-111319182D01*
X171367489Y-111164574D01*
X171367488Y-111164574D01*
X171367487Y-111164573D01*
X171031564Y-110940116D01*
X170745884Y-110654436D01*
X170521427Y-110318513D01*
X170521426Y-110318511D01*
X170366818Y-109945254D01*
X170288000Y-109549007D01*
X170288000Y-109144993D01*
X170366818Y-108748746D01*
X170521426Y-108375489D01*
X170745884Y-108039564D01*
X171031564Y-107753884D01*
X171367487Y-107529427D01*
X171367489Y-107529426D01*
X171740746Y-107374818D01*
X172136993Y-107296000D01*
X172541007Y-107296000D01*
X172937254Y-107374818D01*
G37*
G36*
X115787254Y-107374818D02*
G01*
X116160511Y-107529426D01*
X116160513Y-107529427D01*
X116496436Y-107753884D01*
X116782116Y-108039564D01*
X117006574Y-108375489D01*
X117161182Y-108748746D01*
X117240000Y-109144993D01*
X117240000Y-109549007D01*
X117161182Y-109945254D01*
X117006574Y-110318511D01*
X117006573Y-110318513D01*
X116782116Y-110654436D01*
X116496436Y-110940116D01*
X116160513Y-111164573D01*
X116160512Y-111164574D01*
X116160511Y-111164574D01*
X115787254Y-111319182D01*
X115391007Y-111398000D01*
X114986993Y-111398000D01*
X114590746Y-111319182D01*
X114217489Y-111164574D01*
X114217488Y-111164574D01*
X114217487Y-111164573D01*
X113881564Y-110940116D01*
X113595884Y-110654436D01*
X113371427Y-110318513D01*
X113371426Y-110318511D01*
X113216818Y-109945254D01*
X113138000Y-109549007D01*
X113138000Y-109144993D01*
X113216818Y-108748746D01*
X113371426Y-108375489D01*
X113595884Y-108039564D01*
X113881564Y-107753884D01*
X114217487Y-107529427D01*
X114217489Y-107529426D01*
X114590746Y-107374818D01*
X114986993Y-107296000D01*
X115391007Y-107296000D01*
X115787254Y-107374818D01*
G37*
G36*
X134837254Y-107374818D02*
G01*
X135210511Y-107529426D01*
X135210513Y-107529427D01*
X135546436Y-107753884D01*
X135832116Y-108039564D01*
X136056574Y-108375489D01*
X136211182Y-108748746D01*
X136290000Y-109144993D01*
X136290000Y-109549007D01*
X136211182Y-109945254D01*
X136056574Y-110318511D01*
X136056573Y-110318513D01*
X135832116Y-110654436D01*
X135546436Y-110940116D01*
X135210513Y-111164573D01*
X135210512Y-111164574D01*
X135210511Y-111164574D01*
X134837254Y-111319182D01*
X134441007Y-111398000D01*
X134036993Y-111398000D01*
X133640746Y-111319182D01*
X133267489Y-111164574D01*
X133267488Y-111164574D01*
X133267487Y-111164573D01*
X132931564Y-110940116D01*
X132645884Y-110654436D01*
X132421427Y-110318513D01*
X132421426Y-110318511D01*
X132266818Y-109945254D01*
X132188000Y-109549007D01*
X132188000Y-109144993D01*
X132266818Y-108748746D01*
X132421426Y-108375489D01*
X132645884Y-108039564D01*
X132931564Y-107753884D01*
X133267487Y-107529427D01*
X133267489Y-107529426D01*
X133640746Y-107374818D01*
X134036993Y-107296000D01*
X134441007Y-107296000D01*
X134837254Y-107374818D01*
G37*
G36*
X153887254Y-107374818D02*
G01*
X154260511Y-107529426D01*
X154260513Y-107529427D01*
X154596436Y-107753884D01*
X154882116Y-108039564D01*
X155106574Y-108375489D01*
X155261182Y-108748746D01*
X155340000Y-109144993D01*
X155340000Y-109549007D01*
X155261182Y-109945254D01*
X155106574Y-110318511D01*
X155106573Y-110318513D01*
X154882116Y-110654436D01*
X154596436Y-110940116D01*
X154260513Y-111164573D01*
X154260512Y-111164574D01*
X154260511Y-111164574D01*
X153887254Y-111319182D01*
X153491007Y-111398000D01*
X153086993Y-111398000D01*
X152690746Y-111319182D01*
X152317489Y-111164574D01*
X152317488Y-111164574D01*
X152317487Y-111164573D01*
X151981564Y-110940116D01*
X151695884Y-110654436D01*
X151471427Y-110318513D01*
X151471426Y-110318511D01*
X151316818Y-109945254D01*
X151238000Y-109549007D01*
X151238000Y-109144993D01*
X151316818Y-108748746D01*
X151471426Y-108375489D01*
X151695884Y-108039564D01*
X151981564Y-107753884D01*
X152317487Y-107529427D01*
X152317489Y-107529426D01*
X152690746Y-107374818D01*
X153086993Y-107296000D01*
X153491007Y-107296000D01*
X153887254Y-107374818D01*
G37*
G36*
X167372512Y-108450927D02*
G01*
X167521812Y-108480624D01*
X167685784Y-108548544D01*
X167833354Y-108647147D01*
X167958853Y-108772646D01*
X168057456Y-108920216D01*
X168125376Y-109084188D01*
X168160000Y-109258259D01*
X168160000Y-109435741D01*
X168125376Y-109609812D01*
X168057456Y-109773784D01*
X167958853Y-109921354D01*
X167833354Y-110046853D01*
X167685784Y-110145456D01*
X167521812Y-110213376D01*
X167372512Y-110243073D01*
X167347742Y-110248000D01*
X167170258Y-110248000D01*
X167145488Y-110243073D01*
X166996188Y-110213376D01*
X166832216Y-110145456D01*
X166684646Y-110046853D01*
X166559147Y-109921354D01*
X166460544Y-109773784D01*
X166392624Y-109609812D01*
X166358000Y-109435741D01*
X166358000Y-109258259D01*
X166392624Y-109084188D01*
X166460544Y-108920216D01*
X166559147Y-108772646D01*
X166684646Y-108647147D01*
X166832216Y-108548544D01*
X166996188Y-108480624D01*
X167145488Y-108450927D01*
X167170258Y-108446000D01*
X167347742Y-108446000D01*
X167372512Y-108450927D01*
G37*
G36*
X158482512Y-108450927D02*
G01*
X158631812Y-108480624D01*
X158795784Y-108548544D01*
X158943354Y-108647147D01*
X159068853Y-108772646D01*
X159167456Y-108920216D01*
X159235376Y-109084188D01*
X159270000Y-109258259D01*
X159270000Y-109435741D01*
X159235376Y-109609812D01*
X159167456Y-109773784D01*
X159068853Y-109921354D01*
X158943354Y-110046853D01*
X158795784Y-110145456D01*
X158631812Y-110213376D01*
X158482512Y-110243073D01*
X158457742Y-110248000D01*
X158280258Y-110248000D01*
X158255488Y-110243073D01*
X158106188Y-110213376D01*
X157942216Y-110145456D01*
X157794646Y-110046853D01*
X157669147Y-109921354D01*
X157570544Y-109773784D01*
X157502624Y-109609812D01*
X157468000Y-109435741D01*
X157468000Y-109258259D01*
X157502624Y-109084188D01*
X157570544Y-108920216D01*
X157669147Y-108772646D01*
X157794646Y-108647147D01*
X157942216Y-108548544D01*
X158106188Y-108480624D01*
X158255488Y-108450927D01*
X158280258Y-108446000D01*
X158457742Y-108446000D01*
X158482512Y-108450927D01*
G37*
G36*
X110222512Y-108450927D02*
G01*
X110371812Y-108480624D01*
X110535784Y-108548544D01*
X110683354Y-108647147D01*
X110808853Y-108772646D01*
X110907456Y-108920216D01*
X110975376Y-109084188D01*
X111010000Y-109258259D01*
X111010000Y-109435741D01*
X110975376Y-109609812D01*
X110907456Y-109773784D01*
X110808853Y-109921354D01*
X110683354Y-110046853D01*
X110535784Y-110145456D01*
X110371812Y-110213376D01*
X110222512Y-110243073D01*
X110197742Y-110248000D01*
X110020258Y-110248000D01*
X109995488Y-110243073D01*
X109846188Y-110213376D01*
X109682216Y-110145456D01*
X109534646Y-110046853D01*
X109409147Y-109921354D01*
X109310544Y-109773784D01*
X109242624Y-109609812D01*
X109208000Y-109435741D01*
X109208000Y-109258259D01*
X109242624Y-109084188D01*
X109310544Y-108920216D01*
X109409147Y-108772646D01*
X109534646Y-108647147D01*
X109682216Y-108548544D01*
X109846188Y-108480624D01*
X109995488Y-108450927D01*
X110020258Y-108446000D01*
X110197742Y-108446000D01*
X110222512Y-108450927D01*
G37*
G36*
X148322512Y-108450927D02*
G01*
X148471812Y-108480624D01*
X148635784Y-108548544D01*
X148783354Y-108647147D01*
X148908853Y-108772646D01*
X149007456Y-108920216D01*
X149075376Y-109084188D01*
X149110000Y-109258259D01*
X149110000Y-109435741D01*
X149075376Y-109609812D01*
X149007456Y-109773784D01*
X148908853Y-109921354D01*
X148783354Y-110046853D01*
X148635784Y-110145456D01*
X148471812Y-110213376D01*
X148322512Y-110243073D01*
X148297742Y-110248000D01*
X148120258Y-110248000D01*
X148095488Y-110243073D01*
X147946188Y-110213376D01*
X147782216Y-110145456D01*
X147634646Y-110046853D01*
X147509147Y-109921354D01*
X147410544Y-109773784D01*
X147342624Y-109609812D01*
X147308000Y-109435741D01*
X147308000Y-109258259D01*
X147342624Y-109084188D01*
X147410544Y-108920216D01*
X147509147Y-108772646D01*
X147634646Y-108647147D01*
X147782216Y-108548544D01*
X147946188Y-108480624D01*
X148095488Y-108450927D01*
X148120258Y-108446000D01*
X148297742Y-108446000D01*
X148322512Y-108450927D01*
G37*
G36*
X129272512Y-108450927D02*
G01*
X129421812Y-108480624D01*
X129585784Y-108548544D01*
X129733354Y-108647147D01*
X129858853Y-108772646D01*
X129957456Y-108920216D01*
X130025376Y-109084188D01*
X130060000Y-109258259D01*
X130060000Y-109435741D01*
X130025376Y-109609812D01*
X129957456Y-109773784D01*
X129858853Y-109921354D01*
X129733354Y-110046853D01*
X129585784Y-110145456D01*
X129421812Y-110213376D01*
X129272512Y-110243073D01*
X129247742Y-110248000D01*
X129070258Y-110248000D01*
X129045488Y-110243073D01*
X128896188Y-110213376D01*
X128732216Y-110145456D01*
X128584646Y-110046853D01*
X128459147Y-109921354D01*
X128360544Y-109773784D01*
X128292624Y-109609812D01*
X128258000Y-109435741D01*
X128258000Y-109258259D01*
X128292624Y-109084188D01*
X128360544Y-108920216D01*
X128459147Y-108772646D01*
X128584646Y-108647147D01*
X128732216Y-108548544D01*
X128896188Y-108480624D01*
X129045488Y-108450927D01*
X129070258Y-108446000D01*
X129247742Y-108446000D01*
X129272512Y-108450927D01*
G37*
G36*
X120382512Y-108450927D02*
G01*
X120531812Y-108480624D01*
X120695784Y-108548544D01*
X120843354Y-108647147D01*
X120968853Y-108772646D01*
X121067456Y-108920216D01*
X121135376Y-109084188D01*
X121170000Y-109258259D01*
X121170000Y-109435741D01*
X121135376Y-109609812D01*
X121067456Y-109773784D01*
X120968853Y-109921354D01*
X120843354Y-110046853D01*
X120695784Y-110145456D01*
X120531812Y-110213376D01*
X120382512Y-110243073D01*
X120357742Y-110248000D01*
X120180258Y-110248000D01*
X120155488Y-110243073D01*
X120006188Y-110213376D01*
X119842216Y-110145456D01*
X119694646Y-110046853D01*
X119569147Y-109921354D01*
X119470544Y-109773784D01*
X119402624Y-109609812D01*
X119368000Y-109435741D01*
X119368000Y-109258259D01*
X119402624Y-109084188D01*
X119470544Y-108920216D01*
X119569147Y-108772646D01*
X119694646Y-108647147D01*
X119842216Y-108548544D01*
X120006188Y-108480624D01*
X120155488Y-108450927D01*
X120180258Y-108446000D01*
X120357742Y-108446000D01*
X120382512Y-108450927D01*
G37*
G36*
X177532512Y-108450927D02*
G01*
X177681812Y-108480624D01*
X177845784Y-108548544D01*
X177993354Y-108647147D01*
X178118853Y-108772646D01*
X178217456Y-108920216D01*
X178285376Y-109084188D01*
X178320000Y-109258259D01*
X178320000Y-109435741D01*
X178285376Y-109609812D01*
X178217456Y-109773784D01*
X178118853Y-109921354D01*
X177993354Y-110046853D01*
X177845784Y-110145456D01*
X177681812Y-110213376D01*
X177532512Y-110243073D01*
X177507742Y-110248000D01*
X177330258Y-110248000D01*
X177305488Y-110243073D01*
X177156188Y-110213376D01*
X176992216Y-110145456D01*
X176844646Y-110046853D01*
X176719147Y-109921354D01*
X176620544Y-109773784D01*
X176552624Y-109609812D01*
X176518000Y-109435741D01*
X176518000Y-109258259D01*
X176552624Y-109084188D01*
X176620544Y-108920216D01*
X176719147Y-108772646D01*
X176844646Y-108647147D01*
X176992216Y-108548544D01*
X177156188Y-108480624D01*
X177305488Y-108450927D01*
X177330258Y-108446000D01*
X177507742Y-108446000D01*
X177532512Y-108450927D01*
G37*
G36*
X139432512Y-108450927D02*
G01*
X139581812Y-108480624D01*
X139745784Y-108548544D01*
X139893354Y-108647147D01*
X140018853Y-108772646D01*
X140117456Y-108920216D01*
X140185376Y-109084188D01*
X140220000Y-109258259D01*
X140220000Y-109435741D01*
X140185376Y-109609812D01*
X140117456Y-109773784D01*
X140018853Y-109921354D01*
X139893354Y-110046853D01*
X139745784Y-110145456D01*
X139581812Y-110213376D01*
X139432512Y-110243073D01*
X139407742Y-110248000D01*
X139230258Y-110248000D01*
X139205488Y-110243073D01*
X139056188Y-110213376D01*
X138892216Y-110145456D01*
X138744646Y-110046853D01*
X138619147Y-109921354D01*
X138520544Y-109773784D01*
X138452624Y-109609812D01*
X138418000Y-109435741D01*
X138418000Y-109258259D01*
X138452624Y-109084188D01*
X138520544Y-108920216D01*
X138619147Y-108772646D01*
X138744646Y-108647147D01*
X138892216Y-108548544D01*
X139056188Y-108480624D01*
X139205488Y-108450927D01*
X139230258Y-108446000D01*
X139407742Y-108446000D01*
X139432512Y-108450927D01*
G37*
G36*
X149703549Y-105678116D02*
G01*
X149814734Y-105700232D01*
X150024203Y-105786997D01*
X150212720Y-105912960D01*
X150373040Y-106073280D01*
X150499003Y-106261797D01*
X150585768Y-106471266D01*
X150630000Y-106693636D01*
X150630000Y-106920364D01*
X150585768Y-107142734D01*
X150499003Y-107352203D01*
X150373040Y-107540720D01*
X150212720Y-107701040D01*
X150024203Y-107827003D01*
X149814734Y-107913768D01*
X149703549Y-107935884D01*
X149592365Y-107958000D01*
X149365635Y-107958000D01*
X149254451Y-107935884D01*
X149143266Y-107913768D01*
X148933797Y-107827003D01*
X148745280Y-107701040D01*
X148584960Y-107540720D01*
X148458997Y-107352203D01*
X148372232Y-107142734D01*
X148328000Y-106920364D01*
X148328000Y-106693636D01*
X148372232Y-106471266D01*
X148458997Y-106261797D01*
X148584960Y-106073280D01*
X148745280Y-105912960D01*
X148933797Y-105786997D01*
X149143266Y-105700232D01*
X149254451Y-105678116D01*
X149365635Y-105656000D01*
X149592365Y-105656000D01*
X149703549Y-105678116D01*
G37*
G36*
X168753549Y-105678116D02*
G01*
X168864734Y-105700232D01*
X169074203Y-105786997D01*
X169262720Y-105912960D01*
X169423040Y-106073280D01*
X169549003Y-106261797D01*
X169635768Y-106471266D01*
X169680000Y-106693636D01*
X169680000Y-106920364D01*
X169635768Y-107142734D01*
X169549003Y-107352203D01*
X169423040Y-107540720D01*
X169262720Y-107701040D01*
X169074203Y-107827003D01*
X168864734Y-107913768D01*
X168753549Y-107935884D01*
X168642365Y-107958000D01*
X168415635Y-107958000D01*
X168304451Y-107935884D01*
X168193266Y-107913768D01*
X167983797Y-107827003D01*
X167795280Y-107701040D01*
X167634960Y-107540720D01*
X167508997Y-107352203D01*
X167422232Y-107142734D01*
X167378000Y-106920364D01*
X167378000Y-106693636D01*
X167422232Y-106471266D01*
X167508997Y-106261797D01*
X167634960Y-106073280D01*
X167795280Y-105912960D01*
X167983797Y-105786997D01*
X168193266Y-105700232D01*
X168304451Y-105678116D01*
X168415635Y-105656000D01*
X168642365Y-105656000D01*
X168753549Y-105678116D01*
G37*
G36*
X130653549Y-105678116D02*
G01*
X130764734Y-105700232D01*
X130974203Y-105786997D01*
X131162720Y-105912960D01*
X131323040Y-106073280D01*
X131449003Y-106261797D01*
X131535768Y-106471266D01*
X131580000Y-106693636D01*
X131580000Y-106920364D01*
X131535768Y-107142734D01*
X131449003Y-107352203D01*
X131323040Y-107540720D01*
X131162720Y-107701040D01*
X130974203Y-107827003D01*
X130764734Y-107913768D01*
X130653549Y-107935884D01*
X130542365Y-107958000D01*
X130315635Y-107958000D01*
X130204451Y-107935884D01*
X130093266Y-107913768D01*
X129883797Y-107827003D01*
X129695280Y-107701040D01*
X129534960Y-107540720D01*
X129408997Y-107352203D01*
X129322232Y-107142734D01*
X129278000Y-106920364D01*
X129278000Y-106693636D01*
X129322232Y-106471266D01*
X129408997Y-106261797D01*
X129534960Y-106073280D01*
X129695280Y-105912960D01*
X129883797Y-105786997D01*
X130093266Y-105700232D01*
X130204451Y-105678116D01*
X130315635Y-105656000D01*
X130542365Y-105656000D01*
X130653549Y-105678116D01*
G37*
G36*
X111603549Y-105678116D02*
G01*
X111714734Y-105700232D01*
X111924203Y-105786997D01*
X112112720Y-105912960D01*
X112273040Y-106073280D01*
X112399003Y-106261797D01*
X112485768Y-106471266D01*
X112530000Y-106693636D01*
X112530000Y-106920364D01*
X112485768Y-107142734D01*
X112399003Y-107352203D01*
X112273040Y-107540720D01*
X112112720Y-107701040D01*
X111924203Y-107827003D01*
X111714734Y-107913768D01*
X111603549Y-107935884D01*
X111492365Y-107958000D01*
X111265635Y-107958000D01*
X111154451Y-107935884D01*
X111043266Y-107913768D01*
X110833797Y-107827003D01*
X110645280Y-107701040D01*
X110484960Y-107540720D01*
X110358997Y-107352203D01*
X110272232Y-107142734D01*
X110228000Y-106920364D01*
X110228000Y-106693636D01*
X110272232Y-106471266D01*
X110358997Y-106261797D01*
X110484960Y-106073280D01*
X110645280Y-105912960D01*
X110833797Y-105786997D01*
X111043266Y-105700232D01*
X111154451Y-105678116D01*
X111265635Y-105656000D01*
X111492365Y-105656000D01*
X111603549Y-105678116D01*
G37*
G36*
X137003549Y-103138116D02*
G01*
X137114734Y-103160232D01*
X137324203Y-103246997D01*
X137512720Y-103372960D01*
X137673040Y-103533280D01*
X137799003Y-103721797D01*
X137885768Y-103931266D01*
X137930000Y-104153636D01*
X137930000Y-104380364D01*
X137885768Y-104602734D01*
X137799003Y-104812203D01*
X137673040Y-105000720D01*
X137512720Y-105161040D01*
X137324203Y-105287003D01*
X137114734Y-105373768D01*
X137003549Y-105395884D01*
X136892365Y-105418000D01*
X136665635Y-105418000D01*
X136554451Y-105395884D01*
X136443266Y-105373768D01*
X136233797Y-105287003D01*
X136045280Y-105161040D01*
X135884960Y-105000720D01*
X135758997Y-104812203D01*
X135672232Y-104602734D01*
X135628000Y-104380364D01*
X135628000Y-104153636D01*
X135672232Y-103931266D01*
X135758997Y-103721797D01*
X135884960Y-103533280D01*
X136045280Y-103372960D01*
X136233797Y-103246997D01*
X136443266Y-103160232D01*
X136554451Y-103138116D01*
X136665635Y-103116000D01*
X136892365Y-103116000D01*
X137003549Y-103138116D01*
G37*
G36*
X117953549Y-103138116D02*
G01*
X118064734Y-103160232D01*
X118274203Y-103246997D01*
X118462720Y-103372960D01*
X118623040Y-103533280D01*
X118749003Y-103721797D01*
X118835768Y-103931266D01*
X118880000Y-104153636D01*
X118880000Y-104380364D01*
X118835768Y-104602734D01*
X118749003Y-104812203D01*
X118623040Y-105000720D01*
X118462720Y-105161040D01*
X118274203Y-105287003D01*
X118064734Y-105373768D01*
X117953549Y-105395884D01*
X117842365Y-105418000D01*
X117615635Y-105418000D01*
X117504451Y-105395884D01*
X117393266Y-105373768D01*
X117183797Y-105287003D01*
X116995280Y-105161040D01*
X116834960Y-105000720D01*
X116708997Y-104812203D01*
X116622232Y-104602734D01*
X116578000Y-104380364D01*
X116578000Y-104153636D01*
X116622232Y-103931266D01*
X116708997Y-103721797D01*
X116834960Y-103533280D01*
X116995280Y-103372960D01*
X117183797Y-103246997D01*
X117393266Y-103160232D01*
X117504451Y-103138116D01*
X117615635Y-103116000D01*
X117842365Y-103116000D01*
X117953549Y-103138116D01*
G37*
G36*
X156053549Y-103138116D02*
G01*
X156164734Y-103160232D01*
X156374203Y-103246997D01*
X156562720Y-103372960D01*
X156723040Y-103533280D01*
X156849003Y-103721797D01*
X156935768Y-103931266D01*
X156980000Y-104153636D01*
X156980000Y-104380364D01*
X156935768Y-104602734D01*
X156849003Y-104812203D01*
X156723040Y-105000720D01*
X156562720Y-105161040D01*
X156374203Y-105287003D01*
X156164734Y-105373768D01*
X156053549Y-105395884D01*
X155942365Y-105418000D01*
X155715635Y-105418000D01*
X155604451Y-105395884D01*
X155493266Y-105373768D01*
X155283797Y-105287003D01*
X155095280Y-105161040D01*
X154934960Y-105000720D01*
X154808997Y-104812203D01*
X154722232Y-104602734D01*
X154678000Y-104380364D01*
X154678000Y-104153636D01*
X154722232Y-103931266D01*
X154808997Y-103721797D01*
X154934960Y-103533280D01*
X155095280Y-103372960D01*
X155283797Y-103246997D01*
X155493266Y-103160232D01*
X155604451Y-103138116D01*
X155715635Y-103116000D01*
X155942365Y-103116000D01*
X156053549Y-103138116D01*
G37*
G36*
X175103549Y-103138116D02*
G01*
X175214734Y-103160232D01*
X175424203Y-103246997D01*
X175612720Y-103372960D01*
X175773040Y-103533280D01*
X175899003Y-103721797D01*
X175985768Y-103931266D01*
X176030000Y-104153636D01*
X176030000Y-104380364D01*
X175985768Y-104602734D01*
X175899003Y-104812203D01*
X175773040Y-105000720D01*
X175612720Y-105161040D01*
X175424203Y-105287003D01*
X175214734Y-105373768D01*
X175103549Y-105395884D01*
X174992365Y-105418000D01*
X174765635Y-105418000D01*
X174654451Y-105395884D01*
X174543266Y-105373768D01*
X174333797Y-105287003D01*
X174145280Y-105161040D01*
X173984960Y-105000720D01*
X173858997Y-104812203D01*
X173772232Y-104602734D01*
X173728000Y-104380364D01*
X173728000Y-104153636D01*
X173772232Y-103931266D01*
X173858997Y-103721797D01*
X173984960Y-103533280D01*
X174145280Y-103372960D01*
X174333797Y-103246997D01*
X174543266Y-103160232D01*
X174654451Y-103138116D01*
X174765635Y-103116000D01*
X174992365Y-103116000D01*
X175103549Y-103138116D01*
G37*
G36*
X115787254Y-88324818D02*
G01*
X116160511Y-88479426D01*
X116160513Y-88479427D01*
X116496436Y-88703884D01*
X116782116Y-88989564D01*
X117006574Y-89325489D01*
X117161182Y-89698746D01*
X117240000Y-90094993D01*
X117240000Y-90499007D01*
X117161182Y-90895254D01*
X117006574Y-91268511D01*
X117006573Y-91268513D01*
X116782116Y-91604436D01*
X116496436Y-91890116D01*
X116160513Y-92114573D01*
X116160512Y-92114574D01*
X116160511Y-92114574D01*
X115787254Y-92269182D01*
X115391007Y-92348000D01*
X114986993Y-92348000D01*
X114590746Y-92269182D01*
X114217489Y-92114574D01*
X114217488Y-92114574D01*
X114217487Y-92114573D01*
X113881564Y-91890116D01*
X113595884Y-91604436D01*
X113371427Y-91268513D01*
X113371426Y-91268511D01*
X113216818Y-90895254D01*
X113138000Y-90499007D01*
X113138000Y-90094993D01*
X113216818Y-89698746D01*
X113371426Y-89325489D01*
X113595884Y-88989564D01*
X113881564Y-88703884D01*
X114217487Y-88479427D01*
X114217489Y-88479426D01*
X114590746Y-88324818D01*
X114986993Y-88246000D01*
X115391007Y-88246000D01*
X115787254Y-88324818D01*
G37*
G36*
X134837254Y-88324818D02*
G01*
X135210511Y-88479426D01*
X135210513Y-88479427D01*
X135546436Y-88703884D01*
X135832116Y-88989564D01*
X136056574Y-89325489D01*
X136211182Y-89698746D01*
X136290000Y-90094993D01*
X136290000Y-90499007D01*
X136211182Y-90895254D01*
X136056574Y-91268511D01*
X136056573Y-91268513D01*
X135832116Y-91604436D01*
X135546436Y-91890116D01*
X135210513Y-92114573D01*
X135210512Y-92114574D01*
X135210511Y-92114574D01*
X134837254Y-92269182D01*
X134441007Y-92348000D01*
X134036993Y-92348000D01*
X133640746Y-92269182D01*
X133267489Y-92114574D01*
X133267488Y-92114574D01*
X133267487Y-92114573D01*
X132931564Y-91890116D01*
X132645884Y-91604436D01*
X132421427Y-91268513D01*
X132421426Y-91268511D01*
X132266818Y-90895254D01*
X132188000Y-90499007D01*
X132188000Y-90094993D01*
X132266818Y-89698746D01*
X132421426Y-89325489D01*
X132645884Y-88989564D01*
X132931564Y-88703884D01*
X133267487Y-88479427D01*
X133267489Y-88479426D01*
X133640746Y-88324818D01*
X134036993Y-88246000D01*
X134441007Y-88246000D01*
X134837254Y-88324818D01*
G37*
G36*
X172937254Y-88324818D02*
G01*
X173310511Y-88479426D01*
X173310513Y-88479427D01*
X173646436Y-88703884D01*
X173932116Y-88989564D01*
X174156574Y-89325489D01*
X174311182Y-89698746D01*
X174390000Y-90094993D01*
X174390000Y-90499007D01*
X174311182Y-90895254D01*
X174156574Y-91268511D01*
X174156573Y-91268513D01*
X173932116Y-91604436D01*
X173646436Y-91890116D01*
X173310513Y-92114573D01*
X173310512Y-92114574D01*
X173310511Y-92114574D01*
X172937254Y-92269182D01*
X172541007Y-92348000D01*
X172136993Y-92348000D01*
X171740746Y-92269182D01*
X171367489Y-92114574D01*
X171367488Y-92114574D01*
X171367487Y-92114573D01*
X171031564Y-91890116D01*
X170745884Y-91604436D01*
X170521427Y-91268513D01*
X170521426Y-91268511D01*
X170366818Y-90895254D01*
X170288000Y-90499007D01*
X170288000Y-90094993D01*
X170366818Y-89698746D01*
X170521426Y-89325489D01*
X170745884Y-88989564D01*
X171031564Y-88703884D01*
X171367487Y-88479427D01*
X171367489Y-88479426D01*
X171740746Y-88324818D01*
X172136993Y-88246000D01*
X172541007Y-88246000D01*
X172937254Y-88324818D01*
G37*
G36*
X153887254Y-88324818D02*
G01*
X154260511Y-88479426D01*
X154260513Y-88479427D01*
X154596436Y-88703884D01*
X154882116Y-88989564D01*
X155106574Y-89325489D01*
X155261182Y-89698746D01*
X155340000Y-90094993D01*
X155340000Y-90499007D01*
X155261182Y-90895254D01*
X155106574Y-91268511D01*
X155106573Y-91268513D01*
X154882116Y-91604436D01*
X154596436Y-91890116D01*
X154260513Y-92114573D01*
X154260512Y-92114574D01*
X154260511Y-92114574D01*
X153887254Y-92269182D01*
X153491007Y-92348000D01*
X153086993Y-92348000D01*
X152690746Y-92269182D01*
X152317489Y-92114574D01*
X152317488Y-92114574D01*
X152317487Y-92114573D01*
X151981564Y-91890116D01*
X151695884Y-91604436D01*
X151471427Y-91268513D01*
X151471426Y-91268511D01*
X151316818Y-90895254D01*
X151238000Y-90499007D01*
X151238000Y-90094993D01*
X151316818Y-89698746D01*
X151471426Y-89325489D01*
X151695884Y-88989564D01*
X151981564Y-88703884D01*
X152317487Y-88479427D01*
X152317489Y-88479426D01*
X152690746Y-88324818D01*
X153086993Y-88246000D01*
X153491007Y-88246000D01*
X153887254Y-88324818D01*
G37*
G36*
X167372512Y-89400927D02*
G01*
X167521812Y-89430624D01*
X167685784Y-89498544D01*
X167833354Y-89597147D01*
X167958853Y-89722646D01*
X168057456Y-89870216D01*
X168125376Y-90034188D01*
X168160000Y-90208259D01*
X168160000Y-90385741D01*
X168125376Y-90559812D01*
X168057456Y-90723784D01*
X167958853Y-90871354D01*
X167833354Y-90996853D01*
X167685784Y-91095456D01*
X167521812Y-91163376D01*
X167372512Y-91193073D01*
X167347742Y-91198000D01*
X167170258Y-91198000D01*
X167145488Y-91193073D01*
X166996188Y-91163376D01*
X166832216Y-91095456D01*
X166684646Y-90996853D01*
X166559147Y-90871354D01*
X166460544Y-90723784D01*
X166392624Y-90559812D01*
X166358000Y-90385741D01*
X166358000Y-90208259D01*
X166392624Y-90034188D01*
X166460544Y-89870216D01*
X166559147Y-89722646D01*
X166684646Y-89597147D01*
X166832216Y-89498544D01*
X166996188Y-89430624D01*
X167145488Y-89400927D01*
X167170258Y-89396000D01*
X167347742Y-89396000D01*
X167372512Y-89400927D01*
G37*
G36*
X139432512Y-89400927D02*
G01*
X139581812Y-89430624D01*
X139745784Y-89498544D01*
X139893354Y-89597147D01*
X140018853Y-89722646D01*
X140117456Y-89870216D01*
X140185376Y-90034188D01*
X140220000Y-90208259D01*
X140220000Y-90385741D01*
X140185376Y-90559812D01*
X140117456Y-90723784D01*
X140018853Y-90871354D01*
X139893354Y-90996853D01*
X139745784Y-91095456D01*
X139581812Y-91163376D01*
X139432512Y-91193073D01*
X139407742Y-91198000D01*
X139230258Y-91198000D01*
X139205488Y-91193073D01*
X139056188Y-91163376D01*
X138892216Y-91095456D01*
X138744646Y-90996853D01*
X138619147Y-90871354D01*
X138520544Y-90723784D01*
X138452624Y-90559812D01*
X138418000Y-90385741D01*
X138418000Y-90208259D01*
X138452624Y-90034188D01*
X138520544Y-89870216D01*
X138619147Y-89722646D01*
X138744646Y-89597147D01*
X138892216Y-89498544D01*
X139056188Y-89430624D01*
X139205488Y-89400927D01*
X139230258Y-89396000D01*
X139407742Y-89396000D01*
X139432512Y-89400927D01*
G37*
G36*
X158482512Y-89400927D02*
G01*
X158631812Y-89430624D01*
X158795784Y-89498544D01*
X158943354Y-89597147D01*
X159068853Y-89722646D01*
X159167456Y-89870216D01*
X159235376Y-90034188D01*
X159270000Y-90208259D01*
X159270000Y-90385741D01*
X159235376Y-90559812D01*
X159167456Y-90723784D01*
X159068853Y-90871354D01*
X158943354Y-90996853D01*
X158795784Y-91095456D01*
X158631812Y-91163376D01*
X158482512Y-91193073D01*
X158457742Y-91198000D01*
X158280258Y-91198000D01*
X158255488Y-91193073D01*
X158106188Y-91163376D01*
X157942216Y-91095456D01*
X157794646Y-90996853D01*
X157669147Y-90871354D01*
X157570544Y-90723784D01*
X157502624Y-90559812D01*
X157468000Y-90385741D01*
X157468000Y-90208259D01*
X157502624Y-90034188D01*
X157570544Y-89870216D01*
X157669147Y-89722646D01*
X157794646Y-89597147D01*
X157942216Y-89498544D01*
X158106188Y-89430624D01*
X158255488Y-89400927D01*
X158280258Y-89396000D01*
X158457742Y-89396000D01*
X158482512Y-89400927D01*
G37*
G36*
X148322512Y-89400927D02*
G01*
X148471812Y-89430624D01*
X148635784Y-89498544D01*
X148783354Y-89597147D01*
X148908853Y-89722646D01*
X149007456Y-89870216D01*
X149075376Y-90034188D01*
X149110000Y-90208259D01*
X149110000Y-90385741D01*
X149075376Y-90559812D01*
X149007456Y-90723784D01*
X148908853Y-90871354D01*
X148783354Y-90996853D01*
X148635784Y-91095456D01*
X148471812Y-91163376D01*
X148322512Y-91193073D01*
X148297742Y-91198000D01*
X148120258Y-91198000D01*
X148095488Y-91193073D01*
X147946188Y-91163376D01*
X147782216Y-91095456D01*
X147634646Y-90996853D01*
X147509147Y-90871354D01*
X147410544Y-90723784D01*
X147342624Y-90559812D01*
X147308000Y-90385741D01*
X147308000Y-90208259D01*
X147342624Y-90034188D01*
X147410544Y-89870216D01*
X147509147Y-89722646D01*
X147634646Y-89597147D01*
X147782216Y-89498544D01*
X147946188Y-89430624D01*
X148095488Y-89400927D01*
X148120258Y-89396000D01*
X148297742Y-89396000D01*
X148322512Y-89400927D01*
G37*
G36*
X120382512Y-89400927D02*
G01*
X120531812Y-89430624D01*
X120695784Y-89498544D01*
X120843354Y-89597147D01*
X120968853Y-89722646D01*
X121067456Y-89870216D01*
X121135376Y-90034188D01*
X121170000Y-90208259D01*
X121170000Y-90385741D01*
X121135376Y-90559812D01*
X121067456Y-90723784D01*
X120968853Y-90871354D01*
X120843354Y-90996853D01*
X120695784Y-91095456D01*
X120531812Y-91163376D01*
X120382512Y-91193073D01*
X120357742Y-91198000D01*
X120180258Y-91198000D01*
X120155488Y-91193073D01*
X120006188Y-91163376D01*
X119842216Y-91095456D01*
X119694646Y-90996853D01*
X119569147Y-90871354D01*
X119470544Y-90723784D01*
X119402624Y-90559812D01*
X119368000Y-90385741D01*
X119368000Y-90208259D01*
X119402624Y-90034188D01*
X119470544Y-89870216D01*
X119569147Y-89722646D01*
X119694646Y-89597147D01*
X119842216Y-89498544D01*
X120006188Y-89430624D01*
X120155488Y-89400927D01*
X120180258Y-89396000D01*
X120357742Y-89396000D01*
X120382512Y-89400927D01*
G37*
G36*
X110222512Y-89400927D02*
G01*
X110371812Y-89430624D01*
X110535784Y-89498544D01*
X110683354Y-89597147D01*
X110808853Y-89722646D01*
X110907456Y-89870216D01*
X110975376Y-90034188D01*
X111010000Y-90208259D01*
X111010000Y-90385741D01*
X110975376Y-90559812D01*
X110907456Y-90723784D01*
X110808853Y-90871354D01*
X110683354Y-90996853D01*
X110535784Y-91095456D01*
X110371812Y-91163376D01*
X110222512Y-91193073D01*
X110197742Y-91198000D01*
X110020258Y-91198000D01*
X109995488Y-91193073D01*
X109846188Y-91163376D01*
X109682216Y-91095456D01*
X109534646Y-90996853D01*
X109409147Y-90871354D01*
X109310544Y-90723784D01*
X109242624Y-90559812D01*
X109208000Y-90385741D01*
X109208000Y-90208259D01*
X109242624Y-90034188D01*
X109310544Y-89870216D01*
X109409147Y-89722646D01*
X109534646Y-89597147D01*
X109682216Y-89498544D01*
X109846188Y-89430624D01*
X109995488Y-89400927D01*
X110020258Y-89396000D01*
X110197742Y-89396000D01*
X110222512Y-89400927D01*
G37*
G36*
X177532512Y-89400927D02*
G01*
X177681812Y-89430624D01*
X177845784Y-89498544D01*
X177993354Y-89597147D01*
X178118853Y-89722646D01*
X178217456Y-89870216D01*
X178285376Y-90034188D01*
X178320000Y-90208259D01*
X178320000Y-90385741D01*
X178285376Y-90559812D01*
X178217456Y-90723784D01*
X178118853Y-90871354D01*
X177993354Y-90996853D01*
X177845784Y-91095456D01*
X177681812Y-91163376D01*
X177532512Y-91193073D01*
X177507742Y-91198000D01*
X177330258Y-91198000D01*
X177305488Y-91193073D01*
X177156188Y-91163376D01*
X176992216Y-91095456D01*
X176844646Y-90996853D01*
X176719147Y-90871354D01*
X176620544Y-90723784D01*
X176552624Y-90559812D01*
X176518000Y-90385741D01*
X176518000Y-90208259D01*
X176552624Y-90034188D01*
X176620544Y-89870216D01*
X176719147Y-89722646D01*
X176844646Y-89597147D01*
X176992216Y-89498544D01*
X177156188Y-89430624D01*
X177305488Y-89400927D01*
X177330258Y-89396000D01*
X177507742Y-89396000D01*
X177532512Y-89400927D01*
G37*
G36*
X129272512Y-89400927D02*
G01*
X129421812Y-89430624D01*
X129585784Y-89498544D01*
X129733354Y-89597147D01*
X129858853Y-89722646D01*
X129957456Y-89870216D01*
X130025376Y-90034188D01*
X130060000Y-90208259D01*
X130060000Y-90385741D01*
X130025376Y-90559812D01*
X129957456Y-90723784D01*
X129858853Y-90871354D01*
X129733354Y-90996853D01*
X129585784Y-91095456D01*
X129421812Y-91163376D01*
X129272512Y-91193073D01*
X129247742Y-91198000D01*
X129070258Y-91198000D01*
X129045488Y-91193073D01*
X128896188Y-91163376D01*
X128732216Y-91095456D01*
X128584646Y-90996853D01*
X128459147Y-90871354D01*
X128360544Y-90723784D01*
X128292624Y-90559812D01*
X128258000Y-90385741D01*
X128258000Y-90208259D01*
X128292624Y-90034188D01*
X128360544Y-89870216D01*
X128459147Y-89722646D01*
X128584646Y-89597147D01*
X128732216Y-89498544D01*
X128896188Y-89430624D01*
X129045488Y-89400927D01*
X129070258Y-89396000D01*
X129247742Y-89396000D01*
X129272512Y-89400927D01*
G37*
G36*
X130653549Y-86628116D02*
G01*
X130764734Y-86650232D01*
X130974203Y-86736997D01*
X131162720Y-86862960D01*
X131323040Y-87023280D01*
X131449003Y-87211797D01*
X131535768Y-87421266D01*
X131580000Y-87643636D01*
X131580000Y-87870364D01*
X131535768Y-88092734D01*
X131449003Y-88302203D01*
X131323040Y-88490720D01*
X131162720Y-88651040D01*
X130974203Y-88777003D01*
X130764734Y-88863768D01*
X130653549Y-88885884D01*
X130542365Y-88908000D01*
X130315635Y-88908000D01*
X130204451Y-88885884D01*
X130093266Y-88863768D01*
X129883797Y-88777003D01*
X129695280Y-88651040D01*
X129534960Y-88490720D01*
X129408997Y-88302203D01*
X129322232Y-88092734D01*
X129278000Y-87870364D01*
X129278000Y-87643636D01*
X129322232Y-87421266D01*
X129408997Y-87211797D01*
X129534960Y-87023280D01*
X129695280Y-86862960D01*
X129883797Y-86736997D01*
X130093266Y-86650232D01*
X130204451Y-86628116D01*
X130315635Y-86606000D01*
X130542365Y-86606000D01*
X130653549Y-86628116D01*
G37*
G36*
X111603549Y-86628116D02*
G01*
X111714734Y-86650232D01*
X111924203Y-86736997D01*
X112112720Y-86862960D01*
X112273040Y-87023280D01*
X112399003Y-87211797D01*
X112485768Y-87421266D01*
X112530000Y-87643636D01*
X112530000Y-87870364D01*
X112485768Y-88092734D01*
X112399003Y-88302203D01*
X112273040Y-88490720D01*
X112112720Y-88651040D01*
X111924203Y-88777003D01*
X111714734Y-88863768D01*
X111603549Y-88885884D01*
X111492365Y-88908000D01*
X111265635Y-88908000D01*
X111154451Y-88885884D01*
X111043266Y-88863768D01*
X110833797Y-88777003D01*
X110645280Y-88651040D01*
X110484960Y-88490720D01*
X110358997Y-88302203D01*
X110272232Y-88092734D01*
X110228000Y-87870364D01*
X110228000Y-87643636D01*
X110272232Y-87421266D01*
X110358997Y-87211797D01*
X110484960Y-87023280D01*
X110645280Y-86862960D01*
X110833797Y-86736997D01*
X111043266Y-86650232D01*
X111154451Y-86628116D01*
X111265635Y-86606000D01*
X111492365Y-86606000D01*
X111603549Y-86628116D01*
G37*
G36*
X149703549Y-86628116D02*
G01*
X149814734Y-86650232D01*
X150024203Y-86736997D01*
X150212720Y-86862960D01*
X150373040Y-87023280D01*
X150499003Y-87211797D01*
X150585768Y-87421266D01*
X150630000Y-87643636D01*
X150630000Y-87870364D01*
X150585768Y-88092734D01*
X150499003Y-88302203D01*
X150373040Y-88490720D01*
X150212720Y-88651040D01*
X150024203Y-88777003D01*
X149814734Y-88863768D01*
X149703549Y-88885884D01*
X149592365Y-88908000D01*
X149365635Y-88908000D01*
X149254451Y-88885884D01*
X149143266Y-88863768D01*
X148933797Y-88777003D01*
X148745280Y-88651040D01*
X148584960Y-88490720D01*
X148458997Y-88302203D01*
X148372232Y-88092734D01*
X148328000Y-87870364D01*
X148328000Y-87643636D01*
X148372232Y-87421266D01*
X148458997Y-87211797D01*
X148584960Y-87023280D01*
X148745280Y-86862960D01*
X148933797Y-86736997D01*
X149143266Y-86650232D01*
X149254451Y-86628116D01*
X149365635Y-86606000D01*
X149592365Y-86606000D01*
X149703549Y-86628116D01*
G37*
G36*
X168753549Y-86628116D02*
G01*
X168864734Y-86650232D01*
X169074203Y-86736997D01*
X169262720Y-86862960D01*
X169423040Y-87023280D01*
X169549003Y-87211797D01*
X169635768Y-87421266D01*
X169680000Y-87643636D01*
X169680000Y-87870364D01*
X169635768Y-88092734D01*
X169549003Y-88302203D01*
X169423040Y-88490720D01*
X169262720Y-88651040D01*
X169074203Y-88777003D01*
X168864734Y-88863768D01*
X168753549Y-88885884D01*
X168642365Y-88908000D01*
X168415635Y-88908000D01*
X168304451Y-88885884D01*
X168193266Y-88863768D01*
X167983797Y-88777003D01*
X167795280Y-88651040D01*
X167634960Y-88490720D01*
X167508997Y-88302203D01*
X167422232Y-88092734D01*
X167378000Y-87870364D01*
X167378000Y-87643636D01*
X167422232Y-87421266D01*
X167508997Y-87211797D01*
X167634960Y-87023280D01*
X167795280Y-86862960D01*
X167983797Y-86736997D01*
X168193266Y-86650232D01*
X168304451Y-86628116D01*
X168415635Y-86606000D01*
X168642365Y-86606000D01*
X168753549Y-86628116D01*
G37*
G36*
X175103549Y-84088116D02*
G01*
X175214734Y-84110232D01*
X175424203Y-84196997D01*
X175612720Y-84322960D01*
X175773040Y-84483280D01*
X175899003Y-84671797D01*
X175985768Y-84881266D01*
X176030000Y-85103636D01*
X176030000Y-85330364D01*
X175985768Y-85552734D01*
X175899003Y-85762203D01*
X175773040Y-85950720D01*
X175612720Y-86111040D01*
X175424203Y-86237003D01*
X175214734Y-86323768D01*
X175103549Y-86345884D01*
X174992365Y-86368000D01*
X174765635Y-86368000D01*
X174654451Y-86345884D01*
X174543266Y-86323768D01*
X174333797Y-86237003D01*
X174145280Y-86111040D01*
X173984960Y-85950720D01*
X173858997Y-85762203D01*
X173772232Y-85552734D01*
X173728000Y-85330364D01*
X173728000Y-85103636D01*
X173772232Y-84881266D01*
X173858997Y-84671797D01*
X173984960Y-84483280D01*
X174145280Y-84322960D01*
X174333797Y-84196997D01*
X174543266Y-84110232D01*
X174654451Y-84088116D01*
X174765635Y-84066000D01*
X174992365Y-84066000D01*
X175103549Y-84088116D01*
G37*
G36*
X137003549Y-84088116D02*
G01*
X137114734Y-84110232D01*
X137324203Y-84196997D01*
X137512720Y-84322960D01*
X137673040Y-84483280D01*
X137799003Y-84671797D01*
X137885768Y-84881266D01*
X137930000Y-85103636D01*
X137930000Y-85330364D01*
X137885768Y-85552734D01*
X137799003Y-85762203D01*
X137673040Y-85950720D01*
X137512720Y-86111040D01*
X137324203Y-86237003D01*
X137114734Y-86323768D01*
X137003549Y-86345884D01*
X136892365Y-86368000D01*
X136665635Y-86368000D01*
X136554451Y-86345884D01*
X136443266Y-86323768D01*
X136233797Y-86237003D01*
X136045280Y-86111040D01*
X135884960Y-85950720D01*
X135758997Y-85762203D01*
X135672232Y-85552734D01*
X135628000Y-85330364D01*
X135628000Y-85103636D01*
X135672232Y-84881266D01*
X135758997Y-84671797D01*
X135884960Y-84483280D01*
X136045280Y-84322960D01*
X136233797Y-84196997D01*
X136443266Y-84110232D01*
X136554451Y-84088116D01*
X136665635Y-84066000D01*
X136892365Y-84066000D01*
X137003549Y-84088116D01*
G37*
G36*
X156053549Y-84088116D02*
G01*
X156164734Y-84110232D01*
X156374203Y-84196997D01*
X156562720Y-84322960D01*
X156723040Y-84483280D01*
X156849003Y-84671797D01*
X156935768Y-84881266D01*
X156980000Y-85103636D01*
X156980000Y-85330364D01*
X156935768Y-85552734D01*
X156849003Y-85762203D01*
X156723040Y-85950720D01*
X156562720Y-86111040D01*
X156374203Y-86237003D01*
X156164734Y-86323768D01*
X156053549Y-86345884D01*
X155942365Y-86368000D01*
X155715635Y-86368000D01*
X155604451Y-86345884D01*
X155493266Y-86323768D01*
X155283797Y-86237003D01*
X155095280Y-86111040D01*
X154934960Y-85950720D01*
X154808997Y-85762203D01*
X154722232Y-85552734D01*
X154678000Y-85330364D01*
X154678000Y-85103636D01*
X154722232Y-84881266D01*
X154808997Y-84671797D01*
X154934960Y-84483280D01*
X155095280Y-84322960D01*
X155283797Y-84196997D01*
X155493266Y-84110232D01*
X155604451Y-84088116D01*
X155715635Y-84066000D01*
X155942365Y-84066000D01*
X156053549Y-84088116D01*
G37*
G36*
X117953549Y-84088116D02*
G01*
X118064734Y-84110232D01*
X118274203Y-84196997D01*
X118462720Y-84322960D01*
X118623040Y-84483280D01*
X118749003Y-84671797D01*
X118835768Y-84881266D01*
X118880000Y-85103636D01*
X118880000Y-85330364D01*
X118835768Y-85552734D01*
X118749003Y-85762203D01*
X118623040Y-85950720D01*
X118462720Y-86111040D01*
X118274203Y-86237003D01*
X118064734Y-86323768D01*
X117953549Y-86345884D01*
X117842365Y-86368000D01*
X117615635Y-86368000D01*
X117504451Y-86345884D01*
X117393266Y-86323768D01*
X117183797Y-86237003D01*
X116995280Y-86111040D01*
X116834960Y-85950720D01*
X116708997Y-85762203D01*
X116622232Y-85552734D01*
X116578000Y-85330364D01*
X116578000Y-85103636D01*
X116622232Y-84881266D01*
X116708997Y-84671797D01*
X116834960Y-84483280D01*
X116995280Y-84322960D01*
X117183797Y-84196997D01*
X117393266Y-84110232D01*
X117504451Y-84088116D01*
X117615635Y-84066000D01*
X117842365Y-84066000D01*
X117953549Y-84088116D01*
G37*
G36*
X115787254Y-69274818D02*
G01*
X116160511Y-69429426D01*
X116160513Y-69429427D01*
X116496436Y-69653884D01*
X116782116Y-69939564D01*
X117006574Y-70275489D01*
X117161182Y-70648746D01*
X117240000Y-71044993D01*
X117240000Y-71449007D01*
X117161182Y-71845254D01*
X117006574Y-72218511D01*
X117006573Y-72218513D01*
X116782116Y-72554436D01*
X116496436Y-72840116D01*
X116160513Y-73064573D01*
X116160512Y-73064574D01*
X116160511Y-73064574D01*
X115787254Y-73219182D01*
X115391007Y-73298000D01*
X114986993Y-73298000D01*
X114590746Y-73219182D01*
X114217489Y-73064574D01*
X114217488Y-73064574D01*
X114217487Y-73064573D01*
X113881564Y-72840116D01*
X113595884Y-72554436D01*
X113371427Y-72218513D01*
X113371426Y-72218511D01*
X113216818Y-71845254D01*
X113138000Y-71449007D01*
X113138000Y-71044993D01*
X113216818Y-70648746D01*
X113371426Y-70275489D01*
X113595884Y-69939564D01*
X113881564Y-69653884D01*
X114217487Y-69429427D01*
X114217489Y-69429426D01*
X114590746Y-69274818D01*
X114986993Y-69196000D01*
X115391007Y-69196000D01*
X115787254Y-69274818D01*
G37*
G36*
X172937254Y-69274818D02*
G01*
X173310511Y-69429426D01*
X173310513Y-69429427D01*
X173646436Y-69653884D01*
X173932116Y-69939564D01*
X174156574Y-70275489D01*
X174311182Y-70648746D01*
X174390000Y-71044993D01*
X174390000Y-71449007D01*
X174311182Y-71845254D01*
X174156574Y-72218511D01*
X174156573Y-72218513D01*
X173932116Y-72554436D01*
X173646436Y-72840116D01*
X173310513Y-73064573D01*
X173310512Y-73064574D01*
X173310511Y-73064574D01*
X172937254Y-73219182D01*
X172541007Y-73298000D01*
X172136993Y-73298000D01*
X171740746Y-73219182D01*
X171367489Y-73064574D01*
X171367488Y-73064574D01*
X171367487Y-73064573D01*
X171031564Y-72840116D01*
X170745884Y-72554436D01*
X170521427Y-72218513D01*
X170521426Y-72218511D01*
X170366818Y-71845254D01*
X170288000Y-71449007D01*
X170288000Y-71044993D01*
X170366818Y-70648746D01*
X170521426Y-70275489D01*
X170745884Y-69939564D01*
X171031564Y-69653884D01*
X171367487Y-69429427D01*
X171367489Y-69429426D01*
X171740746Y-69274818D01*
X172136993Y-69196000D01*
X172541007Y-69196000D01*
X172937254Y-69274818D01*
G37*
G36*
X153887254Y-69274818D02*
G01*
X154260511Y-69429426D01*
X154260513Y-69429427D01*
X154596436Y-69653884D01*
X154882116Y-69939564D01*
X155106574Y-70275489D01*
X155261182Y-70648746D01*
X155340000Y-71044993D01*
X155340000Y-71449007D01*
X155261182Y-71845254D01*
X155106574Y-72218511D01*
X155106573Y-72218513D01*
X154882116Y-72554436D01*
X154596436Y-72840116D01*
X154260513Y-73064573D01*
X154260512Y-73064574D01*
X154260511Y-73064574D01*
X153887254Y-73219182D01*
X153491007Y-73298000D01*
X153086993Y-73298000D01*
X152690746Y-73219182D01*
X152317489Y-73064574D01*
X152317488Y-73064574D01*
X152317487Y-73064573D01*
X151981564Y-72840116D01*
X151695884Y-72554436D01*
X151471427Y-72218513D01*
X151471426Y-72218511D01*
X151316818Y-71845254D01*
X151238000Y-71449007D01*
X151238000Y-71044993D01*
X151316818Y-70648746D01*
X151471426Y-70275489D01*
X151695884Y-69939564D01*
X151981564Y-69653884D01*
X152317487Y-69429427D01*
X152317489Y-69429426D01*
X152690746Y-69274818D01*
X153086993Y-69196000D01*
X153491007Y-69196000D01*
X153887254Y-69274818D01*
G37*
G36*
X134837254Y-69274818D02*
G01*
X135210511Y-69429426D01*
X135210513Y-69429427D01*
X135546436Y-69653884D01*
X135832116Y-69939564D01*
X136056574Y-70275489D01*
X136211182Y-70648746D01*
X136290000Y-71044993D01*
X136290000Y-71449007D01*
X136211182Y-71845254D01*
X136056574Y-72218511D01*
X136056573Y-72218513D01*
X135832116Y-72554436D01*
X135546436Y-72840116D01*
X135210513Y-73064573D01*
X135210512Y-73064574D01*
X135210511Y-73064574D01*
X134837254Y-73219182D01*
X134441007Y-73298000D01*
X134036993Y-73298000D01*
X133640746Y-73219182D01*
X133267489Y-73064574D01*
X133267488Y-73064574D01*
X133267487Y-73064573D01*
X132931564Y-72840116D01*
X132645884Y-72554436D01*
X132421427Y-72218513D01*
X132421426Y-72218511D01*
X132266818Y-71845254D01*
X132188000Y-71449007D01*
X132188000Y-71044993D01*
X132266818Y-70648746D01*
X132421426Y-70275489D01*
X132645884Y-69939564D01*
X132931564Y-69653884D01*
X133267487Y-69429427D01*
X133267489Y-69429426D01*
X133640746Y-69274818D01*
X134036993Y-69196000D01*
X134441007Y-69196000D01*
X134837254Y-69274818D01*
G37*
G36*
X177532512Y-70350927D02*
G01*
X177681812Y-70380624D01*
X177845784Y-70448544D01*
X177993354Y-70547147D01*
X178118853Y-70672646D01*
X178217456Y-70820216D01*
X178285376Y-70984188D01*
X178320000Y-71158259D01*
X178320000Y-71335741D01*
X178285376Y-71509812D01*
X178217456Y-71673784D01*
X178118853Y-71821354D01*
X177993354Y-71946853D01*
X177845784Y-72045456D01*
X177681812Y-72113376D01*
X177532512Y-72143073D01*
X177507742Y-72148000D01*
X177330258Y-72148000D01*
X177305488Y-72143073D01*
X177156188Y-72113376D01*
X176992216Y-72045456D01*
X176844646Y-71946853D01*
X176719147Y-71821354D01*
X176620544Y-71673784D01*
X176552624Y-71509812D01*
X176518000Y-71335741D01*
X176518000Y-71158259D01*
X176552624Y-70984188D01*
X176620544Y-70820216D01*
X176719147Y-70672646D01*
X176844646Y-70547147D01*
X176992216Y-70448544D01*
X177156188Y-70380624D01*
X177305488Y-70350927D01*
X177330258Y-70346000D01*
X177507742Y-70346000D01*
X177532512Y-70350927D01*
G37*
G36*
X167372512Y-70350927D02*
G01*
X167521812Y-70380624D01*
X167685784Y-70448544D01*
X167833354Y-70547147D01*
X167958853Y-70672646D01*
X168057456Y-70820216D01*
X168125376Y-70984188D01*
X168160000Y-71158259D01*
X168160000Y-71335741D01*
X168125376Y-71509812D01*
X168057456Y-71673784D01*
X167958853Y-71821354D01*
X167833354Y-71946853D01*
X167685784Y-72045456D01*
X167521812Y-72113376D01*
X167372512Y-72143073D01*
X167347742Y-72148000D01*
X167170258Y-72148000D01*
X167145488Y-72143073D01*
X166996188Y-72113376D01*
X166832216Y-72045456D01*
X166684646Y-71946853D01*
X166559147Y-71821354D01*
X166460544Y-71673784D01*
X166392624Y-71509812D01*
X166358000Y-71335741D01*
X166358000Y-71158259D01*
X166392624Y-70984188D01*
X166460544Y-70820216D01*
X166559147Y-70672646D01*
X166684646Y-70547147D01*
X166832216Y-70448544D01*
X166996188Y-70380624D01*
X167145488Y-70350927D01*
X167170258Y-70346000D01*
X167347742Y-70346000D01*
X167372512Y-70350927D01*
G37*
G36*
X158482512Y-70350927D02*
G01*
X158631812Y-70380624D01*
X158795784Y-70448544D01*
X158943354Y-70547147D01*
X159068853Y-70672646D01*
X159167456Y-70820216D01*
X159235376Y-70984188D01*
X159270000Y-71158259D01*
X159270000Y-71335741D01*
X159235376Y-71509812D01*
X159167456Y-71673784D01*
X159068853Y-71821354D01*
X158943354Y-71946853D01*
X158795784Y-72045456D01*
X158631812Y-72113376D01*
X158482512Y-72143073D01*
X158457742Y-72148000D01*
X158280258Y-72148000D01*
X158255488Y-72143073D01*
X158106188Y-72113376D01*
X157942216Y-72045456D01*
X157794646Y-71946853D01*
X157669147Y-71821354D01*
X157570544Y-71673784D01*
X157502624Y-71509812D01*
X157468000Y-71335741D01*
X157468000Y-71158259D01*
X157502624Y-70984188D01*
X157570544Y-70820216D01*
X157669147Y-70672646D01*
X157794646Y-70547147D01*
X157942216Y-70448544D01*
X158106188Y-70380624D01*
X158255488Y-70350927D01*
X158280258Y-70346000D01*
X158457742Y-70346000D01*
X158482512Y-70350927D01*
G37*
G36*
X148322512Y-70350927D02*
G01*
X148471812Y-70380624D01*
X148635784Y-70448544D01*
X148783354Y-70547147D01*
X148908853Y-70672646D01*
X149007456Y-70820216D01*
X149075376Y-70984188D01*
X149110000Y-71158259D01*
X149110000Y-71335741D01*
X149075376Y-71509812D01*
X149007456Y-71673784D01*
X148908853Y-71821354D01*
X148783354Y-71946853D01*
X148635784Y-72045456D01*
X148471812Y-72113376D01*
X148322512Y-72143073D01*
X148297742Y-72148000D01*
X148120258Y-72148000D01*
X148095488Y-72143073D01*
X147946188Y-72113376D01*
X147782216Y-72045456D01*
X147634646Y-71946853D01*
X147509147Y-71821354D01*
X147410544Y-71673784D01*
X147342624Y-71509812D01*
X147308000Y-71335741D01*
X147308000Y-71158259D01*
X147342624Y-70984188D01*
X147410544Y-70820216D01*
X147509147Y-70672646D01*
X147634646Y-70547147D01*
X147782216Y-70448544D01*
X147946188Y-70380624D01*
X148095488Y-70350927D01*
X148120258Y-70346000D01*
X148297742Y-70346000D01*
X148322512Y-70350927D01*
G37*
G36*
X120382512Y-70350927D02*
G01*
X120531812Y-70380624D01*
X120695784Y-70448544D01*
X120843354Y-70547147D01*
X120968853Y-70672646D01*
X121067456Y-70820216D01*
X121135376Y-70984188D01*
X121170000Y-71158259D01*
X121170000Y-71335741D01*
X121135376Y-71509812D01*
X121067456Y-71673784D01*
X120968853Y-71821354D01*
X120843354Y-71946853D01*
X120695784Y-72045456D01*
X120531812Y-72113376D01*
X120382512Y-72143073D01*
X120357742Y-72148000D01*
X120180258Y-72148000D01*
X120155488Y-72143073D01*
X120006188Y-72113376D01*
X119842216Y-72045456D01*
X119694646Y-71946853D01*
X119569147Y-71821354D01*
X119470544Y-71673784D01*
X119402624Y-71509812D01*
X119368000Y-71335741D01*
X119368000Y-71158259D01*
X119402624Y-70984188D01*
X119470544Y-70820216D01*
X119569147Y-70672646D01*
X119694646Y-70547147D01*
X119842216Y-70448544D01*
X120006188Y-70380624D01*
X120155488Y-70350927D01*
X120180258Y-70346000D01*
X120357742Y-70346000D01*
X120382512Y-70350927D01*
G37*
G36*
X110222512Y-70350927D02*
G01*
X110371812Y-70380624D01*
X110535784Y-70448544D01*
X110683354Y-70547147D01*
X110808853Y-70672646D01*
X110907456Y-70820216D01*
X110975376Y-70984188D01*
X111010000Y-71158259D01*
X111010000Y-71335741D01*
X110975376Y-71509812D01*
X110907456Y-71673784D01*
X110808853Y-71821354D01*
X110683354Y-71946853D01*
X110535784Y-72045456D01*
X110371812Y-72113376D01*
X110222512Y-72143073D01*
X110197742Y-72148000D01*
X110020258Y-72148000D01*
X109995488Y-72143073D01*
X109846188Y-72113376D01*
X109682216Y-72045456D01*
X109534646Y-71946853D01*
X109409147Y-71821354D01*
X109310544Y-71673784D01*
X109242624Y-71509812D01*
X109208000Y-71335741D01*
X109208000Y-71158259D01*
X109242624Y-70984188D01*
X109310544Y-70820216D01*
X109409147Y-70672646D01*
X109534646Y-70547147D01*
X109682216Y-70448544D01*
X109846188Y-70380624D01*
X109995488Y-70350927D01*
X110020258Y-70346000D01*
X110197742Y-70346000D01*
X110222512Y-70350927D01*
G37*
G36*
X129272512Y-70350927D02*
G01*
X129421812Y-70380624D01*
X129585784Y-70448544D01*
X129733354Y-70547147D01*
X129858853Y-70672646D01*
X129957456Y-70820216D01*
X130025376Y-70984188D01*
X130060000Y-71158259D01*
X130060000Y-71335741D01*
X130025376Y-71509812D01*
X129957456Y-71673784D01*
X129858853Y-71821354D01*
X129733354Y-71946853D01*
X129585784Y-72045456D01*
X129421812Y-72113376D01*
X129272512Y-72143073D01*
X129247742Y-72148000D01*
X129070258Y-72148000D01*
X129045488Y-72143073D01*
X128896188Y-72113376D01*
X128732216Y-72045456D01*
X128584646Y-71946853D01*
X128459147Y-71821354D01*
X128360544Y-71673784D01*
X128292624Y-71509812D01*
X128258000Y-71335741D01*
X128258000Y-71158259D01*
X128292624Y-70984188D01*
X128360544Y-70820216D01*
X128459147Y-70672646D01*
X128584646Y-70547147D01*
X128732216Y-70448544D01*
X128896188Y-70380624D01*
X129045488Y-70350927D01*
X129070258Y-70346000D01*
X129247742Y-70346000D01*
X129272512Y-70350927D01*
G37*
G36*
X139432512Y-70350927D02*
G01*
X139581812Y-70380624D01*
X139745784Y-70448544D01*
X139893354Y-70547147D01*
X140018853Y-70672646D01*
X140117456Y-70820216D01*
X140185376Y-70984188D01*
X140220000Y-71158259D01*
X140220000Y-71335741D01*
X140185376Y-71509812D01*
X140117456Y-71673784D01*
X140018853Y-71821354D01*
X139893354Y-71946853D01*
X139745784Y-72045456D01*
X139581812Y-72113376D01*
X139432512Y-72143073D01*
X139407742Y-72148000D01*
X139230258Y-72148000D01*
X139205488Y-72143073D01*
X139056188Y-72113376D01*
X138892216Y-72045456D01*
X138744646Y-71946853D01*
X138619147Y-71821354D01*
X138520544Y-71673784D01*
X138452624Y-71509812D01*
X138418000Y-71335741D01*
X138418000Y-71158259D01*
X138452624Y-70984188D01*
X138520544Y-70820216D01*
X138619147Y-70672646D01*
X138744646Y-70547147D01*
X138892216Y-70448544D01*
X139056188Y-70380624D01*
X139205488Y-70350927D01*
X139230258Y-70346000D01*
X139407742Y-70346000D01*
X139432512Y-70350927D01*
G37*
G36*
X111603549Y-67578116D02*
G01*
X111714734Y-67600232D01*
X111924203Y-67686997D01*
X112112720Y-67812960D01*
X112273040Y-67973280D01*
X112399003Y-68161797D01*
X112485768Y-68371266D01*
X112530000Y-68593636D01*
X112530000Y-68820364D01*
X112485768Y-69042734D01*
X112399003Y-69252203D01*
X112273040Y-69440720D01*
X112112720Y-69601040D01*
X111924203Y-69727003D01*
X111714734Y-69813768D01*
X111603549Y-69835884D01*
X111492365Y-69858000D01*
X111265635Y-69858000D01*
X111154451Y-69835884D01*
X111043266Y-69813768D01*
X110833797Y-69727003D01*
X110645280Y-69601040D01*
X110484960Y-69440720D01*
X110358997Y-69252203D01*
X110272232Y-69042734D01*
X110228000Y-68820364D01*
X110228000Y-68593636D01*
X110272232Y-68371266D01*
X110358997Y-68161797D01*
X110484960Y-67973280D01*
X110645280Y-67812960D01*
X110833797Y-67686997D01*
X111043266Y-67600232D01*
X111154451Y-67578116D01*
X111265635Y-67556000D01*
X111492365Y-67556000D01*
X111603549Y-67578116D01*
G37*
G36*
X149703549Y-67578116D02*
G01*
X149814734Y-67600232D01*
X150024203Y-67686997D01*
X150212720Y-67812960D01*
X150373040Y-67973280D01*
X150499003Y-68161797D01*
X150585768Y-68371266D01*
X150630000Y-68593636D01*
X150630000Y-68820364D01*
X150585768Y-69042734D01*
X150499003Y-69252203D01*
X150373040Y-69440720D01*
X150212720Y-69601040D01*
X150024203Y-69727003D01*
X149814734Y-69813768D01*
X149703549Y-69835884D01*
X149592365Y-69858000D01*
X149365635Y-69858000D01*
X149254451Y-69835884D01*
X149143266Y-69813768D01*
X148933797Y-69727003D01*
X148745280Y-69601040D01*
X148584960Y-69440720D01*
X148458997Y-69252203D01*
X148372232Y-69042734D01*
X148328000Y-68820364D01*
X148328000Y-68593636D01*
X148372232Y-68371266D01*
X148458997Y-68161797D01*
X148584960Y-67973280D01*
X148745280Y-67812960D01*
X148933797Y-67686997D01*
X149143266Y-67600232D01*
X149254451Y-67578116D01*
X149365635Y-67556000D01*
X149592365Y-67556000D01*
X149703549Y-67578116D01*
G37*
G36*
X168753549Y-67578116D02*
G01*
X168864734Y-67600232D01*
X169074203Y-67686997D01*
X169262720Y-67812960D01*
X169423040Y-67973280D01*
X169549003Y-68161797D01*
X169635768Y-68371266D01*
X169680000Y-68593636D01*
X169680000Y-68820364D01*
X169635768Y-69042734D01*
X169549003Y-69252203D01*
X169423040Y-69440720D01*
X169262720Y-69601040D01*
X169074203Y-69727003D01*
X168864734Y-69813768D01*
X168753549Y-69835884D01*
X168642365Y-69858000D01*
X168415635Y-69858000D01*
X168304451Y-69835884D01*
X168193266Y-69813768D01*
X167983797Y-69727003D01*
X167795280Y-69601040D01*
X167634960Y-69440720D01*
X167508997Y-69252203D01*
X167422232Y-69042734D01*
X167378000Y-68820364D01*
X167378000Y-68593636D01*
X167422232Y-68371266D01*
X167508997Y-68161797D01*
X167634960Y-67973280D01*
X167795280Y-67812960D01*
X167983797Y-67686997D01*
X168193266Y-67600232D01*
X168304451Y-67578116D01*
X168415635Y-67556000D01*
X168642365Y-67556000D01*
X168753549Y-67578116D01*
G37*
G36*
X130653549Y-67578116D02*
G01*
X130764734Y-67600232D01*
X130974203Y-67686997D01*
X131162720Y-67812960D01*
X131323040Y-67973280D01*
X131449003Y-68161797D01*
X131535768Y-68371266D01*
X131580000Y-68593636D01*
X131580000Y-68820364D01*
X131535768Y-69042734D01*
X131449003Y-69252203D01*
X131323040Y-69440720D01*
X131162720Y-69601040D01*
X130974203Y-69727003D01*
X130764734Y-69813768D01*
X130653549Y-69835884D01*
X130542365Y-69858000D01*
X130315635Y-69858000D01*
X130204451Y-69835884D01*
X130093266Y-69813768D01*
X129883797Y-69727003D01*
X129695280Y-69601040D01*
X129534960Y-69440720D01*
X129408997Y-69252203D01*
X129322232Y-69042734D01*
X129278000Y-68820364D01*
X129278000Y-68593636D01*
X129322232Y-68371266D01*
X129408997Y-68161797D01*
X129534960Y-67973280D01*
X129695280Y-67812960D01*
X129883797Y-67686997D01*
X130093266Y-67600232D01*
X130204451Y-67578116D01*
X130315635Y-67556000D01*
X130542365Y-67556000D01*
X130653549Y-67578116D01*
G37*
G36*
X137003549Y-65038116D02*
G01*
X137114734Y-65060232D01*
X137324203Y-65146997D01*
X137512720Y-65272960D01*
X137673040Y-65433280D01*
X137799003Y-65621797D01*
X137885768Y-65831266D01*
X137930000Y-66053636D01*
X137930000Y-66280364D01*
X137885768Y-66502734D01*
X137799003Y-66712203D01*
X137673040Y-66900720D01*
X137512720Y-67061040D01*
X137324203Y-67187003D01*
X137114734Y-67273768D01*
X137003549Y-67295884D01*
X136892365Y-67318000D01*
X136665635Y-67318000D01*
X136554451Y-67295884D01*
X136443266Y-67273768D01*
X136233797Y-67187003D01*
X136045280Y-67061040D01*
X135884960Y-66900720D01*
X135758997Y-66712203D01*
X135672232Y-66502734D01*
X135628000Y-66280364D01*
X135628000Y-66053636D01*
X135672232Y-65831266D01*
X135758997Y-65621797D01*
X135884960Y-65433280D01*
X136045280Y-65272960D01*
X136233797Y-65146997D01*
X136443266Y-65060232D01*
X136554451Y-65038116D01*
X136665635Y-65016000D01*
X136892365Y-65016000D01*
X137003549Y-65038116D01*
G37*
G36*
X117953549Y-65038116D02*
G01*
X118064734Y-65060232D01*
X118274203Y-65146997D01*
X118462720Y-65272960D01*
X118623040Y-65433280D01*
X118749003Y-65621797D01*
X118835768Y-65831266D01*
X118880000Y-66053636D01*
X118880000Y-66280364D01*
X118835768Y-66502734D01*
X118749003Y-66712203D01*
X118623040Y-66900720D01*
X118462720Y-67061040D01*
X118274203Y-67187003D01*
X118064734Y-67273768D01*
X117953549Y-67295884D01*
X117842365Y-67318000D01*
X117615635Y-67318000D01*
X117504451Y-67295884D01*
X117393266Y-67273768D01*
X117183797Y-67187003D01*
X116995280Y-67061040D01*
X116834960Y-66900720D01*
X116708997Y-66712203D01*
X116622232Y-66502734D01*
X116578000Y-66280364D01*
X116578000Y-66053636D01*
X116622232Y-65831266D01*
X116708997Y-65621797D01*
X116834960Y-65433280D01*
X116995280Y-65272960D01*
X117183797Y-65146997D01*
X117393266Y-65060232D01*
X117504451Y-65038116D01*
X117615635Y-65016000D01*
X117842365Y-65016000D01*
X117953549Y-65038116D01*
G37*
G36*
X156053549Y-65038116D02*
G01*
X156164734Y-65060232D01*
X156374203Y-65146997D01*
X156562720Y-65272960D01*
X156723040Y-65433280D01*
X156849003Y-65621797D01*
X156935768Y-65831266D01*
X156980000Y-66053636D01*
X156980000Y-66280364D01*
X156935768Y-66502734D01*
X156849003Y-66712203D01*
X156723040Y-66900720D01*
X156562720Y-67061040D01*
X156374203Y-67187003D01*
X156164734Y-67273768D01*
X156053549Y-67295884D01*
X155942365Y-67318000D01*
X155715635Y-67318000D01*
X155604451Y-67295884D01*
X155493266Y-67273768D01*
X155283797Y-67187003D01*
X155095280Y-67061040D01*
X154934960Y-66900720D01*
X154808997Y-66712203D01*
X154722232Y-66502734D01*
X154678000Y-66280364D01*
X154678000Y-66053636D01*
X154722232Y-65831266D01*
X154808997Y-65621797D01*
X154934960Y-65433280D01*
X155095280Y-65272960D01*
X155283797Y-65146997D01*
X155493266Y-65060232D01*
X155604451Y-65038116D01*
X155715635Y-65016000D01*
X155942365Y-65016000D01*
X156053549Y-65038116D01*
G37*
G36*
X175103549Y-65038116D02*
G01*
X175214734Y-65060232D01*
X175424203Y-65146997D01*
X175612720Y-65272960D01*
X175773040Y-65433280D01*
X175899003Y-65621797D01*
X175985768Y-65831266D01*
X176030000Y-66053636D01*
X176030000Y-66280364D01*
X175985768Y-66502734D01*
X175899003Y-66712203D01*
X175773040Y-66900720D01*
X175612720Y-67061040D01*
X175424203Y-67187003D01*
X175214734Y-67273768D01*
X175103549Y-67295884D01*
X174992365Y-67318000D01*
X174765635Y-67318000D01*
X174654451Y-67295884D01*
X174543266Y-67273768D01*
X174333797Y-67187003D01*
X174145280Y-67061040D01*
X173984960Y-66900720D01*
X173858997Y-66712203D01*
X173772232Y-66502734D01*
X173728000Y-66280364D01*
X173728000Y-66053636D01*
X173772232Y-65831266D01*
X173858997Y-65621797D01*
X173984960Y-65433280D01*
X174145280Y-65272960D01*
X174333797Y-65146997D01*
X174543266Y-65060232D01*
X174654451Y-65038116D01*
X174765635Y-65016000D01*
X174992365Y-65016000D01*
X175103549Y-65038116D01*
G37*
G36*
X115787254Y-50224818D02*
G01*
X116160511Y-50379426D01*
X116160513Y-50379427D01*
X116496436Y-50603884D01*
X116782116Y-50889564D01*
X117006574Y-51225489D01*
X117161182Y-51598746D01*
X117240000Y-51994993D01*
X117240000Y-52399007D01*
X117161182Y-52795254D01*
X117006574Y-53168511D01*
X117006573Y-53168513D01*
X116782116Y-53504436D01*
X116496436Y-53790116D01*
X116160513Y-54014573D01*
X116160512Y-54014574D01*
X116160511Y-54014574D01*
X115787254Y-54169182D01*
X115391007Y-54248000D01*
X114986993Y-54248000D01*
X114590746Y-54169182D01*
X114217489Y-54014574D01*
X114217488Y-54014574D01*
X114217487Y-54014573D01*
X113881564Y-53790116D01*
X113595884Y-53504436D01*
X113371427Y-53168513D01*
X113371426Y-53168511D01*
X113216818Y-52795254D01*
X113138000Y-52399007D01*
X113138000Y-51994993D01*
X113216818Y-51598746D01*
X113371426Y-51225489D01*
X113595884Y-50889564D01*
X113881564Y-50603884D01*
X114217487Y-50379427D01*
X114217489Y-50379426D01*
X114590746Y-50224818D01*
X114986993Y-50146000D01*
X115391007Y-50146000D01*
X115787254Y-50224818D01*
G37*
G36*
X172937254Y-50224818D02*
G01*
X173310511Y-50379426D01*
X173310513Y-50379427D01*
X173646436Y-50603884D01*
X173932116Y-50889564D01*
X174156574Y-51225489D01*
X174311182Y-51598746D01*
X174390000Y-51994993D01*
X174390000Y-52399007D01*
X174311182Y-52795254D01*
X174156574Y-53168511D01*
X174156573Y-53168513D01*
X173932116Y-53504436D01*
X173646436Y-53790116D01*
X173310513Y-54014573D01*
X173310512Y-54014574D01*
X173310511Y-54014574D01*
X172937254Y-54169182D01*
X172541007Y-54248000D01*
X172136993Y-54248000D01*
X171740746Y-54169182D01*
X171367489Y-54014574D01*
X171367488Y-54014574D01*
X171367487Y-54014573D01*
X171031564Y-53790116D01*
X170745884Y-53504436D01*
X170521427Y-53168513D01*
X170521426Y-53168511D01*
X170366818Y-52795254D01*
X170288000Y-52399007D01*
X170288000Y-51994993D01*
X170366818Y-51598746D01*
X170521426Y-51225489D01*
X170745884Y-50889564D01*
X171031564Y-50603884D01*
X171367487Y-50379427D01*
X171367489Y-50379426D01*
X171740746Y-50224818D01*
X172136993Y-50146000D01*
X172541007Y-50146000D01*
X172937254Y-50224818D01*
G37*
G36*
X153887254Y-50224818D02*
G01*
X154260511Y-50379426D01*
X154260513Y-50379427D01*
X154596436Y-50603884D01*
X154882116Y-50889564D01*
X155106574Y-51225489D01*
X155261182Y-51598746D01*
X155340000Y-51994993D01*
X155340000Y-52399007D01*
X155261182Y-52795254D01*
X155106574Y-53168511D01*
X155106573Y-53168513D01*
X154882116Y-53504436D01*
X154596436Y-53790116D01*
X154260513Y-54014573D01*
X154260512Y-54014574D01*
X154260511Y-54014574D01*
X153887254Y-54169182D01*
X153491007Y-54248000D01*
X153086993Y-54248000D01*
X152690746Y-54169182D01*
X152317489Y-54014574D01*
X152317488Y-54014574D01*
X152317487Y-54014573D01*
X151981564Y-53790116D01*
X151695884Y-53504436D01*
X151471427Y-53168513D01*
X151471426Y-53168511D01*
X151316818Y-52795254D01*
X151238000Y-52399007D01*
X151238000Y-51994993D01*
X151316818Y-51598746D01*
X151471426Y-51225489D01*
X151695884Y-50889564D01*
X151981564Y-50603884D01*
X152317487Y-50379427D01*
X152317489Y-50379426D01*
X152690746Y-50224818D01*
X153086993Y-50146000D01*
X153491007Y-50146000D01*
X153887254Y-50224818D01*
G37*
G36*
X134837254Y-50224818D02*
G01*
X135210511Y-50379426D01*
X135210513Y-50379427D01*
X135546436Y-50603884D01*
X135832116Y-50889564D01*
X136056574Y-51225489D01*
X136211182Y-51598746D01*
X136290000Y-51994993D01*
X136290000Y-52399007D01*
X136211182Y-52795254D01*
X136056574Y-53168511D01*
X136056573Y-53168513D01*
X135832116Y-53504436D01*
X135546436Y-53790116D01*
X135210513Y-54014573D01*
X135210512Y-54014574D01*
X135210511Y-54014574D01*
X134837254Y-54169182D01*
X134441007Y-54248000D01*
X134036993Y-54248000D01*
X133640746Y-54169182D01*
X133267489Y-54014574D01*
X133267488Y-54014574D01*
X133267487Y-54014573D01*
X132931564Y-53790116D01*
X132645884Y-53504436D01*
X132421427Y-53168513D01*
X132421426Y-53168511D01*
X132266818Y-52795254D01*
X132188000Y-52399007D01*
X132188000Y-51994993D01*
X132266818Y-51598746D01*
X132421426Y-51225489D01*
X132645884Y-50889564D01*
X132931564Y-50603884D01*
X133267487Y-50379427D01*
X133267489Y-50379426D01*
X133640746Y-50224818D01*
X134036993Y-50146000D01*
X134441007Y-50146000D01*
X134837254Y-50224818D01*
G37*
G36*
X110222512Y-51300927D02*
G01*
X110371812Y-51330624D01*
X110535784Y-51398544D01*
X110683354Y-51497147D01*
X110808853Y-51622646D01*
X110907456Y-51770216D01*
X110975376Y-51934188D01*
X111010000Y-52108259D01*
X111010000Y-52285741D01*
X110975376Y-52459812D01*
X110907456Y-52623784D01*
X110808853Y-52771354D01*
X110683354Y-52896853D01*
X110535784Y-52995456D01*
X110371812Y-53063376D01*
X110222512Y-53093073D01*
X110197742Y-53098000D01*
X110020258Y-53098000D01*
X109995488Y-53093073D01*
X109846188Y-53063376D01*
X109682216Y-52995456D01*
X109534646Y-52896853D01*
X109409147Y-52771354D01*
X109310544Y-52623784D01*
X109242624Y-52459812D01*
X109208000Y-52285741D01*
X109208000Y-52108259D01*
X109242624Y-51934188D01*
X109310544Y-51770216D01*
X109409147Y-51622646D01*
X109534646Y-51497147D01*
X109682216Y-51398544D01*
X109846188Y-51330624D01*
X109995488Y-51300927D01*
X110020258Y-51296000D01*
X110197742Y-51296000D01*
X110222512Y-51300927D01*
G37*
G36*
X120382512Y-51300927D02*
G01*
X120531812Y-51330624D01*
X120695784Y-51398544D01*
X120843354Y-51497147D01*
X120968853Y-51622646D01*
X121067456Y-51770216D01*
X121135376Y-51934188D01*
X121170000Y-52108259D01*
X121170000Y-52285741D01*
X121135376Y-52459812D01*
X121067456Y-52623784D01*
X120968853Y-52771354D01*
X120843354Y-52896853D01*
X120695784Y-52995456D01*
X120531812Y-53063376D01*
X120382512Y-53093073D01*
X120357742Y-53098000D01*
X120180258Y-53098000D01*
X120155488Y-53093073D01*
X120006188Y-53063376D01*
X119842216Y-52995456D01*
X119694646Y-52896853D01*
X119569147Y-52771354D01*
X119470544Y-52623784D01*
X119402624Y-52459812D01*
X119368000Y-52285741D01*
X119368000Y-52108259D01*
X119402624Y-51934188D01*
X119470544Y-51770216D01*
X119569147Y-51622646D01*
X119694646Y-51497147D01*
X119842216Y-51398544D01*
X120006188Y-51330624D01*
X120155488Y-51300927D01*
X120180258Y-51296000D01*
X120357742Y-51296000D01*
X120382512Y-51300927D01*
G37*
G36*
X148322512Y-51300927D02*
G01*
X148471812Y-51330624D01*
X148635784Y-51398544D01*
X148783354Y-51497147D01*
X148908853Y-51622646D01*
X149007456Y-51770216D01*
X149075376Y-51934188D01*
X149110000Y-52108259D01*
X149110000Y-52285741D01*
X149075376Y-52459812D01*
X149007456Y-52623784D01*
X148908853Y-52771354D01*
X148783354Y-52896853D01*
X148635784Y-52995456D01*
X148471812Y-53063376D01*
X148322512Y-53093073D01*
X148297742Y-53098000D01*
X148120258Y-53098000D01*
X148095488Y-53093073D01*
X147946188Y-53063376D01*
X147782216Y-52995456D01*
X147634646Y-52896853D01*
X147509147Y-52771354D01*
X147410544Y-52623784D01*
X147342624Y-52459812D01*
X147308000Y-52285741D01*
X147308000Y-52108259D01*
X147342624Y-51934188D01*
X147410544Y-51770216D01*
X147509147Y-51622646D01*
X147634646Y-51497147D01*
X147782216Y-51398544D01*
X147946188Y-51330624D01*
X148095488Y-51300927D01*
X148120258Y-51296000D01*
X148297742Y-51296000D01*
X148322512Y-51300927D01*
G37*
G36*
X177532512Y-51300927D02*
G01*
X177681812Y-51330624D01*
X177845784Y-51398544D01*
X177993354Y-51497147D01*
X178118853Y-51622646D01*
X178217456Y-51770216D01*
X178285376Y-51934188D01*
X178320000Y-52108259D01*
X178320000Y-52285741D01*
X178285376Y-52459812D01*
X178217456Y-52623784D01*
X178118853Y-52771354D01*
X177993354Y-52896853D01*
X177845784Y-52995456D01*
X177681812Y-53063376D01*
X177532512Y-53093073D01*
X177507742Y-53098000D01*
X177330258Y-53098000D01*
X177305488Y-53093073D01*
X177156188Y-53063376D01*
X176992216Y-52995456D01*
X176844646Y-52896853D01*
X176719147Y-52771354D01*
X176620544Y-52623784D01*
X176552624Y-52459812D01*
X176518000Y-52285741D01*
X176518000Y-52108259D01*
X176552624Y-51934188D01*
X176620544Y-51770216D01*
X176719147Y-51622646D01*
X176844646Y-51497147D01*
X176992216Y-51398544D01*
X177156188Y-51330624D01*
X177305488Y-51300927D01*
X177330258Y-51296000D01*
X177507742Y-51296000D01*
X177532512Y-51300927D01*
G37*
G36*
X129272512Y-51300927D02*
G01*
X129421812Y-51330624D01*
X129585784Y-51398544D01*
X129733354Y-51497147D01*
X129858853Y-51622646D01*
X129957456Y-51770216D01*
X130025376Y-51934188D01*
X130060000Y-52108259D01*
X130060000Y-52285741D01*
X130025376Y-52459812D01*
X129957456Y-52623784D01*
X129858853Y-52771354D01*
X129733354Y-52896853D01*
X129585784Y-52995456D01*
X129421812Y-53063376D01*
X129272512Y-53093073D01*
X129247742Y-53098000D01*
X129070258Y-53098000D01*
X129045488Y-53093073D01*
X128896188Y-53063376D01*
X128732216Y-52995456D01*
X128584646Y-52896853D01*
X128459147Y-52771354D01*
X128360544Y-52623784D01*
X128292624Y-52459812D01*
X128258000Y-52285741D01*
X128258000Y-52108259D01*
X128292624Y-51934188D01*
X128360544Y-51770216D01*
X128459147Y-51622646D01*
X128584646Y-51497147D01*
X128732216Y-51398544D01*
X128896188Y-51330624D01*
X129045488Y-51300927D01*
X129070258Y-51296000D01*
X129247742Y-51296000D01*
X129272512Y-51300927D01*
G37*
G36*
X167372512Y-51300927D02*
G01*
X167521812Y-51330624D01*
X167685784Y-51398544D01*
X167833354Y-51497147D01*
X167958853Y-51622646D01*
X168057456Y-51770216D01*
X168125376Y-51934188D01*
X168160000Y-52108259D01*
X168160000Y-52285741D01*
X168125376Y-52459812D01*
X168057456Y-52623784D01*
X167958853Y-52771354D01*
X167833354Y-52896853D01*
X167685784Y-52995456D01*
X167521812Y-53063376D01*
X167372512Y-53093073D01*
X167347742Y-53098000D01*
X167170258Y-53098000D01*
X167145488Y-53093073D01*
X166996188Y-53063376D01*
X166832216Y-52995456D01*
X166684646Y-52896853D01*
X166559147Y-52771354D01*
X166460544Y-52623784D01*
X166392624Y-52459812D01*
X166358000Y-52285741D01*
X166358000Y-52108259D01*
X166392624Y-51934188D01*
X166460544Y-51770216D01*
X166559147Y-51622646D01*
X166684646Y-51497147D01*
X166832216Y-51398544D01*
X166996188Y-51330624D01*
X167145488Y-51300927D01*
X167170258Y-51296000D01*
X167347742Y-51296000D01*
X167372512Y-51300927D01*
G37*
G36*
X139432512Y-51300927D02*
G01*
X139581812Y-51330624D01*
X139745784Y-51398544D01*
X139893354Y-51497147D01*
X140018853Y-51622646D01*
X140117456Y-51770216D01*
X140185376Y-51934188D01*
X140220000Y-52108259D01*
X140220000Y-52285741D01*
X140185376Y-52459812D01*
X140117456Y-52623784D01*
X140018853Y-52771354D01*
X139893354Y-52896853D01*
X139745784Y-52995456D01*
X139581812Y-53063376D01*
X139432512Y-53093073D01*
X139407742Y-53098000D01*
X139230258Y-53098000D01*
X139205488Y-53093073D01*
X139056188Y-53063376D01*
X138892216Y-52995456D01*
X138744646Y-52896853D01*
X138619147Y-52771354D01*
X138520544Y-52623784D01*
X138452624Y-52459812D01*
X138418000Y-52285741D01*
X138418000Y-52108259D01*
X138452624Y-51934188D01*
X138520544Y-51770216D01*
X138619147Y-51622646D01*
X138744646Y-51497147D01*
X138892216Y-51398544D01*
X139056188Y-51330624D01*
X139205488Y-51300927D01*
X139230258Y-51296000D01*
X139407742Y-51296000D01*
X139432512Y-51300927D01*
G37*
G36*
X158482512Y-51300927D02*
G01*
X158631812Y-51330624D01*
X158795784Y-51398544D01*
X158943354Y-51497147D01*
X159068853Y-51622646D01*
X159167456Y-51770216D01*
X159235376Y-51934188D01*
X159270000Y-52108259D01*
X159270000Y-52285741D01*
X159235376Y-52459812D01*
X159167456Y-52623784D01*
X159068853Y-52771354D01*
X158943354Y-52896853D01*
X158795784Y-52995456D01*
X158631812Y-53063376D01*
X158482512Y-53093073D01*
X158457742Y-53098000D01*
X158280258Y-53098000D01*
X158255488Y-53093073D01*
X158106188Y-53063376D01*
X157942216Y-52995456D01*
X157794646Y-52896853D01*
X157669147Y-52771354D01*
X157570544Y-52623784D01*
X157502624Y-52459812D01*
X157468000Y-52285741D01*
X157468000Y-52108259D01*
X157502624Y-51934188D01*
X157570544Y-51770216D01*
X157669147Y-51622646D01*
X157794646Y-51497147D01*
X157942216Y-51398544D01*
X158106188Y-51330624D01*
X158255488Y-51300927D01*
X158280258Y-51296000D01*
X158457742Y-51296000D01*
X158482512Y-51300927D01*
G37*
G36*
X130653549Y-48528116D02*
G01*
X130764734Y-48550232D01*
X130974203Y-48636997D01*
X131162720Y-48762960D01*
X131323040Y-48923280D01*
X131449003Y-49111797D01*
X131535768Y-49321266D01*
X131580000Y-49543636D01*
X131580000Y-49770364D01*
X131535768Y-49992734D01*
X131449003Y-50202203D01*
X131323040Y-50390720D01*
X131162720Y-50551040D01*
X130974203Y-50677003D01*
X130764734Y-50763768D01*
X130653549Y-50785884D01*
X130542365Y-50808000D01*
X130315635Y-50808000D01*
X130204451Y-50785884D01*
X130093266Y-50763768D01*
X129883797Y-50677003D01*
X129695280Y-50551040D01*
X129534960Y-50390720D01*
X129408997Y-50202203D01*
X129322232Y-49992734D01*
X129278000Y-49770364D01*
X129278000Y-49543636D01*
X129322232Y-49321266D01*
X129408997Y-49111797D01*
X129534960Y-48923280D01*
X129695280Y-48762960D01*
X129883797Y-48636997D01*
X130093266Y-48550232D01*
X130204451Y-48528116D01*
X130315635Y-48506000D01*
X130542365Y-48506000D01*
X130653549Y-48528116D01*
G37*
G36*
X111603549Y-48528116D02*
G01*
X111714734Y-48550232D01*
X111924203Y-48636997D01*
X112112720Y-48762960D01*
X112273040Y-48923280D01*
X112399003Y-49111797D01*
X112485768Y-49321266D01*
X112530000Y-49543636D01*
X112530000Y-49770364D01*
X112485768Y-49992734D01*
X112399003Y-50202203D01*
X112273040Y-50390720D01*
X112112720Y-50551040D01*
X111924203Y-50677003D01*
X111714734Y-50763768D01*
X111603549Y-50785884D01*
X111492365Y-50808000D01*
X111265635Y-50808000D01*
X111154451Y-50785884D01*
X111043266Y-50763768D01*
X110833797Y-50677003D01*
X110645280Y-50551040D01*
X110484960Y-50390720D01*
X110358997Y-50202203D01*
X110272232Y-49992734D01*
X110228000Y-49770364D01*
X110228000Y-49543636D01*
X110272232Y-49321266D01*
X110358997Y-49111797D01*
X110484960Y-48923280D01*
X110645280Y-48762960D01*
X110833797Y-48636997D01*
X111043266Y-48550232D01*
X111154451Y-48528116D01*
X111265635Y-48506000D01*
X111492365Y-48506000D01*
X111603549Y-48528116D01*
G37*
G36*
X149703549Y-48528116D02*
G01*
X149814734Y-48550232D01*
X150024203Y-48636997D01*
X150212720Y-48762960D01*
X150373040Y-48923280D01*
X150499003Y-49111797D01*
X150585768Y-49321266D01*
X150630000Y-49543636D01*
X150630000Y-49770364D01*
X150585768Y-49992734D01*
X150499003Y-50202203D01*
X150373040Y-50390720D01*
X150212720Y-50551040D01*
X150024203Y-50677003D01*
X149814734Y-50763768D01*
X149703549Y-50785884D01*
X149592365Y-50808000D01*
X149365635Y-50808000D01*
X149254451Y-50785884D01*
X149143266Y-50763768D01*
X148933797Y-50677003D01*
X148745280Y-50551040D01*
X148584960Y-50390720D01*
X148458997Y-50202203D01*
X148372232Y-49992734D01*
X148328000Y-49770364D01*
X148328000Y-49543636D01*
X148372232Y-49321266D01*
X148458997Y-49111797D01*
X148584960Y-48923280D01*
X148745280Y-48762960D01*
X148933797Y-48636997D01*
X149143266Y-48550232D01*
X149254451Y-48528116D01*
X149365635Y-48506000D01*
X149592365Y-48506000D01*
X149703549Y-48528116D01*
G37*
G36*
X168753549Y-48528116D02*
G01*
X168864734Y-48550232D01*
X169074203Y-48636997D01*
X169262720Y-48762960D01*
X169423040Y-48923280D01*
X169549003Y-49111797D01*
X169635768Y-49321266D01*
X169680000Y-49543636D01*
X169680000Y-49770364D01*
X169635768Y-49992734D01*
X169549003Y-50202203D01*
X169423040Y-50390720D01*
X169262720Y-50551040D01*
X169074203Y-50677003D01*
X168864734Y-50763768D01*
X168753549Y-50785884D01*
X168642365Y-50808000D01*
X168415635Y-50808000D01*
X168304451Y-50785884D01*
X168193266Y-50763768D01*
X167983797Y-50677003D01*
X167795280Y-50551040D01*
X167634960Y-50390720D01*
X167508997Y-50202203D01*
X167422232Y-49992734D01*
X167378000Y-49770364D01*
X167378000Y-49543636D01*
X167422232Y-49321266D01*
X167508997Y-49111797D01*
X167634960Y-48923280D01*
X167795280Y-48762960D01*
X167983797Y-48636997D01*
X168193266Y-48550232D01*
X168304451Y-48528116D01*
X168415635Y-48506000D01*
X168642365Y-48506000D01*
X168753549Y-48528116D01*
G37*
G36*
X175103549Y-45988116D02*
G01*
X175214734Y-46010232D01*
X175424203Y-46096997D01*
X175612720Y-46222960D01*
X175773040Y-46383280D01*
X175899003Y-46571797D01*
X175985768Y-46781266D01*
X176030000Y-47003636D01*
X176030000Y-47230364D01*
X175985768Y-47452734D01*
X175899003Y-47662203D01*
X175773040Y-47850720D01*
X175612720Y-48011040D01*
X175424203Y-48137003D01*
X175214734Y-48223768D01*
X175103549Y-48245884D01*
X174992365Y-48268000D01*
X174765635Y-48268000D01*
X174654451Y-48245884D01*
X174543266Y-48223768D01*
X174333797Y-48137003D01*
X174145280Y-48011040D01*
X173984960Y-47850720D01*
X173858997Y-47662203D01*
X173772232Y-47452734D01*
X173728000Y-47230364D01*
X173728000Y-47003636D01*
X173772232Y-46781266D01*
X173858997Y-46571797D01*
X173984960Y-46383280D01*
X174145280Y-46222960D01*
X174333797Y-46096997D01*
X174543266Y-46010232D01*
X174654451Y-45988116D01*
X174765635Y-45966000D01*
X174992365Y-45966000D01*
X175103549Y-45988116D01*
G37*
G36*
X117953549Y-45988116D02*
G01*
X118064734Y-46010232D01*
X118274203Y-46096997D01*
X118462720Y-46222960D01*
X118623040Y-46383280D01*
X118749003Y-46571797D01*
X118835768Y-46781266D01*
X118880000Y-47003636D01*
X118880000Y-47230364D01*
X118835768Y-47452734D01*
X118749003Y-47662203D01*
X118623040Y-47850720D01*
X118462720Y-48011040D01*
X118274203Y-48137003D01*
X118064734Y-48223768D01*
X117953549Y-48245884D01*
X117842365Y-48268000D01*
X117615635Y-48268000D01*
X117504451Y-48245884D01*
X117393266Y-48223768D01*
X117183797Y-48137003D01*
X116995280Y-48011040D01*
X116834960Y-47850720D01*
X116708997Y-47662203D01*
X116622232Y-47452734D01*
X116578000Y-47230364D01*
X116578000Y-47003636D01*
X116622232Y-46781266D01*
X116708997Y-46571797D01*
X116834960Y-46383280D01*
X116995280Y-46222960D01*
X117183797Y-46096997D01*
X117393266Y-46010232D01*
X117504451Y-45988116D01*
X117615635Y-45966000D01*
X117842365Y-45966000D01*
X117953549Y-45988116D01*
G37*
G36*
X137003549Y-45988116D02*
G01*
X137114734Y-46010232D01*
X137324203Y-46096997D01*
X137512720Y-46222960D01*
X137673040Y-46383280D01*
X137799003Y-46571797D01*
X137885768Y-46781266D01*
X137930000Y-47003636D01*
X137930000Y-47230364D01*
X137885768Y-47452734D01*
X137799003Y-47662203D01*
X137673040Y-47850720D01*
X137512720Y-48011040D01*
X137324203Y-48137003D01*
X137114734Y-48223768D01*
X137003549Y-48245884D01*
X136892365Y-48268000D01*
X136665635Y-48268000D01*
X136554451Y-48245884D01*
X136443266Y-48223768D01*
X136233797Y-48137003D01*
X136045280Y-48011040D01*
X135884960Y-47850720D01*
X135758997Y-47662203D01*
X135672232Y-47452734D01*
X135628000Y-47230364D01*
X135628000Y-47003636D01*
X135672232Y-46781266D01*
X135758997Y-46571797D01*
X135884960Y-46383280D01*
X136045280Y-46222960D01*
X136233797Y-46096997D01*
X136443266Y-46010232D01*
X136554451Y-45988116D01*
X136665635Y-45966000D01*
X136892365Y-45966000D01*
X137003549Y-45988116D01*
G37*
G36*
X156053549Y-45988116D02*
G01*
X156164734Y-46010232D01*
X156374203Y-46096997D01*
X156562720Y-46222960D01*
X156723040Y-46383280D01*
X156849003Y-46571797D01*
X156935768Y-46781266D01*
X156980000Y-47003636D01*
X156980000Y-47230364D01*
X156935768Y-47452734D01*
X156849003Y-47662203D01*
X156723040Y-47850720D01*
X156562720Y-48011040D01*
X156374203Y-48137003D01*
X156164734Y-48223768D01*
X156053549Y-48245884D01*
X155942365Y-48268000D01*
X155715635Y-48268000D01*
X155604451Y-48245884D01*
X155493266Y-48223768D01*
X155283797Y-48137003D01*
X155095280Y-48011040D01*
X154934960Y-47850720D01*
X154808997Y-47662203D01*
X154722232Y-47452734D01*
X154678000Y-47230364D01*
X154678000Y-47003636D01*
X154722232Y-46781266D01*
X154808997Y-46571797D01*
X154934960Y-46383280D01*
X155095280Y-46222960D01*
X155283797Y-46096997D01*
X155493266Y-46010232D01*
X155604451Y-45988116D01*
X155715635Y-45966000D01*
X155942365Y-45966000D01*
X156053549Y-45988116D01*
G37*
G36*
X178048228Y-37281703D02*
G01*
X178203100Y-37345853D01*
X178342481Y-37438985D01*
X178461015Y-37557519D01*
X178554147Y-37696900D01*
X178618297Y-37851772D01*
X178651000Y-38016184D01*
X178651000Y-38183816D01*
X178618297Y-38348228D01*
X178554147Y-38503100D01*
X178461015Y-38642481D01*
X178342481Y-38761015D01*
X178203100Y-38854147D01*
X178048228Y-38918297D01*
X177883816Y-38951000D01*
X177716184Y-38951000D01*
X177551772Y-38918297D01*
X177396900Y-38854147D01*
X177257519Y-38761015D01*
X177138985Y-38642481D01*
X177045853Y-38503100D01*
X176981703Y-38348228D01*
X176949000Y-38183816D01*
X176949000Y-38016184D01*
X176981703Y-37851772D01*
X177045853Y-37696900D01*
X177138985Y-37557519D01*
X177257519Y-37438985D01*
X177396900Y-37345853D01*
X177551772Y-37281703D01*
X177716184Y-37249000D01*
X177883816Y-37249000D01*
X178048228Y-37281703D01*
G37*
G36*
X155188228Y-37281703D02*
G01*
X155343100Y-37345853D01*
X155482481Y-37438985D01*
X155601015Y-37557519D01*
X155694147Y-37696900D01*
X155758297Y-37851772D01*
X155791000Y-38016184D01*
X155791000Y-38183816D01*
X155758297Y-38348228D01*
X155694147Y-38503100D01*
X155601015Y-38642481D01*
X155482481Y-38761015D01*
X155343100Y-38854147D01*
X155188228Y-38918297D01*
X155023816Y-38951000D01*
X154856184Y-38951000D01*
X154691772Y-38918297D01*
X154536900Y-38854147D01*
X154397519Y-38761015D01*
X154278985Y-38642481D01*
X154185853Y-38503100D01*
X154121703Y-38348228D01*
X154089000Y-38183816D01*
X154089000Y-38016184D01*
X154121703Y-37851772D01*
X154185853Y-37696900D01*
X154278985Y-37557519D01*
X154397519Y-37438985D01*
X154536900Y-37345853D01*
X154691772Y-37281703D01*
X154856184Y-37249000D01*
X155023816Y-37249000D01*
X155188228Y-37281703D01*
G37*
G36*
X157728228Y-37281703D02*
G01*
X157883100Y-37345853D01*
X158022481Y-37438985D01*
X158141015Y-37557519D01*
X158234147Y-37696900D01*
X158298297Y-37851772D01*
X158331000Y-38016184D01*
X158331000Y-38183816D01*
X158298297Y-38348228D01*
X158234147Y-38503100D01*
X158141015Y-38642481D01*
X158022481Y-38761015D01*
X157883100Y-38854147D01*
X157728228Y-38918297D01*
X157563816Y-38951000D01*
X157396184Y-38951000D01*
X157231772Y-38918297D01*
X157076900Y-38854147D01*
X156937519Y-38761015D01*
X156818985Y-38642481D01*
X156725853Y-38503100D01*
X156661703Y-38348228D01*
X156629000Y-38183816D01*
X156629000Y-38016184D01*
X156661703Y-37851772D01*
X156725853Y-37696900D01*
X156818985Y-37557519D01*
X156937519Y-37438985D01*
X157076900Y-37345853D01*
X157231772Y-37281703D01*
X157396184Y-37249000D01*
X157563816Y-37249000D01*
X157728228Y-37281703D01*
G37*
G36*
X160268228Y-37281703D02*
G01*
X160423100Y-37345853D01*
X160562481Y-37438985D01*
X160681015Y-37557519D01*
X160774147Y-37696900D01*
X160838297Y-37851772D01*
X160871000Y-38016184D01*
X160871000Y-38183816D01*
X160838297Y-38348228D01*
X160774147Y-38503100D01*
X160681015Y-38642481D01*
X160562481Y-38761015D01*
X160423100Y-38854147D01*
X160268228Y-38918297D01*
X160103816Y-38951000D01*
X159936184Y-38951000D01*
X159771772Y-38918297D01*
X159616900Y-38854147D01*
X159477519Y-38761015D01*
X159358985Y-38642481D01*
X159265853Y-38503100D01*
X159201703Y-38348228D01*
X159169000Y-38183816D01*
X159169000Y-38016184D01*
X159201703Y-37851772D01*
X159265853Y-37696900D01*
X159358985Y-37557519D01*
X159477519Y-37438985D01*
X159616900Y-37345853D01*
X159771772Y-37281703D01*
X159936184Y-37249000D01*
X160103816Y-37249000D01*
X160268228Y-37281703D01*
G37*
G36*
X172968228Y-37281703D02*
G01*
X173123100Y-37345853D01*
X173262481Y-37438985D01*
X173381015Y-37557519D01*
X173474147Y-37696900D01*
X173538297Y-37851772D01*
X173571000Y-38016184D01*
X173571000Y-38183816D01*
X173538297Y-38348228D01*
X173474147Y-38503100D01*
X173381015Y-38642481D01*
X173262481Y-38761015D01*
X173123100Y-38854147D01*
X172968228Y-38918297D01*
X172803816Y-38951000D01*
X172636184Y-38951000D01*
X172471772Y-38918297D01*
X172316900Y-38854147D01*
X172177519Y-38761015D01*
X172058985Y-38642481D01*
X171965853Y-38503100D01*
X171901703Y-38348228D01*
X171869000Y-38183816D01*
X171869000Y-38016184D01*
X171901703Y-37851772D01*
X171965853Y-37696900D01*
X172058985Y-37557519D01*
X172177519Y-37438985D01*
X172316900Y-37345853D01*
X172471772Y-37281703D01*
X172636184Y-37249000D01*
X172803816Y-37249000D01*
X172968228Y-37281703D01*
G37*
G36*
X165348228Y-37281703D02*
G01*
X165503100Y-37345853D01*
X165642481Y-37438985D01*
X165761015Y-37557519D01*
X165854147Y-37696900D01*
X165918297Y-37851772D01*
X165951000Y-38016184D01*
X165951000Y-38183816D01*
X165918297Y-38348228D01*
X165854147Y-38503100D01*
X165761015Y-38642481D01*
X165642481Y-38761015D01*
X165503100Y-38854147D01*
X165348228Y-38918297D01*
X165183816Y-38951000D01*
X165016184Y-38951000D01*
X164851772Y-38918297D01*
X164696900Y-38854147D01*
X164557519Y-38761015D01*
X164438985Y-38642481D01*
X164345853Y-38503100D01*
X164281703Y-38348228D01*
X164249000Y-38183816D01*
X164249000Y-38016184D01*
X164281703Y-37851772D01*
X164345853Y-37696900D01*
X164438985Y-37557519D01*
X164557519Y-37438985D01*
X164696900Y-37345853D01*
X164851772Y-37281703D01*
X165016184Y-37249000D01*
X165183816Y-37249000D01*
X165348228Y-37281703D01*
G37*
G36*
X167888228Y-37281703D02*
G01*
X168043100Y-37345853D01*
X168182481Y-37438985D01*
X168301015Y-37557519D01*
X168394147Y-37696900D01*
X168458297Y-37851772D01*
X168491000Y-38016184D01*
X168491000Y-38183816D01*
X168458297Y-38348228D01*
X168394147Y-38503100D01*
X168301015Y-38642481D01*
X168182481Y-38761015D01*
X168043100Y-38854147D01*
X167888228Y-38918297D01*
X167723816Y-38951000D01*
X167556184Y-38951000D01*
X167391772Y-38918297D01*
X167236900Y-38854147D01*
X167097519Y-38761015D01*
X166978985Y-38642481D01*
X166885853Y-38503100D01*
X166821703Y-38348228D01*
X166789000Y-38183816D01*
X166789000Y-38016184D01*
X166821703Y-37851772D01*
X166885853Y-37696900D01*
X166978985Y-37557519D01*
X167097519Y-37438985D01*
X167236900Y-37345853D01*
X167391772Y-37281703D01*
X167556184Y-37249000D01*
X167723816Y-37249000D01*
X167888228Y-37281703D01*
G37*
G36*
X170428228Y-37281703D02*
G01*
X170583100Y-37345853D01*
X170722481Y-37438985D01*
X170841015Y-37557519D01*
X170934147Y-37696900D01*
X170998297Y-37851772D01*
X171031000Y-38016184D01*
X171031000Y-38183816D01*
X170998297Y-38348228D01*
X170934147Y-38503100D01*
X170841015Y-38642481D01*
X170722481Y-38761015D01*
X170583100Y-38854147D01*
X170428228Y-38918297D01*
X170263816Y-38951000D01*
X170096184Y-38951000D01*
X169931772Y-38918297D01*
X169776900Y-38854147D01*
X169637519Y-38761015D01*
X169518985Y-38642481D01*
X169425853Y-38503100D01*
X169361703Y-38348228D01*
X169329000Y-38183816D01*
X169329000Y-38016184D01*
X169361703Y-37851772D01*
X169425853Y-37696900D01*
X169518985Y-37557519D01*
X169637519Y-37438985D01*
X169776900Y-37345853D01*
X169931772Y-37281703D01*
X170096184Y-37249000D01*
X170263816Y-37249000D01*
X170428228Y-37281703D01*
G37*
G36*
X175508228Y-37281703D02*
G01*
X175663100Y-37345853D01*
X175802481Y-37438985D01*
X175921015Y-37557519D01*
X176014147Y-37696900D01*
X176078297Y-37851772D01*
X176111000Y-38016184D01*
X176111000Y-38183816D01*
X176078297Y-38348228D01*
X176014147Y-38503100D01*
X175921015Y-38642481D01*
X175802481Y-38761015D01*
X175663100Y-38854147D01*
X175508228Y-38918297D01*
X175343816Y-38951000D01*
X175176184Y-38951000D01*
X175011772Y-38918297D01*
X174856900Y-38854147D01*
X174717519Y-38761015D01*
X174598985Y-38642481D01*
X174505853Y-38503100D01*
X174441703Y-38348228D01*
X174409000Y-38183816D01*
X174409000Y-38016184D01*
X174441703Y-37851772D01*
X174505853Y-37696900D01*
X174598985Y-37557519D01*
X174717519Y-37438985D01*
X174856900Y-37345853D01*
X175011772Y-37281703D01*
X175176184Y-37249000D01*
X175343816Y-37249000D01*
X175508228Y-37281703D01*
G37*
G36*
X162808228Y-37281703D02*
G01*
X162963100Y-37345853D01*
X163102481Y-37438985D01*
X163221015Y-37557519D01*
X163314147Y-37696900D01*
X163378297Y-37851772D01*
X163411000Y-38016184D01*
X163411000Y-38183816D01*
X163378297Y-38348228D01*
X163314147Y-38503100D01*
X163221015Y-38642481D01*
X163102481Y-38761015D01*
X162963100Y-38854147D01*
X162808228Y-38918297D01*
X162643816Y-38951000D01*
X162476184Y-38951000D01*
X162311772Y-38918297D01*
X162156900Y-38854147D01*
X162017519Y-38761015D01*
X161898985Y-38642481D01*
X161805853Y-38503100D01*
X161741703Y-38348228D01*
X161709000Y-38183816D01*
X161709000Y-38016184D01*
X161741703Y-37851772D01*
X161805853Y-37696900D01*
X161898985Y-37557519D01*
X162017519Y-37438985D01*
X162156900Y-37345853D01*
X162311772Y-37281703D01*
X162476184Y-37249000D01*
X162643816Y-37249000D01*
X162808228Y-37281703D01*
G37*
G36*
X147112721Y-36011703D02*
G01*
X147267593Y-36075853D01*
X147406974Y-36168985D01*
X147525508Y-36287519D01*
X147618640Y-36426900D01*
X147682790Y-36581772D01*
X147715493Y-36746184D01*
X147715493Y-36913816D01*
X147682790Y-37078228D01*
X147618640Y-37233100D01*
X147525508Y-37372481D01*
X147406974Y-37491015D01*
X147267593Y-37584147D01*
X147112721Y-37648297D01*
X146948309Y-37681000D01*
X146780677Y-37681000D01*
X146616265Y-37648297D01*
X146461393Y-37584147D01*
X146322012Y-37491015D01*
X146203478Y-37372481D01*
X146110346Y-37233100D01*
X146046196Y-37078228D01*
X146013493Y-36913816D01*
X146013493Y-36746184D01*
X146046196Y-36581772D01*
X146110346Y-36426900D01*
X146203478Y-36287519D01*
X146322012Y-36168985D01*
X146461393Y-36075853D01*
X146616265Y-36011703D01*
X146780677Y-35979000D01*
X146948309Y-35979000D01*
X147112721Y-36011703D01*
G37*
G36*
X143758228Y-36011703D02*
G01*
X143913100Y-36075853D01*
X144052481Y-36168985D01*
X144171015Y-36287519D01*
X144264147Y-36426900D01*
X144328297Y-36581772D01*
X144361000Y-36746184D01*
X144361000Y-36913816D01*
X144328297Y-37078228D01*
X144264147Y-37233100D01*
X144171015Y-37372481D01*
X144052481Y-37491015D01*
X143913100Y-37584147D01*
X143758228Y-37648297D01*
X143593816Y-37681000D01*
X143426184Y-37681000D01*
X143261772Y-37648297D01*
X143106900Y-37584147D01*
X142967519Y-37491015D01*
X142848985Y-37372481D01*
X142755853Y-37233100D01*
X142691703Y-37078228D01*
X142659000Y-36913816D01*
X142659000Y-36746184D01*
X142691703Y-36581772D01*
X142755853Y-36426900D01*
X142848985Y-36287519D01*
X142967519Y-36168985D01*
X143106900Y-36075853D01*
X143261772Y-36011703D01*
X143426184Y-35979000D01*
X143593816Y-35979000D01*
X143758228Y-36011703D01*
G37*
G36*
X123460483Y-34668335D02*
G01*
X123629240Y-34738236D01*
X123781118Y-34839718D01*
X123910282Y-34968882D01*
X124011764Y-35120760D01*
X124081665Y-35289517D01*
X124117300Y-35468668D01*
X124117300Y-35651332D01*
X124081665Y-35830483D01*
X124011764Y-35999240D01*
X123910282Y-36151118D01*
X123781118Y-36280282D01*
X123629240Y-36381764D01*
X123460483Y-36451665D01*
X123281332Y-36487300D01*
X123098668Y-36487300D01*
X122919517Y-36451665D01*
X122750760Y-36381764D01*
X122598882Y-36280282D01*
X122469718Y-36151118D01*
X122368236Y-35999240D01*
X122298335Y-35830483D01*
X122262700Y-35651332D01*
X122262700Y-35468668D01*
X122298335Y-35289517D01*
X122368236Y-35120760D01*
X122469718Y-34968882D01*
X122598882Y-34839718D01*
X122750760Y-34738236D01*
X122919517Y-34668335D01*
X123098668Y-34632700D01*
X123281332Y-34632700D01*
X123460483Y-34668335D01*
G37*
G36*
X138700483Y-34668335D02*
G01*
X138869240Y-34738236D01*
X139021118Y-34839718D01*
X139150282Y-34968882D01*
X139251764Y-35120760D01*
X139321665Y-35289517D01*
X139357300Y-35468668D01*
X139357300Y-35651332D01*
X139321665Y-35830483D01*
X139251764Y-35999240D01*
X139150282Y-36151118D01*
X139021118Y-36280282D01*
X138869240Y-36381764D01*
X138700483Y-36451665D01*
X138521332Y-36487300D01*
X138338668Y-36487300D01*
X138159517Y-36451665D01*
X137990760Y-36381764D01*
X137838882Y-36280282D01*
X137709718Y-36151118D01*
X137608236Y-35999240D01*
X137538335Y-35830483D01*
X137502700Y-35651332D01*
X137502700Y-35468668D01*
X137538335Y-35289517D01*
X137608236Y-35120760D01*
X137709718Y-34968882D01*
X137838882Y-34839718D01*
X137990760Y-34738236D01*
X138159517Y-34668335D01*
X138338668Y-34632700D01*
X138521332Y-34632700D01*
X138700483Y-34668335D01*
G37*
G36*
X136160483Y-34668335D02*
G01*
X136329240Y-34738236D01*
X136481118Y-34839718D01*
X136610282Y-34968882D01*
X136711764Y-35120760D01*
X136781665Y-35289517D01*
X136817300Y-35468668D01*
X136817300Y-35651332D01*
X136781665Y-35830483D01*
X136711764Y-35999240D01*
X136610282Y-36151118D01*
X136481118Y-36280282D01*
X136329240Y-36381764D01*
X136160483Y-36451665D01*
X135981332Y-36487300D01*
X135798668Y-36487300D01*
X135619517Y-36451665D01*
X135450760Y-36381764D01*
X135298882Y-36280282D01*
X135169718Y-36151118D01*
X135068236Y-35999240D01*
X134998335Y-35830483D01*
X134962700Y-35651332D01*
X134962700Y-35468668D01*
X134998335Y-35289517D01*
X135068236Y-35120760D01*
X135169718Y-34968882D01*
X135298882Y-34839718D01*
X135450760Y-34738236D01*
X135619517Y-34668335D01*
X135798668Y-34632700D01*
X135981332Y-34632700D01*
X136160483Y-34668335D01*
G37*
G36*
X113300483Y-34668335D02*
G01*
X113469240Y-34738236D01*
X113621118Y-34839718D01*
X113750282Y-34968882D01*
X113851764Y-35120760D01*
X113921665Y-35289517D01*
X113957300Y-35468668D01*
X113957300Y-35651332D01*
X113921665Y-35830483D01*
X113851764Y-35999240D01*
X113750282Y-36151118D01*
X113621118Y-36280282D01*
X113469240Y-36381764D01*
X113300483Y-36451665D01*
X113121332Y-36487300D01*
X112938668Y-36487300D01*
X112759517Y-36451665D01*
X112590760Y-36381764D01*
X112438882Y-36280282D01*
X112309718Y-36151118D01*
X112208236Y-35999240D01*
X112138335Y-35830483D01*
X112102700Y-35651332D01*
X112102700Y-35468668D01*
X112138335Y-35289517D01*
X112208236Y-35120760D01*
X112309718Y-34968882D01*
X112438882Y-34839718D01*
X112590760Y-34738236D01*
X112759517Y-34668335D01*
X112938668Y-34632700D01*
X113121332Y-34632700D01*
X113300483Y-34668335D01*
G37*
G36*
X115840483Y-34668335D02*
G01*
X116009240Y-34738236D01*
X116161118Y-34839718D01*
X116290282Y-34968882D01*
X116391764Y-35120760D01*
X116461665Y-35289517D01*
X116497300Y-35468668D01*
X116497300Y-35651332D01*
X116461665Y-35830483D01*
X116391764Y-35999240D01*
X116290282Y-36151118D01*
X116161118Y-36280282D01*
X116009240Y-36381764D01*
X115840483Y-36451665D01*
X115661332Y-36487300D01*
X115478668Y-36487300D01*
X115299517Y-36451665D01*
X115130760Y-36381764D01*
X114978882Y-36280282D01*
X114849718Y-36151118D01*
X114748236Y-35999240D01*
X114678335Y-35830483D01*
X114642700Y-35651332D01*
X114642700Y-35468668D01*
X114678335Y-35289517D01*
X114748236Y-35120760D01*
X114849718Y-34968882D01*
X114978882Y-34839718D01*
X115130760Y-34738236D01*
X115299517Y-34668335D01*
X115478668Y-34632700D01*
X115661332Y-34632700D01*
X115840483Y-34668335D01*
G37*
G36*
X118380483Y-34668335D02*
G01*
X118549240Y-34738236D01*
X118701118Y-34839718D01*
X118830282Y-34968882D01*
X118931764Y-35120760D01*
X119001665Y-35289517D01*
X119037300Y-35468668D01*
X119037300Y-35651332D01*
X119001665Y-35830483D01*
X118931764Y-35999240D01*
X118830282Y-36151118D01*
X118701118Y-36280282D01*
X118549240Y-36381764D01*
X118380483Y-36451665D01*
X118201332Y-36487300D01*
X118018668Y-36487300D01*
X117839517Y-36451665D01*
X117670760Y-36381764D01*
X117518882Y-36280282D01*
X117389718Y-36151118D01*
X117288236Y-35999240D01*
X117218335Y-35830483D01*
X117182700Y-35651332D01*
X117182700Y-35468668D01*
X117218335Y-35289517D01*
X117288236Y-35120760D01*
X117389718Y-34968882D01*
X117518882Y-34839718D01*
X117670760Y-34738236D01*
X117839517Y-34668335D01*
X118018668Y-34632700D01*
X118201332Y-34632700D01*
X118380483Y-34668335D01*
G37*
G36*
X120920483Y-34668335D02*
G01*
X121089240Y-34738236D01*
X121241118Y-34839718D01*
X121370282Y-34968882D01*
X121471764Y-35120760D01*
X121541665Y-35289517D01*
X121577300Y-35468668D01*
X121577300Y-35651332D01*
X121541665Y-35830483D01*
X121471764Y-35999240D01*
X121370282Y-36151118D01*
X121241118Y-36280282D01*
X121089240Y-36381764D01*
X120920483Y-36451665D01*
X120741332Y-36487300D01*
X120558668Y-36487300D01*
X120379517Y-36451665D01*
X120210760Y-36381764D01*
X120058882Y-36280282D01*
X119929718Y-36151118D01*
X119828236Y-35999240D01*
X119758335Y-35830483D01*
X119722700Y-35651332D01*
X119722700Y-35468668D01*
X119758335Y-35289517D01*
X119828236Y-35120760D01*
X119929718Y-34968882D01*
X120058882Y-34839718D01*
X120210760Y-34738236D01*
X120379517Y-34668335D01*
X120558668Y-34632700D01*
X120741332Y-34632700D01*
X120920483Y-34668335D01*
G37*
G36*
X126000483Y-34668335D02*
G01*
X126169240Y-34738236D01*
X126321118Y-34839718D01*
X126450282Y-34968882D01*
X126551764Y-35120760D01*
X126621665Y-35289517D01*
X126657300Y-35468668D01*
X126657300Y-35651332D01*
X126621665Y-35830483D01*
X126551764Y-35999240D01*
X126450282Y-36151118D01*
X126321118Y-36280282D01*
X126169240Y-36381764D01*
X126000483Y-36451665D01*
X125821332Y-36487300D01*
X125638668Y-36487300D01*
X125459517Y-36451665D01*
X125290760Y-36381764D01*
X125138882Y-36280282D01*
X125009718Y-36151118D01*
X124908236Y-35999240D01*
X124838335Y-35830483D01*
X124802700Y-35651332D01*
X124802700Y-35468668D01*
X124838335Y-35289517D01*
X124908236Y-35120760D01*
X125009718Y-34968882D01*
X125138882Y-34839718D01*
X125290760Y-34738236D01*
X125459517Y-34668335D01*
X125638668Y-34632700D01*
X125821332Y-34632700D01*
X126000483Y-34668335D01*
G37*
G36*
X128540483Y-34668335D02*
G01*
X128709240Y-34738236D01*
X128861118Y-34839718D01*
X128990282Y-34968882D01*
X129091764Y-35120760D01*
X129161665Y-35289517D01*
X129197300Y-35468668D01*
X129197300Y-35651332D01*
X129161665Y-35830483D01*
X129091764Y-35999240D01*
X128990282Y-36151118D01*
X128861118Y-36280282D01*
X128709240Y-36381764D01*
X128540483Y-36451665D01*
X128361332Y-36487300D01*
X128178668Y-36487300D01*
X127999517Y-36451665D01*
X127830760Y-36381764D01*
X127678882Y-36280282D01*
X127549718Y-36151118D01*
X127448236Y-35999240D01*
X127378335Y-35830483D01*
X127342700Y-35651332D01*
X127342700Y-35468668D01*
X127378335Y-35289517D01*
X127448236Y-35120760D01*
X127549718Y-34968882D01*
X127678882Y-34839718D01*
X127830760Y-34738236D01*
X127999517Y-34668335D01*
X128178668Y-34632700D01*
X128361332Y-34632700D01*
X128540483Y-34668335D01*
G37*
G36*
X131080483Y-34668335D02*
G01*
X131249240Y-34738236D01*
X131401118Y-34839718D01*
X131530282Y-34968882D01*
X131631764Y-35120760D01*
X131701665Y-35289517D01*
X131737300Y-35468668D01*
X131737300Y-35651332D01*
X131701665Y-35830483D01*
X131631764Y-35999240D01*
X131530282Y-36151118D01*
X131401118Y-36280282D01*
X131249240Y-36381764D01*
X131080483Y-36451665D01*
X130901332Y-36487300D01*
X130718668Y-36487300D01*
X130539517Y-36451665D01*
X130370760Y-36381764D01*
X130218882Y-36280282D01*
X130089718Y-36151118D01*
X129988236Y-35999240D01*
X129918335Y-35830483D01*
X129882700Y-35651332D01*
X129882700Y-35468668D01*
X129918335Y-35289517D01*
X129988236Y-35120760D01*
X130089718Y-34968882D01*
X130218882Y-34839718D01*
X130370760Y-34738236D01*
X130539517Y-34668335D01*
X130718668Y-34632700D01*
X130901332Y-34632700D01*
X131080483Y-34668335D01*
G37*
G36*
X111417300Y-36487300D02*
G01*
X109562700Y-36487300D01*
X109562700Y-34632700D01*
X111417300Y-34632700D01*
X111417300Y-36487300D01*
G37*
G36*
X133620483Y-34668335D02*
G01*
X133789240Y-34738236D01*
X133941118Y-34839718D01*
X134070282Y-34968882D01*
X134171764Y-35120760D01*
X134241665Y-35289517D01*
X134277300Y-35468668D01*
X134277300Y-35651332D01*
X134241665Y-35830483D01*
X134171764Y-35999240D01*
X134070282Y-36151118D01*
X133941118Y-36280282D01*
X133789240Y-36381764D01*
X133620483Y-36451665D01*
X133441332Y-36487300D01*
X133258668Y-36487300D01*
X133079517Y-36451665D01*
X132910760Y-36381764D01*
X132758882Y-36280282D01*
X132629718Y-36151118D01*
X132528236Y-35999240D01*
X132458335Y-35830483D01*
X132422700Y-35651332D01*
X132422700Y-35468668D01*
X132458335Y-35289517D01*
X132528236Y-35120760D01*
X132629718Y-34968882D01*
X132758882Y-34839718D01*
X132910760Y-34738236D01*
X133079517Y-34668335D01*
X133258668Y-34632700D01*
X133441332Y-34632700D01*
X133620483Y-34668335D01*
G37*
G36*
X160871000Y-33871000D02*
G01*
X159169000Y-33871000D01*
X159169000Y-32169000D01*
X160871000Y-32169000D01*
X160871000Y-33871000D01*
G37*
G36*
X176111000Y-33871000D02*
G01*
X174409000Y-33871000D01*
X174409000Y-32169000D01*
X176111000Y-32169000D01*
X176111000Y-33871000D01*
G37*
G36*
X173571000Y-33871000D02*
G01*
X171869000Y-33871000D01*
X171869000Y-32169000D01*
X173571000Y-32169000D01*
X173571000Y-33871000D01*
G37*
G36*
X171031000Y-33871000D02*
G01*
X169329000Y-33871000D01*
X169329000Y-32169000D01*
X171031000Y-32169000D01*
X171031000Y-33871000D01*
G37*
G36*
X168491000Y-33871000D02*
G01*
X166789000Y-33871000D01*
X166789000Y-32169000D01*
X168491000Y-32169000D01*
X168491000Y-33871000D01*
G37*
G36*
X158331000Y-33871000D02*
G01*
X156629000Y-33871000D01*
X156629000Y-32169000D01*
X158331000Y-32169000D01*
X158331000Y-33871000D01*
G37*
G36*
X178651000Y-33871000D02*
G01*
X176949000Y-33871000D01*
X176949000Y-32169000D01*
X178651000Y-32169000D01*
X178651000Y-33871000D01*
G37*
G36*
X163411000Y-33871000D02*
G01*
X161709000Y-33871000D01*
X161709000Y-32169000D01*
X163411000Y-32169000D01*
X163411000Y-33871000D01*
G37*
G36*
X155791000Y-33871000D02*
G01*
X154089000Y-33871000D01*
X154089000Y-32169000D01*
X155791000Y-32169000D01*
X155791000Y-33871000D01*
G37*
G36*
X165951000Y-33871000D02*
G01*
X164249000Y-33871000D01*
X164249000Y-32169000D01*
X165951000Y-32169000D01*
X165951000Y-33871000D01*
G37*
G36*
X147112721Y-28391703D02*
G01*
X147267593Y-28455853D01*
X147406974Y-28548985D01*
X147525508Y-28667519D01*
X147618640Y-28806900D01*
X147682790Y-28961772D01*
X147715493Y-29126184D01*
X147715493Y-29293816D01*
X147682790Y-29458228D01*
X147618640Y-29613100D01*
X147525508Y-29752481D01*
X147406974Y-29871015D01*
X147267593Y-29964147D01*
X147112721Y-30028297D01*
X146948309Y-30061000D01*
X146780677Y-30061000D01*
X146616265Y-30028297D01*
X146461393Y-29964147D01*
X146322012Y-29871015D01*
X146203478Y-29752481D01*
X146110346Y-29613100D01*
X146046196Y-29458228D01*
X146013493Y-29293816D01*
X146013493Y-29126184D01*
X146046196Y-28961772D01*
X146110346Y-28806900D01*
X146203478Y-28667519D01*
X146322012Y-28548985D01*
X146461393Y-28455853D01*
X146616265Y-28391703D01*
X146780677Y-28359000D01*
X146948309Y-28359000D01*
X147112721Y-28391703D01*
G37*
G36*
X143758228Y-28391703D02*
G01*
X143913100Y-28455853D01*
X144052481Y-28548985D01*
X144171015Y-28667519D01*
X144264147Y-28806900D01*
X144328297Y-28961772D01*
X144361000Y-29126184D01*
X144361000Y-29293816D01*
X144328297Y-29458228D01*
X144264147Y-29613100D01*
X144171015Y-29752481D01*
X144052481Y-29871015D01*
X143913100Y-29964147D01*
X143758228Y-30028297D01*
X143593816Y-30061000D01*
X143426184Y-30061000D01*
X143261772Y-30028297D01*
X143106900Y-29964147D01*
X142967519Y-29871015D01*
X142848985Y-29752481D01*
X142755853Y-29613100D01*
X142691703Y-29458228D01*
X142659000Y-29293816D01*
X142659000Y-29126184D01*
X142691703Y-28961772D01*
X142755853Y-28806900D01*
X142848985Y-28667519D01*
X142967519Y-28548985D01*
X143106900Y-28455853D01*
X143261772Y-28391703D01*
X143426184Y-28359000D01*
X143593816Y-28359000D01*
X143758228Y-28391703D01*
G37*
G36*
X143787395Y-25755546D02*
G01*
X143960466Y-25827234D01*
X143960467Y-25827235D01*
X144116227Y-25931310D01*
X144248690Y-26063773D01*
X144248691Y-26063775D01*
X144352766Y-26219534D01*
X144424454Y-26392605D01*
X144461000Y-26576333D01*
X144461000Y-26763667D01*
X144424454Y-26947395D01*
X144352766Y-27120466D01*
X144352765Y-27120467D01*
X144248690Y-27276227D01*
X144116227Y-27408690D01*
X144037818Y-27461081D01*
X143960466Y-27512766D01*
X143787395Y-27584454D01*
X143603667Y-27621000D01*
X143416333Y-27621000D01*
X143232605Y-27584454D01*
X143059534Y-27512766D01*
X142982182Y-27461081D01*
X142903773Y-27408690D01*
X142771310Y-27276227D01*
X142667235Y-27120467D01*
X142667234Y-27120466D01*
X142595546Y-26947395D01*
X142559000Y-26763667D01*
X142559000Y-26576333D01*
X142595546Y-26392605D01*
X142667234Y-26219534D01*
X142771309Y-26063775D01*
X142771310Y-26063773D01*
X142903773Y-25931310D01*
X143059533Y-25827235D01*
X143059534Y-25827234D01*
X143232605Y-25755546D01*
X143416333Y-25719000D01*
X143603667Y-25719000D01*
X143787395Y-25755546D01*
G37*
G36*
X178048228Y-24581703D02*
G01*
X178203100Y-24645853D01*
X178342481Y-24738985D01*
X178461015Y-24857519D01*
X178554147Y-24996900D01*
X178618297Y-25151772D01*
X178651000Y-25316184D01*
X178651000Y-25483816D01*
X178618297Y-25648228D01*
X178554147Y-25803100D01*
X178461015Y-25942481D01*
X178342481Y-26061015D01*
X178203100Y-26154147D01*
X178048228Y-26218297D01*
X177883816Y-26251000D01*
X177716184Y-26251000D01*
X177551772Y-26218297D01*
X177396900Y-26154147D01*
X177257519Y-26061015D01*
X177138985Y-25942481D01*
X177045853Y-25803100D01*
X176981703Y-25648228D01*
X176949000Y-25483816D01*
X176949000Y-25316184D01*
X176981703Y-25151772D01*
X177045853Y-24996900D01*
X177138985Y-24857519D01*
X177257519Y-24738985D01*
X177396900Y-24645853D01*
X177551772Y-24581703D01*
X177716184Y-24549000D01*
X177883816Y-24549000D01*
X178048228Y-24581703D01*
G37*
G36*
X170428228Y-24581703D02*
G01*
X170583100Y-24645853D01*
X170722481Y-24738985D01*
X170841015Y-24857519D01*
X170934147Y-24996900D01*
X170998297Y-25151772D01*
X171031000Y-25316184D01*
X171031000Y-25483816D01*
X170998297Y-25648228D01*
X170934147Y-25803100D01*
X170841015Y-25942481D01*
X170722481Y-26061015D01*
X170583100Y-26154147D01*
X170428228Y-26218297D01*
X170263816Y-26251000D01*
X170096184Y-26251000D01*
X169931772Y-26218297D01*
X169776900Y-26154147D01*
X169637519Y-26061015D01*
X169518985Y-25942481D01*
X169425853Y-25803100D01*
X169361703Y-25648228D01*
X169329000Y-25483816D01*
X169329000Y-25316184D01*
X169361703Y-25151772D01*
X169425853Y-24996900D01*
X169518985Y-24857519D01*
X169637519Y-24738985D01*
X169776900Y-24645853D01*
X169931772Y-24581703D01*
X170096184Y-24549000D01*
X170263816Y-24549000D01*
X170428228Y-24581703D01*
G37*
G36*
X172968228Y-24581703D02*
G01*
X173123100Y-24645853D01*
X173262481Y-24738985D01*
X173381015Y-24857519D01*
X173474147Y-24996900D01*
X173538297Y-25151772D01*
X173571000Y-25316184D01*
X173571000Y-25483816D01*
X173538297Y-25648228D01*
X173474147Y-25803100D01*
X173381015Y-25942481D01*
X173262481Y-26061015D01*
X173123100Y-26154147D01*
X172968228Y-26218297D01*
X172803816Y-26251000D01*
X172636184Y-26251000D01*
X172471772Y-26218297D01*
X172316900Y-26154147D01*
X172177519Y-26061015D01*
X172058985Y-25942481D01*
X171965853Y-25803100D01*
X171901703Y-25648228D01*
X171869000Y-25483816D01*
X171869000Y-25316184D01*
X171901703Y-25151772D01*
X171965853Y-24996900D01*
X172058985Y-24857519D01*
X172177519Y-24738985D01*
X172316900Y-24645853D01*
X172471772Y-24581703D01*
X172636184Y-24549000D01*
X172803816Y-24549000D01*
X172968228Y-24581703D01*
G37*
G36*
X162808228Y-24581703D02*
G01*
X162963100Y-24645853D01*
X163102481Y-24738985D01*
X163221015Y-24857519D01*
X163314147Y-24996900D01*
X163378297Y-25151772D01*
X163411000Y-25316184D01*
X163411000Y-25483816D01*
X163378297Y-25648228D01*
X163314147Y-25803100D01*
X163221015Y-25942481D01*
X163102481Y-26061015D01*
X162963100Y-26154147D01*
X162808228Y-26218297D01*
X162643816Y-26251000D01*
X162476184Y-26251000D01*
X162311772Y-26218297D01*
X162156900Y-26154147D01*
X162017519Y-26061015D01*
X161898985Y-25942481D01*
X161805853Y-25803100D01*
X161741703Y-25648228D01*
X161709000Y-25483816D01*
X161709000Y-25316184D01*
X161741703Y-25151772D01*
X161805853Y-24996900D01*
X161898985Y-24857519D01*
X162017519Y-24738985D01*
X162156900Y-24645853D01*
X162311772Y-24581703D01*
X162476184Y-24549000D01*
X162643816Y-24549000D01*
X162808228Y-24581703D01*
G37*
G36*
X165348228Y-24581703D02*
G01*
X165503100Y-24645853D01*
X165642481Y-24738985D01*
X165761015Y-24857519D01*
X165854147Y-24996900D01*
X165918297Y-25151772D01*
X165951000Y-25316184D01*
X165951000Y-25483816D01*
X165918297Y-25648228D01*
X165854147Y-25803100D01*
X165761015Y-25942481D01*
X165642481Y-26061015D01*
X165503100Y-26154147D01*
X165348228Y-26218297D01*
X165183816Y-26251000D01*
X165016184Y-26251000D01*
X164851772Y-26218297D01*
X164696900Y-26154147D01*
X164557519Y-26061015D01*
X164438985Y-25942481D01*
X164345853Y-25803100D01*
X164281703Y-25648228D01*
X164249000Y-25483816D01*
X164249000Y-25316184D01*
X164281703Y-25151772D01*
X164345853Y-24996900D01*
X164438985Y-24857519D01*
X164557519Y-24738985D01*
X164696900Y-24645853D01*
X164851772Y-24581703D01*
X165016184Y-24549000D01*
X165183816Y-24549000D01*
X165348228Y-24581703D01*
G37*
G36*
X175508228Y-24581703D02*
G01*
X175663100Y-24645853D01*
X175802481Y-24738985D01*
X175921015Y-24857519D01*
X176014147Y-24996900D01*
X176078297Y-25151772D01*
X176111000Y-25316184D01*
X176111000Y-25483816D01*
X176078297Y-25648228D01*
X176014147Y-25803100D01*
X175921015Y-25942481D01*
X175802481Y-26061015D01*
X175663100Y-26154147D01*
X175508228Y-26218297D01*
X175343816Y-26251000D01*
X175176184Y-26251000D01*
X175011772Y-26218297D01*
X174856900Y-26154147D01*
X174717519Y-26061015D01*
X174598985Y-25942481D01*
X174505853Y-25803100D01*
X174441703Y-25648228D01*
X174409000Y-25483816D01*
X174409000Y-25316184D01*
X174441703Y-25151772D01*
X174505853Y-24996900D01*
X174598985Y-24857519D01*
X174717519Y-24738985D01*
X174856900Y-24645853D01*
X175011772Y-24581703D01*
X175176184Y-24549000D01*
X175343816Y-24549000D01*
X175508228Y-24581703D01*
G37*
G36*
X167888228Y-24581703D02*
G01*
X168043100Y-24645853D01*
X168182481Y-24738985D01*
X168301015Y-24857519D01*
X168394147Y-24996900D01*
X168458297Y-25151772D01*
X168491000Y-25316184D01*
X168491000Y-25483816D01*
X168458297Y-25648228D01*
X168394147Y-25803100D01*
X168301015Y-25942481D01*
X168182481Y-26061015D01*
X168043100Y-26154147D01*
X167888228Y-26218297D01*
X167723816Y-26251000D01*
X167556184Y-26251000D01*
X167391772Y-26218297D01*
X167236900Y-26154147D01*
X167097519Y-26061015D01*
X166978985Y-25942481D01*
X166885853Y-25803100D01*
X166821703Y-25648228D01*
X166789000Y-25483816D01*
X166789000Y-25316184D01*
X166821703Y-25151772D01*
X166885853Y-24996900D01*
X166978985Y-24857519D01*
X167097519Y-24738985D01*
X167236900Y-24645853D01*
X167391772Y-24581703D01*
X167556184Y-24549000D01*
X167723816Y-24549000D01*
X167888228Y-24581703D01*
G37*
G36*
X160268228Y-24581703D02*
G01*
X160423100Y-24645853D01*
X160562481Y-24738985D01*
X160681015Y-24857519D01*
X160774147Y-24996900D01*
X160838297Y-25151772D01*
X160871000Y-25316184D01*
X160871000Y-25483816D01*
X160838297Y-25648228D01*
X160774147Y-25803100D01*
X160681015Y-25942481D01*
X160562481Y-26061015D01*
X160423100Y-26154147D01*
X160268228Y-26218297D01*
X160103816Y-26251000D01*
X159936184Y-26251000D01*
X159771772Y-26218297D01*
X159616900Y-26154147D01*
X159477519Y-26061015D01*
X159358985Y-25942481D01*
X159265853Y-25803100D01*
X159201703Y-25648228D01*
X159169000Y-25483816D01*
X159169000Y-25316184D01*
X159201703Y-25151772D01*
X159265853Y-24996900D01*
X159358985Y-24857519D01*
X159477519Y-24738985D01*
X159616900Y-24645853D01*
X159771772Y-24581703D01*
X159936184Y-24549000D01*
X160103816Y-24549000D01*
X160268228Y-24581703D01*
G37*
G36*
X155188228Y-24581703D02*
G01*
X155343100Y-24645853D01*
X155482481Y-24738985D01*
X155601015Y-24857519D01*
X155694147Y-24996900D01*
X155758297Y-25151772D01*
X155791000Y-25316184D01*
X155791000Y-25483816D01*
X155758297Y-25648228D01*
X155694147Y-25803100D01*
X155601015Y-25942481D01*
X155482481Y-26061015D01*
X155343100Y-26154147D01*
X155188228Y-26218297D01*
X155023816Y-26251000D01*
X154856184Y-26251000D01*
X154691772Y-26218297D01*
X154536900Y-26154147D01*
X154397519Y-26061015D01*
X154278985Y-25942481D01*
X154185853Y-25803100D01*
X154121703Y-25648228D01*
X154089000Y-25483816D01*
X154089000Y-25316184D01*
X154121703Y-25151772D01*
X154185853Y-24996900D01*
X154278985Y-24857519D01*
X154397519Y-24738985D01*
X154536900Y-24645853D01*
X154691772Y-24581703D01*
X154856184Y-24549000D01*
X155023816Y-24549000D01*
X155188228Y-24581703D01*
G37*
G36*
X157728228Y-24581703D02*
G01*
X157883100Y-24645853D01*
X158022481Y-24738985D01*
X158141015Y-24857519D01*
X158234147Y-24996900D01*
X158298297Y-25151772D01*
X158331000Y-25316184D01*
X158331000Y-25483816D01*
X158298297Y-25648228D01*
X158234147Y-25803100D01*
X158141015Y-25942481D01*
X158022481Y-26061015D01*
X157883100Y-26154147D01*
X157728228Y-26218297D01*
X157563816Y-26251000D01*
X157396184Y-26251000D01*
X157231772Y-26218297D01*
X157076900Y-26154147D01*
X156937519Y-26061015D01*
X156818985Y-25942481D01*
X156725853Y-25803100D01*
X156661703Y-25648228D01*
X156629000Y-25483816D01*
X156629000Y-25316184D01*
X156661703Y-25151772D01*
X156725853Y-24996900D01*
X156818985Y-24857519D01*
X156937519Y-24738985D01*
X157076900Y-24645853D01*
X157231772Y-24581703D01*
X157396184Y-24549000D01*
X157563816Y-24549000D01*
X157728228Y-24581703D01*
G37*
G36*
X144461000Y-25081000D02*
G01*
X142559000Y-25081000D01*
X142559000Y-23179000D01*
X144461000Y-23179000D01*
X144461000Y-25081000D01*
G37*
G36*
X148896564Y-20325389D02*
G01*
X149087833Y-20404615D01*
X149087835Y-20404616D01*
X149259973Y-20519635D01*
X149406365Y-20666027D01*
X149468649Y-20759241D01*
X149521385Y-20838167D01*
X149600611Y-21029436D01*
X149641000Y-21232484D01*
X149641000Y-21439516D01*
X149600611Y-21642564D01*
X149521385Y-21833833D01*
X149521384Y-21833835D01*
X149406365Y-22005973D01*
X149259973Y-22152365D01*
X149087835Y-22267384D01*
X149087834Y-22267385D01*
X149087833Y-22267385D01*
X148896564Y-22346611D01*
X148693516Y-22387000D01*
X148486484Y-22387000D01*
X148283436Y-22346611D01*
X148092167Y-22267385D01*
X148092166Y-22267385D01*
X148092165Y-22267384D01*
X147920027Y-22152365D01*
X147773635Y-22005973D01*
X147658616Y-21833835D01*
X147658615Y-21833833D01*
X147579389Y-21642564D01*
X147539000Y-21439516D01*
X147539000Y-21232484D01*
X147579389Y-21029436D01*
X147658615Y-20838167D01*
X147711352Y-20759241D01*
X147773635Y-20666027D01*
X147920027Y-20519635D01*
X148092165Y-20404616D01*
X148092167Y-20404615D01*
X148283436Y-20325389D01*
X148486484Y-20285000D01*
X148693516Y-20285000D01*
X148896564Y-20325389D01*
G37*
G36*
X142396564Y-20325389D02*
G01*
X142587833Y-20404615D01*
X142587835Y-20404616D01*
X142759973Y-20519635D01*
X142906365Y-20666027D01*
X142968649Y-20759241D01*
X143021385Y-20838167D01*
X143100611Y-21029436D01*
X143141000Y-21232484D01*
X143141000Y-21439516D01*
X143100611Y-21642564D01*
X143021385Y-21833833D01*
X143021384Y-21833835D01*
X142906365Y-22005973D01*
X142759973Y-22152365D01*
X142587835Y-22267384D01*
X142587834Y-22267385D01*
X142587833Y-22267385D01*
X142396564Y-22346611D01*
X142193516Y-22387000D01*
X141986484Y-22387000D01*
X141783436Y-22346611D01*
X141592167Y-22267385D01*
X141592166Y-22267385D01*
X141592165Y-22267384D01*
X141420027Y-22152365D01*
X141273635Y-22005973D01*
X141158616Y-21833835D01*
X141158615Y-21833833D01*
X141079389Y-21642564D01*
X141039000Y-21439516D01*
X141039000Y-21232484D01*
X141079389Y-21029436D01*
X141158615Y-20838167D01*
X141211352Y-20759241D01*
X141273635Y-20666027D01*
X141420027Y-20519635D01*
X141592165Y-20404616D01*
X141592167Y-20404615D01*
X141783436Y-20325389D01*
X141986484Y-20285000D01*
X142193516Y-20285000D01*
X142396564Y-20325389D01*
G37*
G36*
X131080483Y-19428335D02*
G01*
X131249240Y-19498236D01*
X131401118Y-19599718D01*
X131530282Y-19728882D01*
X131631764Y-19880760D01*
X131701665Y-20049517D01*
X131737300Y-20228668D01*
X131737300Y-20411332D01*
X131701665Y-20590483D01*
X131631764Y-20759240D01*
X131530282Y-20911118D01*
X131401118Y-21040282D01*
X131249240Y-21141764D01*
X131080483Y-21211665D01*
X130901332Y-21247300D01*
X130718668Y-21247300D01*
X130539517Y-21211665D01*
X130370760Y-21141764D01*
X130218882Y-21040282D01*
X130089718Y-20911118D01*
X129988236Y-20759240D01*
X129918335Y-20590483D01*
X129882700Y-20411332D01*
X129882700Y-20228668D01*
X129918335Y-20049517D01*
X129988236Y-19880760D01*
X130089718Y-19728882D01*
X130218882Y-19599718D01*
X130370760Y-19498236D01*
X130539517Y-19428335D01*
X130718668Y-19392700D01*
X130901332Y-19392700D01*
X131080483Y-19428335D01*
G37*
G36*
X138700483Y-19428335D02*
G01*
X138869240Y-19498236D01*
X139021118Y-19599718D01*
X139150282Y-19728882D01*
X139251764Y-19880760D01*
X139321665Y-20049517D01*
X139357300Y-20228668D01*
X139357300Y-20411332D01*
X139321665Y-20590483D01*
X139251764Y-20759240D01*
X139150282Y-20911118D01*
X139021118Y-21040282D01*
X138869240Y-21141764D01*
X138700483Y-21211665D01*
X138521332Y-21247300D01*
X138338668Y-21247300D01*
X138159517Y-21211665D01*
X137990760Y-21141764D01*
X137838882Y-21040282D01*
X137709718Y-20911118D01*
X137608236Y-20759240D01*
X137538335Y-20590483D01*
X137502700Y-20411332D01*
X137502700Y-20228668D01*
X137538335Y-20049517D01*
X137608236Y-19880760D01*
X137709718Y-19728882D01*
X137838882Y-19599718D01*
X137990760Y-19498236D01*
X138159517Y-19428335D01*
X138338668Y-19392700D01*
X138521332Y-19392700D01*
X138700483Y-19428335D01*
G37*
G36*
X136160483Y-19428335D02*
G01*
X136329240Y-19498236D01*
X136481118Y-19599718D01*
X136610282Y-19728882D01*
X136711764Y-19880760D01*
X136781665Y-20049517D01*
X136817300Y-20228668D01*
X136817300Y-20411332D01*
X136781665Y-20590483D01*
X136711764Y-20759240D01*
X136610282Y-20911118D01*
X136481118Y-21040282D01*
X136329240Y-21141764D01*
X136160483Y-21211665D01*
X135981332Y-21247300D01*
X135798668Y-21247300D01*
X135619517Y-21211665D01*
X135450760Y-21141764D01*
X135298882Y-21040282D01*
X135169718Y-20911118D01*
X135068236Y-20759240D01*
X134998335Y-20590483D01*
X134962700Y-20411332D01*
X134962700Y-20228668D01*
X134998335Y-20049517D01*
X135068236Y-19880760D01*
X135169718Y-19728882D01*
X135298882Y-19599718D01*
X135450760Y-19498236D01*
X135619517Y-19428335D01*
X135798668Y-19392700D01*
X135981332Y-19392700D01*
X136160483Y-19428335D01*
G37*
G36*
X133620483Y-19428335D02*
G01*
X133789240Y-19498236D01*
X133941118Y-19599718D01*
X134070282Y-19728882D01*
X134171764Y-19880760D01*
X134241665Y-20049517D01*
X134277300Y-20228668D01*
X134277300Y-20411332D01*
X134241665Y-20590483D01*
X134171764Y-20759240D01*
X134070282Y-20911118D01*
X133941118Y-21040282D01*
X133789240Y-21141764D01*
X133620483Y-21211665D01*
X133441332Y-21247300D01*
X133258668Y-21247300D01*
X133079517Y-21211665D01*
X132910760Y-21141764D01*
X132758882Y-21040282D01*
X132629718Y-20911118D01*
X132528236Y-20759240D01*
X132458335Y-20590483D01*
X132422700Y-20411332D01*
X132422700Y-20228668D01*
X132458335Y-20049517D01*
X132528236Y-19880760D01*
X132629718Y-19728882D01*
X132758882Y-19599718D01*
X132910760Y-19498236D01*
X133079517Y-19428335D01*
X133258668Y-19392700D01*
X133441332Y-19392700D01*
X133620483Y-19428335D01*
G37*
G36*
X110760483Y-19428335D02*
G01*
X110929240Y-19498236D01*
X111081118Y-19599718D01*
X111210282Y-19728882D01*
X111311764Y-19880760D01*
X111381665Y-20049517D01*
X111417300Y-20228668D01*
X111417300Y-20411332D01*
X111381665Y-20590483D01*
X111311764Y-20759240D01*
X111210282Y-20911118D01*
X111081118Y-21040282D01*
X110929240Y-21141764D01*
X110760483Y-21211665D01*
X110581332Y-21247300D01*
X110398668Y-21247300D01*
X110219517Y-21211665D01*
X110050760Y-21141764D01*
X109898882Y-21040282D01*
X109769718Y-20911118D01*
X109668236Y-20759240D01*
X109598335Y-20590483D01*
X109562700Y-20411332D01*
X109562700Y-20228668D01*
X109598335Y-20049517D01*
X109668236Y-19880760D01*
X109769718Y-19728882D01*
X109898882Y-19599718D01*
X110050760Y-19498236D01*
X110219517Y-19428335D01*
X110398668Y-19392700D01*
X110581332Y-19392700D01*
X110760483Y-19428335D01*
G37*
G36*
X113300483Y-19428335D02*
G01*
X113469240Y-19498236D01*
X113621118Y-19599718D01*
X113750282Y-19728882D01*
X113851764Y-19880760D01*
X113921665Y-20049517D01*
X113957300Y-20228668D01*
X113957300Y-20411332D01*
X113921665Y-20590483D01*
X113851764Y-20759240D01*
X113750282Y-20911118D01*
X113621118Y-21040282D01*
X113469240Y-21141764D01*
X113300483Y-21211665D01*
X113121332Y-21247300D01*
X112938668Y-21247300D01*
X112759517Y-21211665D01*
X112590760Y-21141764D01*
X112438882Y-21040282D01*
X112309718Y-20911118D01*
X112208236Y-20759240D01*
X112138335Y-20590483D01*
X112102700Y-20411332D01*
X112102700Y-20228668D01*
X112138335Y-20049517D01*
X112208236Y-19880760D01*
X112309718Y-19728882D01*
X112438882Y-19599718D01*
X112590760Y-19498236D01*
X112759517Y-19428335D01*
X112938668Y-19392700D01*
X113121332Y-19392700D01*
X113300483Y-19428335D01*
G37*
G36*
X118380483Y-19428335D02*
G01*
X118549240Y-19498236D01*
X118701118Y-19599718D01*
X118830282Y-19728882D01*
X118931764Y-19880760D01*
X119001665Y-20049517D01*
X119037300Y-20228668D01*
X119037300Y-20411332D01*
X119001665Y-20590483D01*
X118931764Y-20759240D01*
X118830282Y-20911118D01*
X118701118Y-21040282D01*
X118549240Y-21141764D01*
X118380483Y-21211665D01*
X118201332Y-21247300D01*
X118018668Y-21247300D01*
X117839517Y-21211665D01*
X117670760Y-21141764D01*
X117518882Y-21040282D01*
X117389718Y-20911118D01*
X117288236Y-20759240D01*
X117218335Y-20590483D01*
X117182700Y-20411332D01*
X117182700Y-20228668D01*
X117218335Y-20049517D01*
X117288236Y-19880760D01*
X117389718Y-19728882D01*
X117518882Y-19599718D01*
X117670760Y-19498236D01*
X117839517Y-19428335D01*
X118018668Y-19392700D01*
X118201332Y-19392700D01*
X118380483Y-19428335D01*
G37*
G36*
X120920483Y-19428335D02*
G01*
X121089240Y-19498236D01*
X121241118Y-19599718D01*
X121370282Y-19728882D01*
X121471764Y-19880760D01*
X121541665Y-20049517D01*
X121577300Y-20228668D01*
X121577300Y-20411332D01*
X121541665Y-20590483D01*
X121471764Y-20759240D01*
X121370282Y-20911118D01*
X121241118Y-21040282D01*
X121089240Y-21141764D01*
X120920483Y-21211665D01*
X120741332Y-21247300D01*
X120558668Y-21247300D01*
X120379517Y-21211665D01*
X120210760Y-21141764D01*
X120058882Y-21040282D01*
X119929718Y-20911118D01*
X119828236Y-20759240D01*
X119758335Y-20590483D01*
X119722700Y-20411332D01*
X119722700Y-20228668D01*
X119758335Y-20049517D01*
X119828236Y-19880760D01*
X119929718Y-19728882D01*
X120058882Y-19599718D01*
X120210760Y-19498236D01*
X120379517Y-19428335D01*
X120558668Y-19392700D01*
X120741332Y-19392700D01*
X120920483Y-19428335D01*
G37*
G36*
X123460483Y-19428335D02*
G01*
X123629240Y-19498236D01*
X123781118Y-19599718D01*
X123910282Y-19728882D01*
X124011764Y-19880760D01*
X124081665Y-20049517D01*
X124117300Y-20228668D01*
X124117300Y-20411332D01*
X124081665Y-20590483D01*
X124011764Y-20759240D01*
X123910282Y-20911118D01*
X123781118Y-21040282D01*
X123629240Y-21141764D01*
X123460483Y-21211665D01*
X123281332Y-21247300D01*
X123098668Y-21247300D01*
X122919517Y-21211665D01*
X122750760Y-21141764D01*
X122598882Y-21040282D01*
X122469718Y-20911118D01*
X122368236Y-20759240D01*
X122298335Y-20590483D01*
X122262700Y-20411332D01*
X122262700Y-20228668D01*
X122298335Y-20049517D01*
X122368236Y-19880760D01*
X122469718Y-19728882D01*
X122598882Y-19599718D01*
X122750760Y-19498236D01*
X122919517Y-19428335D01*
X123098668Y-19392700D01*
X123281332Y-19392700D01*
X123460483Y-19428335D01*
G37*
G36*
X126000483Y-19428335D02*
G01*
X126169240Y-19498236D01*
X126321118Y-19599718D01*
X126450282Y-19728882D01*
X126551764Y-19880760D01*
X126621665Y-20049517D01*
X126657300Y-20228668D01*
X126657300Y-20411332D01*
X126621665Y-20590483D01*
X126551764Y-20759240D01*
X126450282Y-20911118D01*
X126321118Y-21040282D01*
X126169240Y-21141764D01*
X126000483Y-21211665D01*
X125821332Y-21247300D01*
X125638668Y-21247300D01*
X125459517Y-21211665D01*
X125290760Y-21141764D01*
X125138882Y-21040282D01*
X125009718Y-20911118D01*
X124908236Y-20759240D01*
X124838335Y-20590483D01*
X124802700Y-20411332D01*
X124802700Y-20228668D01*
X124838335Y-20049517D01*
X124908236Y-19880760D01*
X125009718Y-19728882D01*
X125138882Y-19599718D01*
X125290760Y-19498236D01*
X125459517Y-19428335D01*
X125638668Y-19392700D01*
X125821332Y-19392700D01*
X126000483Y-19428335D01*
G37*
G36*
X128540483Y-19428335D02*
G01*
X128709240Y-19498236D01*
X128861118Y-19599718D01*
X128990282Y-19728882D01*
X129091764Y-19880760D01*
X129161665Y-20049517D01*
X129197300Y-20228668D01*
X129197300Y-20411332D01*
X129161665Y-20590483D01*
X129091764Y-20759240D01*
X128990282Y-20911118D01*
X128861118Y-21040282D01*
X128709240Y-21141764D01*
X128540483Y-21211665D01*
X128361332Y-21247300D01*
X128178668Y-21247300D01*
X127999517Y-21211665D01*
X127830760Y-21141764D01*
X127678882Y-21040282D01*
X127549718Y-20911118D01*
X127448236Y-20759240D01*
X127378335Y-20590483D01*
X127342700Y-20411332D01*
X127342700Y-20228668D01*
X127378335Y-20049517D01*
X127448236Y-19880760D01*
X127549718Y-19728882D01*
X127678882Y-19599718D01*
X127830760Y-19498236D01*
X127999517Y-19428335D01*
X128178668Y-19392700D01*
X128361332Y-19392700D01*
X128540483Y-19428335D01*
G37*
G36*
X115840483Y-19428335D02*
G01*
X116009240Y-19498236D01*
X116161118Y-19599718D01*
X116290282Y-19728882D01*
X116391764Y-19880760D01*
X116461665Y-20049517D01*
X116497300Y-20228668D01*
X116497300Y-20411332D01*
X116461665Y-20590483D01*
X116391764Y-20759240D01*
X116290282Y-20911118D01*
X116161118Y-21040282D01*
X116009240Y-21141764D01*
X115840483Y-21211665D01*
X115661332Y-21247300D01*
X115478668Y-21247300D01*
X115299517Y-21211665D01*
X115130760Y-21141764D01*
X114978882Y-21040282D01*
X114849718Y-20911118D01*
X114748236Y-20759240D01*
X114678335Y-20590483D01*
X114642700Y-20411332D01*
X114642700Y-20228668D01*
X114678335Y-20049517D01*
X114748236Y-19880760D01*
X114849718Y-19728882D01*
X114978882Y-19599718D01*
X115130760Y-19498236D01*
X115299517Y-19428335D01*
X115478668Y-19392700D01*
X115661332Y-19392700D01*
X115840483Y-19428335D01*
G37*
G36*
X171031000Y-21171000D02*
G01*
X169329000Y-21171000D01*
X169329000Y-19469000D01*
X171031000Y-19469000D01*
X171031000Y-21171000D01*
G37*
G36*
X168491000Y-21171000D02*
G01*
X166789000Y-21171000D01*
X166789000Y-19469000D01*
X168491000Y-19469000D01*
X168491000Y-21171000D01*
G37*
G36*
X158331000Y-21171000D02*
G01*
X156629000Y-21171000D01*
X156629000Y-19469000D01*
X158331000Y-19469000D01*
X158331000Y-21171000D01*
G37*
G36*
X163411000Y-21171000D02*
G01*
X161709000Y-21171000D01*
X161709000Y-19469000D01*
X163411000Y-19469000D01*
X163411000Y-21171000D01*
G37*
G36*
X160871000Y-21171000D02*
G01*
X159169000Y-21171000D01*
X159169000Y-19469000D01*
X160871000Y-19469000D01*
X160871000Y-21171000D01*
G37*
G36*
X155791000Y-21171000D02*
G01*
X154089000Y-21171000D01*
X154089000Y-19469000D01*
X155791000Y-19469000D01*
X155791000Y-21171000D01*
G37*
G36*
X165951000Y-21171000D02*
G01*
X164249000Y-21171000D01*
X164249000Y-19469000D01*
X165951000Y-19469000D01*
X165951000Y-21171000D01*
G37*
G36*
X176111000Y-21171000D02*
G01*
X174409000Y-21171000D01*
X174409000Y-19469000D01*
X176111000Y-19469000D01*
X176111000Y-21171000D01*
G37*
G36*
X178651000Y-21171000D02*
G01*
X176949000Y-21171000D01*
X176949000Y-19469000D01*
X178651000Y-19469000D01*
X178651000Y-21171000D01*
G37*
G36*
X173571000Y-21171000D02*
G01*
X171869000Y-21171000D01*
X171869000Y-19469000D01*
X173571000Y-19469000D01*
X173571000Y-21171000D01*
G37*
G36*
X148896564Y-15825389D02*
G01*
X149087833Y-15904615D01*
X149087835Y-15904616D01*
X149259973Y-16019635D01*
X149406365Y-16166027D01*
X149521385Y-16338167D01*
X149600611Y-16529436D01*
X149641000Y-16732484D01*
X149641000Y-16939516D01*
X149600611Y-17142564D01*
X149521385Y-17333833D01*
X149521384Y-17333835D01*
X149406365Y-17505973D01*
X149259973Y-17652365D01*
X149087835Y-17767384D01*
X149087834Y-17767385D01*
X149087833Y-17767385D01*
X148896564Y-17846611D01*
X148693516Y-17887000D01*
X148486484Y-17887000D01*
X148283436Y-17846611D01*
X148092167Y-17767385D01*
X148092166Y-17767385D01*
X148092165Y-17767384D01*
X147920027Y-17652365D01*
X147773635Y-17505973D01*
X147658616Y-17333835D01*
X147658615Y-17333833D01*
X147579389Y-17142564D01*
X147539000Y-16939516D01*
X147539000Y-16732484D01*
X147579389Y-16529436D01*
X147658615Y-16338167D01*
X147773635Y-16166027D01*
X147920027Y-16019635D01*
X148092165Y-15904616D01*
X148092167Y-15904615D01*
X148283436Y-15825389D01*
X148486484Y-15785000D01*
X148693516Y-15785000D01*
X148896564Y-15825389D01*
G37*
G36*
X142396564Y-15825389D02*
G01*
X142587833Y-15904615D01*
X142587835Y-15904616D01*
X142759973Y-16019635D01*
X142906365Y-16166027D01*
X143021385Y-16338167D01*
X143100611Y-16529436D01*
X143141000Y-16732484D01*
X143141000Y-16939516D01*
X143100611Y-17142564D01*
X143021385Y-17333833D01*
X143021384Y-17333835D01*
X142906365Y-17505973D01*
X142759973Y-17652365D01*
X142587835Y-17767384D01*
X142587834Y-17767385D01*
X142587833Y-17767385D01*
X142396564Y-17846611D01*
X142193516Y-17887000D01*
X141986484Y-17887000D01*
X141783436Y-17846611D01*
X141592167Y-17767385D01*
X141592166Y-17767385D01*
X141592165Y-17767384D01*
X141420027Y-17652365D01*
X141273635Y-17505973D01*
X141158616Y-17333835D01*
X141158615Y-17333833D01*
X141079389Y-17142564D01*
X141039000Y-16939516D01*
X141039000Y-16732484D01*
X141079389Y-16529436D01*
X141158615Y-16338167D01*
X141273635Y-16166027D01*
X141420027Y-16019635D01*
X141592165Y-15904616D01*
X141592167Y-15904615D01*
X141783436Y-15825389D01*
X141986484Y-15785000D01*
X142193516Y-15785000D01*
X142396564Y-15825389D01*
G37*
M02*
