G04 #@! TF.GenerationSoftware,KiCad,Pcbnew,(5.1.6)-1*
G04 #@! TF.CreationDate,2020-07-06T19:45:24+02:00*
G04 #@! TF.ProjectId,numpad,6e756d70-6164-42e6-9b69-6361645f7063,rev?*
G04 #@! TF.SameCoordinates,Original*
G04 #@! TF.FileFunction,Legend,Top*
G04 #@! TF.FilePolarity,Positive*
%FSLAX46Y46*%
G04 Gerber Fmt 4.6, Leading zero omitted, Abs format (unit mm)*
G04 Created by KiCad (PCBNEW (5.1.6)-1) date 2020-07-06 19:45:24*
%MOMM*%
%LPD*%
G01*
G04 APERTURE LIST*
%ADD10C,0.150000*%
%ADD11C,0.075000*%
%ADD12C,0.381000*%
%ADD13C,0.120000*%
G04 APERTURE END LIST*
D10*
G36*
X179598889Y-31968237D02*
G01*
X179073959Y-31180842D01*
X180071326Y-31180842D01*
X179598889Y-31968237D01*
G37*
X179598889Y-31968237D02*
X179073959Y-31180842D01*
X180071326Y-31180842D01*
X179598889Y-31968237D01*
D11*
X138272273Y-80145214D02*
X138224654Y-80216642D01*
X138081797Y-80288071D01*
X137986559Y-80288071D01*
X137843702Y-80216642D01*
X137748464Y-80073785D01*
X137700845Y-79930928D01*
X137653226Y-79645214D01*
X137653226Y-79430928D01*
X137700845Y-79145214D01*
X137748464Y-79002357D01*
X137843702Y-78859500D01*
X137986559Y-78788071D01*
X138081797Y-78788071D01*
X138224654Y-78859500D01*
X138272273Y-78930928D01*
X138700845Y-80288071D02*
X138700845Y-78788071D01*
X139129416Y-80288071D02*
X139129416Y-79502357D01*
X139081797Y-79359500D01*
X138986559Y-79288071D01*
X138843702Y-79288071D01*
X138748464Y-79359500D01*
X138700845Y-79430928D01*
X139605607Y-80288071D02*
X139605607Y-79288071D01*
X139605607Y-79573785D02*
X139653226Y-79430928D01*
X139700845Y-79359500D01*
X139796083Y-79288071D01*
X139891321Y-79288071D01*
X140224654Y-80288071D02*
X140224654Y-79288071D01*
X140224654Y-78788071D02*
X140177035Y-78859500D01*
X140224654Y-78930928D01*
X140272273Y-78859500D01*
X140224654Y-78788071D01*
X140224654Y-78930928D01*
X140653226Y-80216642D02*
X140748464Y-80288071D01*
X140938940Y-80288071D01*
X141034178Y-80216642D01*
X141081797Y-80073785D01*
X141081797Y-80002357D01*
X141034178Y-79859500D01*
X140938940Y-79788071D01*
X140796083Y-79788071D01*
X140700845Y-79716642D01*
X140653226Y-79573785D01*
X140653226Y-79502357D01*
X140700845Y-79359500D01*
X140796083Y-79288071D01*
X140938940Y-79288071D01*
X141034178Y-79359500D01*
X141367511Y-79288071D02*
X141748464Y-79288071D01*
X141510369Y-78788071D02*
X141510369Y-80073785D01*
X141557988Y-80216642D01*
X141653226Y-80288071D01*
X141748464Y-80288071D01*
X142224654Y-80288071D02*
X142129416Y-80216642D01*
X142081797Y-80145214D01*
X142034178Y-80002357D01*
X142034178Y-79573785D01*
X142081797Y-79430928D01*
X142129416Y-79359500D01*
X142224654Y-79288071D01*
X142367511Y-79288071D01*
X142462750Y-79359500D01*
X142510369Y-79430928D01*
X142557988Y-79573785D01*
X142557988Y-80002357D01*
X142510369Y-80145214D01*
X142462750Y-80216642D01*
X142367511Y-80288071D01*
X142224654Y-80288071D01*
X142986559Y-79288071D02*
X142986559Y-80788071D01*
X142986559Y-79359500D02*
X143081797Y-79288071D01*
X143272273Y-79288071D01*
X143367511Y-79359500D01*
X143415130Y-79430928D01*
X143462750Y-79573785D01*
X143462750Y-80002357D01*
X143415130Y-80145214D01*
X143367511Y-80216642D01*
X143272273Y-80288071D01*
X143081797Y-80288071D01*
X142986559Y-80216642D01*
X143891321Y-80288071D02*
X143891321Y-78788071D01*
X144319892Y-80288071D02*
X144319892Y-79502357D01*
X144272273Y-79359500D01*
X144177035Y-79288071D01*
X144034178Y-79288071D01*
X143938940Y-79359500D01*
X143891321Y-79430928D01*
X145177035Y-80216642D02*
X145081797Y-80288071D01*
X144891321Y-80288071D01*
X144796083Y-80216642D01*
X144748464Y-80073785D01*
X144748464Y-79502357D01*
X144796083Y-79359500D01*
X144891321Y-79288071D01*
X145081797Y-79288071D01*
X145177035Y-79359500D01*
X145224654Y-79502357D01*
X145224654Y-79645214D01*
X144748464Y-79788071D01*
X145653226Y-80288071D02*
X145653226Y-79288071D01*
X145653226Y-79573785D02*
X145700845Y-79430928D01*
X145748464Y-79359500D01*
X145843702Y-79288071D01*
X145938940Y-79288071D01*
X147034178Y-80288071D02*
X147034178Y-78788071D01*
X147034178Y-79502357D02*
X147605607Y-79502357D01*
X147605607Y-80288071D02*
X147605607Y-78788071D01*
X148224654Y-80288071D02*
X148129416Y-80216642D01*
X148081797Y-80145214D01*
X148034178Y-80002357D01*
X148034178Y-79573785D01*
X148081797Y-79430928D01*
X148129416Y-79359500D01*
X148224654Y-79288071D01*
X148367511Y-79288071D01*
X148462750Y-79359500D01*
X148510369Y-79430928D01*
X148557988Y-79573785D01*
X148557988Y-80002357D01*
X148510369Y-80145214D01*
X148462750Y-80216642D01*
X148367511Y-80288071D01*
X148224654Y-80288071D01*
X148843702Y-79288071D02*
X149224654Y-79288071D01*
X148986559Y-80288071D02*
X148986559Y-79002357D01*
X149034178Y-78859500D01*
X149129416Y-78788071D01*
X149224654Y-78788071D01*
X149557988Y-80288071D02*
X149557988Y-79288071D01*
X149557988Y-79430928D02*
X149605607Y-79359500D01*
X149700845Y-79288071D01*
X149843702Y-79288071D01*
X149938940Y-79359500D01*
X149986559Y-79502357D01*
X149986559Y-80288071D01*
X149986559Y-79502357D02*
X150034178Y-79359500D01*
X150129416Y-79288071D01*
X150272273Y-79288071D01*
X150367511Y-79359500D01*
X150415130Y-79502357D01*
X150415130Y-80288071D01*
X151319892Y-80288071D02*
X151319892Y-79502357D01*
X151272273Y-79359500D01*
X151177035Y-79288071D01*
X150986559Y-79288071D01*
X150891321Y-79359500D01*
X151319892Y-80216642D02*
X151224654Y-80288071D01*
X150986559Y-80288071D01*
X150891321Y-80216642D01*
X150843702Y-80073785D01*
X150843702Y-79930928D01*
X150891321Y-79788071D01*
X150986559Y-79716642D01*
X151224654Y-79716642D01*
X151319892Y-79645214D01*
X151796083Y-79288071D02*
X151796083Y-80288071D01*
X151796083Y-79430928D02*
X151843702Y-79359500D01*
X151938940Y-79288071D01*
X152081797Y-79288071D01*
X152177035Y-79359500D01*
X152224654Y-79502357D01*
X152224654Y-80288071D01*
X152700845Y-79288071D02*
X152700845Y-80288071D01*
X152700845Y-79430928D02*
X152748464Y-79359500D01*
X152843702Y-79288071D01*
X152986559Y-79288071D01*
X153081797Y-79359500D01*
X153129416Y-79502357D01*
X153129416Y-80288071D01*
X154319892Y-78930928D02*
X154367511Y-78859500D01*
X154462750Y-78788071D01*
X154700845Y-78788071D01*
X154796083Y-78859500D01*
X154843702Y-78930928D01*
X154891321Y-79073785D01*
X154891321Y-79216642D01*
X154843702Y-79430928D01*
X154272273Y-80288071D01*
X154891321Y-80288071D01*
X155510369Y-78788071D02*
X155605607Y-78788071D01*
X155700845Y-78859500D01*
X155748464Y-78930928D01*
X155796083Y-79073785D01*
X155843702Y-79359500D01*
X155843702Y-79716642D01*
X155796083Y-80002357D01*
X155748464Y-80145214D01*
X155700845Y-80216642D01*
X155605607Y-80288071D01*
X155510369Y-80288071D01*
X155415130Y-80216642D01*
X155367511Y-80145214D01*
X155319892Y-80002357D01*
X155272273Y-79716642D01*
X155272273Y-79359500D01*
X155319892Y-79073785D01*
X155367511Y-78930928D01*
X155415130Y-78859500D01*
X155510369Y-78788071D01*
X156224654Y-78930928D02*
X156272273Y-78859500D01*
X156367511Y-78788071D01*
X156605607Y-78788071D01*
X156700845Y-78859500D01*
X156748464Y-78930928D01*
X156796083Y-79073785D01*
X156796083Y-79216642D01*
X156748464Y-79430928D01*
X156177035Y-80288071D01*
X156796083Y-80288071D01*
X157415130Y-78788071D02*
X157510369Y-78788071D01*
X157605607Y-78859500D01*
X157653226Y-78930928D01*
X157700845Y-79073785D01*
X157748464Y-79359500D01*
X157748464Y-79716642D01*
X157700845Y-80002357D01*
X157653226Y-80145214D01*
X157605607Y-80216642D01*
X157510369Y-80288071D01*
X157415130Y-80288071D01*
X157319892Y-80216642D01*
X157272273Y-80145214D01*
X157224654Y-80002357D01*
X157177035Y-79716642D01*
X157177035Y-79359500D01*
X157224654Y-79073785D01*
X157272273Y-78930928D01*
X157319892Y-78859500D01*
X157415130Y-78788071D01*
X137700845Y-82613071D02*
X137700845Y-81113071D01*
X138272273Y-82613071D01*
X138272273Y-81113071D01*
X139177035Y-81613071D02*
X139177035Y-82613071D01*
X138748464Y-81613071D02*
X138748464Y-82398785D01*
X138796083Y-82541642D01*
X138891321Y-82613071D01*
X139034178Y-82613071D01*
X139129416Y-82541642D01*
X139177035Y-82470214D01*
X139653226Y-82613071D02*
X139653226Y-81613071D01*
X139653226Y-81755928D02*
X139700845Y-81684500D01*
X139796083Y-81613071D01*
X139938940Y-81613071D01*
X140034178Y-81684500D01*
X140081797Y-81827357D01*
X140081797Y-82613071D01*
X140081797Y-81827357D02*
X140129416Y-81684500D01*
X140224654Y-81613071D01*
X140367511Y-81613071D01*
X140462750Y-81684500D01*
X140510369Y-81827357D01*
X140510369Y-82613071D01*
X140986559Y-81613071D02*
X140986559Y-83113071D01*
X140986559Y-81684500D02*
X141081797Y-81613071D01*
X141272273Y-81613071D01*
X141367511Y-81684500D01*
X141415130Y-81755928D01*
X141462750Y-81898785D01*
X141462750Y-82327357D01*
X141415130Y-82470214D01*
X141367511Y-82541642D01*
X141272273Y-82613071D01*
X141081797Y-82613071D01*
X140986559Y-82541642D01*
X142319892Y-82613071D02*
X142319892Y-81827357D01*
X142272273Y-81684500D01*
X142177035Y-81613071D01*
X141986559Y-81613071D01*
X141891321Y-81684500D01*
X142319892Y-82541642D02*
X142224654Y-82613071D01*
X141986559Y-82613071D01*
X141891321Y-82541642D01*
X141843702Y-82398785D01*
X141843702Y-82255928D01*
X141891321Y-82113071D01*
X141986559Y-82041642D01*
X142224654Y-82041642D01*
X142319892Y-81970214D01*
X143224654Y-82613071D02*
X143224654Y-81113071D01*
X143224654Y-82541642D02*
X143129416Y-82613071D01*
X142938940Y-82613071D01*
X142843702Y-82541642D01*
X142796083Y-82470214D01*
X142748464Y-82327357D01*
X142748464Y-81898785D01*
X142796083Y-81755928D01*
X142843702Y-81684500D01*
X142938940Y-81613071D01*
X143129416Y-81613071D01*
X143224654Y-81684500D01*
X144367511Y-81613071D02*
X144605607Y-82613071D01*
X144843702Y-81613071D01*
X145748464Y-82613071D02*
X145177035Y-82613071D01*
X145462750Y-82613071D02*
X145462750Y-81113071D01*
X145367511Y-81327357D01*
X145272273Y-81470214D01*
X145177035Y-81541642D01*
D12*
X109220000Y-36830000D02*
X139700000Y-36830000D01*
X139700000Y-36830000D02*
X139700000Y-19050000D01*
X139700000Y-19050000D02*
X109220000Y-19050000D01*
X109220000Y-34290000D02*
X111760000Y-34290000D01*
X111760000Y-34290000D02*
X111760000Y-36830000D01*
D10*
G36*
X115099360Y-23008432D02*
G01*
X115399360Y-23008432D01*
X115399360Y-23108432D01*
X115099360Y-23108432D01*
X115099360Y-23008432D01*
G37*
X115099360Y-23008432D02*
X115399360Y-23008432D01*
X115399360Y-23108432D01*
X115099360Y-23108432D01*
X115099360Y-23008432D01*
G36*
X115499360Y-23208432D02*
G01*
X115599360Y-23208432D01*
X115599360Y-23308432D01*
X115499360Y-23308432D01*
X115499360Y-23208432D01*
G37*
X115499360Y-23208432D02*
X115599360Y-23208432D01*
X115599360Y-23308432D01*
X115499360Y-23308432D01*
X115499360Y-23208432D01*
G36*
X115099360Y-23008432D02*
G01*
X115199360Y-23008432D01*
X115199360Y-23508432D01*
X115099360Y-23508432D01*
X115099360Y-23008432D01*
G37*
X115099360Y-23008432D02*
X115199360Y-23008432D01*
X115199360Y-23508432D01*
X115099360Y-23508432D01*
X115099360Y-23008432D01*
G36*
X115099360Y-23408432D02*
G01*
X115899360Y-23408432D01*
X115899360Y-23508432D01*
X115099360Y-23508432D01*
X115099360Y-23408432D01*
G37*
X115099360Y-23408432D02*
X115899360Y-23408432D01*
X115899360Y-23508432D01*
X115099360Y-23508432D01*
X115099360Y-23408432D01*
G36*
X115699360Y-23008432D02*
G01*
X115899360Y-23008432D01*
X115899360Y-23108432D01*
X115699360Y-23108432D01*
X115699360Y-23008432D01*
G37*
X115699360Y-23008432D02*
X115899360Y-23008432D01*
X115899360Y-23108432D01*
X115699360Y-23108432D01*
X115699360Y-23008432D01*
D12*
X109220000Y-19050000D02*
X106680000Y-19050000D01*
X106680000Y-19050000D02*
X106680000Y-36830000D01*
X106680000Y-36830000D02*
X109220000Y-36830000D01*
X109220000Y-34290000D02*
X109220000Y-36830000D01*
D13*
X147590000Y-15836000D02*
X143090000Y-15836000D01*
X148840000Y-19836000D02*
X148840000Y-18336000D01*
X143090000Y-22336000D02*
X147590000Y-22336000D01*
X141840000Y-18336000D02*
X141840000Y-19836000D01*
X127254000Y-45212000D02*
X141224000Y-45212000D01*
X141224000Y-45212000D02*
X141224000Y-59182000D01*
X141224000Y-59182000D02*
X127254000Y-59182000D01*
X127254000Y-59182000D02*
X127254000Y-45212000D01*
X108204000Y-121412000D02*
X122174000Y-121412000D01*
X122174000Y-121412000D02*
X122174000Y-135382000D01*
X122174000Y-135382000D02*
X108204000Y-135382000D01*
X108204000Y-135382000D02*
X108204000Y-121412000D01*
X146304000Y-102362000D02*
X160274000Y-102362000D01*
X160274000Y-102362000D02*
X160274000Y-116332000D01*
X160274000Y-116332000D02*
X146304000Y-116332000D01*
X146304000Y-116332000D02*
X146304000Y-102362000D01*
X166640000Y-21390000D02*
X166640000Y-24360000D01*
X168640000Y-21380000D02*
X168630000Y-24370000D01*
X166640000Y-24370000D02*
X168630000Y-24370000D01*
X167650000Y-24580000D02*
X167650000Y-23460000D01*
X167650000Y-21120000D02*
X167650000Y-22400000D01*
X166640000Y-21380000D02*
X168640000Y-21380000D01*
X167650000Y-22510000D02*
X168190000Y-23460000D01*
X167640000Y-22520000D02*
X167110000Y-23430000D01*
X167110000Y-23460000D02*
X168190000Y-23460000D01*
X167110000Y-22410000D02*
X168190000Y-22410000D01*
X169180000Y-21390000D02*
X169180000Y-24360000D01*
X171180000Y-21380000D02*
X171170000Y-24370000D01*
X169180000Y-24370000D02*
X171170000Y-24370000D01*
X170190000Y-24580000D02*
X170190000Y-23460000D01*
X170190000Y-21120000D02*
X170190000Y-22400000D01*
X169180000Y-21380000D02*
X171180000Y-21380000D01*
X170190000Y-22510000D02*
X170730000Y-23460000D01*
X170180000Y-22520000D02*
X169650000Y-23430000D01*
X169650000Y-23460000D02*
X170730000Y-23460000D01*
X169650000Y-22410000D02*
X170730000Y-22410000D01*
X174260000Y-21390000D02*
X174260000Y-24360000D01*
X176260000Y-21380000D02*
X176250000Y-24370000D01*
X174260000Y-24370000D02*
X176250000Y-24370000D01*
X175270000Y-24580000D02*
X175270000Y-23460000D01*
X175270000Y-21120000D02*
X175270000Y-22400000D01*
X174260000Y-21380000D02*
X176260000Y-21380000D01*
X175270000Y-22510000D02*
X175810000Y-23460000D01*
X175260000Y-22520000D02*
X174730000Y-23430000D01*
X174730000Y-23460000D02*
X175810000Y-23460000D01*
X174730000Y-22410000D02*
X175810000Y-22410000D01*
X176800000Y-21390000D02*
X176800000Y-24360000D01*
X178800000Y-21380000D02*
X178790000Y-24370000D01*
X176800000Y-24370000D02*
X178790000Y-24370000D01*
X177810000Y-24580000D02*
X177810000Y-23460000D01*
X177810000Y-21120000D02*
X177810000Y-22400000D01*
X176800000Y-21380000D02*
X178800000Y-21380000D01*
X177810000Y-22510000D02*
X178350000Y-23460000D01*
X177800000Y-22520000D02*
X177270000Y-23430000D01*
X177270000Y-23460000D02*
X178350000Y-23460000D01*
X177270000Y-22410000D02*
X178350000Y-22410000D01*
X164100000Y-21390000D02*
X164100000Y-24360000D01*
X166100000Y-21380000D02*
X166090000Y-24370000D01*
X164100000Y-24370000D02*
X166090000Y-24370000D01*
X165110000Y-24580000D02*
X165110000Y-23460000D01*
X165110000Y-21120000D02*
X165110000Y-22400000D01*
X164100000Y-21380000D02*
X166100000Y-21380000D01*
X165110000Y-22510000D02*
X165650000Y-23460000D01*
X165100000Y-22520000D02*
X164570000Y-23430000D01*
X164570000Y-23460000D02*
X165650000Y-23460000D01*
X164570000Y-22410000D02*
X165650000Y-22410000D01*
X156480000Y-21390000D02*
X156480000Y-24360000D01*
X158480000Y-21380000D02*
X158470000Y-24370000D01*
X156480000Y-24370000D02*
X158470000Y-24370000D01*
X157490000Y-24580000D02*
X157490000Y-23460000D01*
X157490000Y-21120000D02*
X157490000Y-22400000D01*
X156480000Y-21380000D02*
X158480000Y-21380000D01*
X157490000Y-22510000D02*
X158030000Y-23460000D01*
X157480000Y-22520000D02*
X156950000Y-23430000D01*
X156950000Y-23460000D02*
X158030000Y-23460000D01*
X156950000Y-22410000D02*
X158030000Y-22410000D01*
X161560000Y-21390000D02*
X161560000Y-24360000D01*
X163560000Y-21380000D02*
X163550000Y-24370000D01*
X161560000Y-24370000D02*
X163550000Y-24370000D01*
X162570000Y-24580000D02*
X162570000Y-23460000D01*
X162570000Y-21120000D02*
X162570000Y-22400000D01*
X161560000Y-21380000D02*
X163560000Y-21380000D01*
X162570000Y-22510000D02*
X163110000Y-23460000D01*
X162560000Y-22520000D02*
X162030000Y-23430000D01*
X162030000Y-23460000D02*
X163110000Y-23460000D01*
X162030000Y-22410000D02*
X163110000Y-22410000D01*
X159020000Y-21390000D02*
X159020000Y-24360000D01*
X161020000Y-21380000D02*
X161010000Y-24370000D01*
X159020000Y-24370000D02*
X161010000Y-24370000D01*
X160030000Y-24580000D02*
X160030000Y-23460000D01*
X160030000Y-21120000D02*
X160030000Y-22400000D01*
X159020000Y-21380000D02*
X161020000Y-21380000D01*
X160030000Y-22510000D02*
X160570000Y-23460000D01*
X160020000Y-22520000D02*
X159490000Y-23430000D01*
X159490000Y-23460000D02*
X160570000Y-23460000D01*
X159490000Y-22410000D02*
X160570000Y-22410000D01*
X171720000Y-21390000D02*
X171720000Y-24360000D01*
X173720000Y-21380000D02*
X173710000Y-24370000D01*
X171720000Y-24370000D02*
X173710000Y-24370000D01*
X172730000Y-24580000D02*
X172730000Y-23460000D01*
X172730000Y-21120000D02*
X172730000Y-22400000D01*
X171720000Y-21380000D02*
X173720000Y-21380000D01*
X172730000Y-22510000D02*
X173270000Y-23460000D01*
X172720000Y-22520000D02*
X172190000Y-23430000D01*
X172190000Y-23460000D02*
X173270000Y-23460000D01*
X172190000Y-22410000D02*
X173270000Y-22410000D01*
X169180000Y-34090000D02*
X169180000Y-37060000D01*
X171180000Y-34080000D02*
X171170000Y-37070000D01*
X169180000Y-37070000D02*
X171170000Y-37070000D01*
X170190000Y-37280000D02*
X170190000Y-36160000D01*
X170190000Y-33820000D02*
X170190000Y-35100000D01*
X169180000Y-34080000D02*
X171180000Y-34080000D01*
X170190000Y-35210000D02*
X170730000Y-36160000D01*
X170180000Y-35220000D02*
X169650000Y-36130000D01*
X169650000Y-36160000D02*
X170730000Y-36160000D01*
X169650000Y-35110000D02*
X170730000Y-35110000D01*
X166640000Y-34090000D02*
X166640000Y-37060000D01*
X168640000Y-34080000D02*
X168630000Y-37070000D01*
X166640000Y-37070000D02*
X168630000Y-37070000D01*
X167650000Y-37280000D02*
X167650000Y-36160000D01*
X167650000Y-33820000D02*
X167650000Y-35100000D01*
X166640000Y-34080000D02*
X168640000Y-34080000D01*
X167650000Y-35210000D02*
X168190000Y-36160000D01*
X167640000Y-35220000D02*
X167110000Y-36130000D01*
X167110000Y-36160000D02*
X168190000Y-36160000D01*
X167110000Y-35110000D02*
X168190000Y-35110000D01*
X164100000Y-34090000D02*
X164100000Y-37060000D01*
X166100000Y-34080000D02*
X166090000Y-37070000D01*
X164100000Y-37070000D02*
X166090000Y-37070000D01*
X165110000Y-37280000D02*
X165110000Y-36160000D01*
X165110000Y-33820000D02*
X165110000Y-35100000D01*
X164100000Y-34080000D02*
X166100000Y-34080000D01*
X165110000Y-35210000D02*
X165650000Y-36160000D01*
X165100000Y-35220000D02*
X164570000Y-36130000D01*
X164570000Y-36160000D02*
X165650000Y-36160000D01*
X164570000Y-35110000D02*
X165650000Y-35110000D01*
X161560000Y-34090000D02*
X161560000Y-37060000D01*
X163560000Y-34080000D02*
X163550000Y-37070000D01*
X161560000Y-37070000D02*
X163550000Y-37070000D01*
X162570000Y-37280000D02*
X162570000Y-36160000D01*
X162570000Y-33820000D02*
X162570000Y-35100000D01*
X161560000Y-34080000D02*
X163560000Y-34080000D01*
X162570000Y-35210000D02*
X163110000Y-36160000D01*
X162560000Y-35220000D02*
X162030000Y-36130000D01*
X162030000Y-36160000D02*
X163110000Y-36160000D01*
X162030000Y-35110000D02*
X163110000Y-35110000D01*
X171720000Y-34090000D02*
X171720000Y-37060000D01*
X173720000Y-34080000D02*
X173710000Y-37070000D01*
X171720000Y-37070000D02*
X173710000Y-37070000D01*
X172730000Y-37280000D02*
X172730000Y-36160000D01*
X172730000Y-33820000D02*
X172730000Y-35100000D01*
X171720000Y-34080000D02*
X173720000Y-34080000D01*
X172730000Y-35210000D02*
X173270000Y-36160000D01*
X172720000Y-35220000D02*
X172190000Y-36130000D01*
X172190000Y-36160000D02*
X173270000Y-36160000D01*
X172190000Y-35110000D02*
X173270000Y-35110000D01*
X159020000Y-34090000D02*
X159020000Y-37060000D01*
X161020000Y-34080000D02*
X161010000Y-37070000D01*
X159020000Y-37070000D02*
X161010000Y-37070000D01*
X160030000Y-37280000D02*
X160030000Y-36160000D01*
X160030000Y-33820000D02*
X160030000Y-35100000D01*
X159020000Y-34080000D02*
X161020000Y-34080000D01*
X160030000Y-35210000D02*
X160570000Y-36160000D01*
X160020000Y-35220000D02*
X159490000Y-36130000D01*
X159490000Y-36160000D02*
X160570000Y-36160000D01*
X159490000Y-35110000D02*
X160570000Y-35110000D01*
X174260000Y-34090000D02*
X174260000Y-37060000D01*
X176260000Y-34080000D02*
X176250000Y-37070000D01*
X174260000Y-37070000D02*
X176250000Y-37070000D01*
X175270000Y-37280000D02*
X175270000Y-36160000D01*
X175270000Y-33820000D02*
X175270000Y-35100000D01*
X174260000Y-34080000D02*
X176260000Y-34080000D01*
X175270000Y-35210000D02*
X175810000Y-36160000D01*
X175260000Y-35220000D02*
X174730000Y-36130000D01*
X174730000Y-36160000D02*
X175810000Y-36160000D01*
X174730000Y-35110000D02*
X175810000Y-35110000D01*
X156480000Y-34090000D02*
X156480000Y-37060000D01*
X158480000Y-34080000D02*
X158470000Y-37070000D01*
X156480000Y-37070000D02*
X158470000Y-37070000D01*
X157490000Y-37280000D02*
X157490000Y-36160000D01*
X157490000Y-33820000D02*
X157490000Y-35100000D01*
X156480000Y-34080000D02*
X158480000Y-34080000D01*
X157490000Y-35210000D02*
X158030000Y-36160000D01*
X157480000Y-35220000D02*
X156950000Y-36130000D01*
X156950000Y-36160000D02*
X158030000Y-36160000D01*
X156950000Y-35110000D02*
X158030000Y-35110000D01*
X176800000Y-34090000D02*
X176800000Y-37060000D01*
X178800000Y-34080000D02*
X178790000Y-37070000D01*
X176800000Y-37070000D02*
X178790000Y-37070000D01*
X177810000Y-37280000D02*
X177810000Y-36160000D01*
X177810000Y-33820000D02*
X177810000Y-35100000D01*
X176800000Y-34080000D02*
X178800000Y-34080000D01*
X177810000Y-35210000D02*
X178350000Y-36160000D01*
X177800000Y-35220000D02*
X177270000Y-36130000D01*
X177270000Y-36160000D02*
X178350000Y-36160000D01*
X177270000Y-35110000D02*
X178350000Y-35110000D01*
X153940000Y-34090000D02*
X153940000Y-37060000D01*
X155940000Y-34080000D02*
X155930000Y-37070000D01*
X153940000Y-37070000D02*
X155930000Y-37070000D01*
X154950000Y-37280000D02*
X154950000Y-36160000D01*
X154950000Y-33820000D02*
X154950000Y-35100000D01*
X153940000Y-34080000D02*
X155940000Y-34080000D01*
X154950000Y-35210000D02*
X155490000Y-36160000D01*
X154940000Y-35220000D02*
X154410000Y-36130000D01*
X154410000Y-36160000D02*
X155490000Y-36160000D01*
X154410000Y-35110000D02*
X155490000Y-35110000D01*
X153940000Y-21390000D02*
X153940000Y-24360000D01*
X155940000Y-21380000D02*
X155930000Y-24370000D01*
X153940000Y-24370000D02*
X155930000Y-24370000D01*
X154950000Y-24580000D02*
X154950000Y-23460000D01*
X154950000Y-21120000D02*
X154950000Y-22400000D01*
X153940000Y-21380000D02*
X155940000Y-21380000D01*
X154950000Y-22510000D02*
X155490000Y-23460000D01*
X154940000Y-22520000D02*
X154410000Y-23430000D01*
X154410000Y-23460000D02*
X155490000Y-23460000D01*
X154410000Y-22410000D02*
X155490000Y-22410000D01*
X165354000Y-121412000D02*
X179324000Y-121412000D01*
X179324000Y-121412000D02*
X179324000Y-135382000D01*
X179324000Y-135382000D02*
X165354000Y-135382000D01*
X165354000Y-135382000D02*
X165354000Y-121412000D01*
X146304000Y-121412000D02*
X160274000Y-121412000D01*
X160274000Y-121412000D02*
X160274000Y-135382000D01*
X160274000Y-135382000D02*
X146304000Y-135382000D01*
X146304000Y-135382000D02*
X146304000Y-121412000D01*
X127254000Y-121412000D02*
X141224000Y-121412000D01*
X141224000Y-121412000D02*
X141224000Y-135382000D01*
X141224000Y-135382000D02*
X127254000Y-135382000D01*
X127254000Y-135382000D02*
X127254000Y-121412000D01*
X165354000Y-102362000D02*
X179324000Y-102362000D01*
X179324000Y-102362000D02*
X179324000Y-116332000D01*
X179324000Y-116332000D02*
X165354000Y-116332000D01*
X165354000Y-116332000D02*
X165354000Y-102362000D01*
X127254000Y-102362000D02*
X141224000Y-102362000D01*
X141224000Y-102362000D02*
X141224000Y-116332000D01*
X141224000Y-116332000D02*
X127254000Y-116332000D01*
X127254000Y-116332000D02*
X127254000Y-102362000D01*
X108204000Y-102362000D02*
X122174000Y-102362000D01*
X122174000Y-102362000D02*
X122174000Y-116332000D01*
X122174000Y-116332000D02*
X108204000Y-116332000D01*
X108204000Y-116332000D02*
X108204000Y-102362000D01*
X165354000Y-83312000D02*
X179324000Y-83312000D01*
X179324000Y-83312000D02*
X179324000Y-97282000D01*
X179324000Y-97282000D02*
X165354000Y-97282000D01*
X165354000Y-97282000D02*
X165354000Y-83312000D01*
X146304000Y-83312000D02*
X160274000Y-83312000D01*
X160274000Y-83312000D02*
X160274000Y-97282000D01*
X160274000Y-97282000D02*
X146304000Y-97282000D01*
X146304000Y-97282000D02*
X146304000Y-83312000D01*
X127254000Y-83312000D02*
X141224000Y-83312000D01*
X141224000Y-83312000D02*
X141224000Y-97282000D01*
X141224000Y-97282000D02*
X127254000Y-97282000D01*
X127254000Y-97282000D02*
X127254000Y-83312000D01*
X108204000Y-83312000D02*
X122174000Y-83312000D01*
X122174000Y-83312000D02*
X122174000Y-97282000D01*
X122174000Y-97282000D02*
X108204000Y-97282000D01*
X108204000Y-97282000D02*
X108204000Y-83312000D01*
X165354000Y-64262000D02*
X179324000Y-64262000D01*
X179324000Y-64262000D02*
X179324000Y-78232000D01*
X179324000Y-78232000D02*
X165354000Y-78232000D01*
X165354000Y-78232000D02*
X165354000Y-64262000D01*
X146304000Y-64262000D02*
X160274000Y-64262000D01*
X160274000Y-64262000D02*
X160274000Y-78232000D01*
X160274000Y-78232000D02*
X146304000Y-78232000D01*
X146304000Y-78232000D02*
X146304000Y-64262000D01*
X127254000Y-64262000D02*
X141224000Y-64262000D01*
X141224000Y-64262000D02*
X141224000Y-78232000D01*
X141224000Y-78232000D02*
X127254000Y-78232000D01*
X127254000Y-78232000D02*
X127254000Y-64262000D01*
X108204000Y-64262000D02*
X122174000Y-64262000D01*
X122174000Y-64262000D02*
X122174000Y-78232000D01*
X122174000Y-78232000D02*
X108204000Y-78232000D01*
X108204000Y-78232000D02*
X108204000Y-64262000D01*
X165354000Y-45212000D02*
X179324000Y-45212000D01*
X179324000Y-45212000D02*
X179324000Y-59182000D01*
X179324000Y-59182000D02*
X165354000Y-59182000D01*
X165354000Y-59182000D02*
X165354000Y-45212000D01*
X146304000Y-45212000D02*
X160274000Y-45212000D01*
X160274000Y-45212000D02*
X160274000Y-59182000D01*
X160274000Y-59182000D02*
X146304000Y-59182000D01*
X146304000Y-59182000D02*
X146304000Y-45212000D01*
X108204000Y-45212000D02*
X122174000Y-45212000D01*
X122174000Y-45212000D02*
X122174000Y-59182000D01*
X122174000Y-59182000D02*
X108204000Y-59182000D01*
X108204000Y-59182000D02*
X108204000Y-45212000D01*
X145824493Y-36290000D02*
X145494493Y-36290000D01*
X145494493Y-36290000D02*
X145494493Y-29750000D01*
X145494493Y-29750000D02*
X145824493Y-29750000D01*
X147904493Y-36290000D02*
X148234493Y-36290000D01*
X148234493Y-36290000D02*
X148234493Y-29750000D01*
X148234493Y-29750000D02*
X147904493Y-29750000D01*
X144550000Y-29750000D02*
X144880000Y-29750000D01*
X144880000Y-29750000D02*
X144880000Y-36290000D01*
X144880000Y-36290000D02*
X144550000Y-36290000D01*
X142470000Y-29750000D02*
X142140000Y-29750000D01*
X142140000Y-29750000D02*
X142140000Y-36290000D01*
X142140000Y-36290000D02*
X142470000Y-36290000D01*
X144746000Y-23840000D02*
X144590000Y-23840000D01*
X142430000Y-23840000D02*
X142274000Y-23840000D01*
X142430163Y-26441130D02*
G75*
G02*
X142430000Y-24359039I1079837J1041130D01*
G01*
X144589837Y-26441130D02*
G75*
G03*
X144590000Y-24359039I-1079837J1041130D01*
G01*
X142431392Y-27072335D02*
G75*
G02*
X142274484Y-23840000I1078608J1672335D01*
G01*
X144588608Y-27072335D02*
G75*
G03*
X144745516Y-23840000I-1078608J1672335D01*
G01*
D10*
X110051904Y-33702348D02*
X110051904Y-33245205D01*
X110851904Y-33473776D02*
X110051904Y-33473776D01*
X110051904Y-33054729D02*
X110851904Y-32521395D01*
X110051904Y-32521395D02*
X110851904Y-33054729D01*
X110051904Y-32064252D02*
X110051904Y-31988062D01*
X110090000Y-31911872D01*
X110128095Y-31873776D01*
X110204285Y-31835681D01*
X110356666Y-31797586D01*
X110547142Y-31797586D01*
X110699523Y-31835681D01*
X110775714Y-31873776D01*
X110813809Y-31911872D01*
X110851904Y-31988062D01*
X110851904Y-32064252D01*
X110813809Y-32140443D01*
X110775714Y-32178538D01*
X110699523Y-32216633D01*
X110547142Y-32254729D01*
X110356666Y-32254729D01*
X110204285Y-32216633D01*
X110128095Y-32178538D01*
X110090000Y-32140443D01*
X110051904Y-32064252D01*
X110013809Y-30883300D02*
X111042380Y-31569014D01*
X110851904Y-30616633D02*
X110051904Y-30616633D01*
X110051904Y-30426157D01*
X110090000Y-30311872D01*
X110166190Y-30235681D01*
X110242380Y-30197586D01*
X110394761Y-30159491D01*
X110509047Y-30159491D01*
X110661428Y-30197586D01*
X110737619Y-30235681D01*
X110813809Y-30311872D01*
X110851904Y-30426157D01*
X110851904Y-30616633D01*
X110051904Y-29892824D02*
X110051904Y-29397586D01*
X110356666Y-29664252D01*
X110356666Y-29549967D01*
X110394761Y-29473776D01*
X110432857Y-29435681D01*
X110509047Y-29397586D01*
X110699523Y-29397586D01*
X110775714Y-29435681D01*
X110813809Y-29473776D01*
X110851904Y-29549967D01*
X110851904Y-29778538D01*
X110813809Y-29854729D01*
X110775714Y-29892824D01*
X113391904Y-33991476D02*
X112591904Y-33991476D01*
X112591904Y-33801000D01*
X112630000Y-33686714D01*
X112706190Y-33610523D01*
X112782380Y-33572428D01*
X112934761Y-33534333D01*
X113049047Y-33534333D01*
X113201428Y-33572428D01*
X113277619Y-33610523D01*
X113353809Y-33686714D01*
X113391904Y-33801000D01*
X113391904Y-33991476D01*
X112668095Y-33229571D02*
X112630000Y-33191476D01*
X112591904Y-33115285D01*
X112591904Y-32924809D01*
X112630000Y-32848619D01*
X112668095Y-32810523D01*
X112744285Y-32772428D01*
X112820476Y-32772428D01*
X112934761Y-32810523D01*
X113391904Y-33267666D01*
X113391904Y-32772428D01*
X123551904Y-33991476D02*
X122751904Y-33991476D01*
X122751904Y-33801000D01*
X122790000Y-33686714D01*
X122866190Y-33610523D01*
X122942380Y-33572428D01*
X123094761Y-33534333D01*
X123209047Y-33534333D01*
X123361428Y-33572428D01*
X123437619Y-33610523D01*
X123513809Y-33686714D01*
X123551904Y-33801000D01*
X123551904Y-33991476D01*
X122751904Y-33039095D02*
X122751904Y-32962904D01*
X122790000Y-32886714D01*
X122828095Y-32848619D01*
X122904285Y-32810523D01*
X123056666Y-32772428D01*
X123247142Y-32772428D01*
X123399523Y-32810523D01*
X123475714Y-32848619D01*
X123513809Y-32886714D01*
X123551904Y-32962904D01*
X123551904Y-33039095D01*
X123513809Y-33115285D01*
X123475714Y-33153380D01*
X123399523Y-33191476D01*
X123247142Y-33229571D01*
X123056666Y-33229571D01*
X122904285Y-33191476D01*
X122828095Y-33153380D01*
X122790000Y-33115285D01*
X122751904Y-33039095D01*
X121011904Y-33991476D02*
X120211904Y-33991476D01*
X120211904Y-33801000D01*
X120250000Y-33686714D01*
X120326190Y-33610523D01*
X120402380Y-33572428D01*
X120554761Y-33534333D01*
X120669047Y-33534333D01*
X120821428Y-33572428D01*
X120897619Y-33610523D01*
X120973809Y-33686714D01*
X121011904Y-33801000D01*
X121011904Y-33991476D01*
X121011904Y-32772428D02*
X121011904Y-33229571D01*
X121011904Y-33001000D02*
X120211904Y-33001000D01*
X120326190Y-33077190D01*
X120402380Y-33153380D01*
X120440476Y-33229571D01*
X117710000Y-34010523D02*
X117671904Y-34086714D01*
X117671904Y-34201000D01*
X117710000Y-34315285D01*
X117786190Y-34391476D01*
X117862380Y-34429571D01*
X118014761Y-34467666D01*
X118129047Y-34467666D01*
X118281428Y-34429571D01*
X118357619Y-34391476D01*
X118433809Y-34315285D01*
X118471904Y-34201000D01*
X118471904Y-34124809D01*
X118433809Y-34010523D01*
X118395714Y-33972428D01*
X118129047Y-33972428D01*
X118129047Y-34124809D01*
X118471904Y-33629571D02*
X117671904Y-33629571D01*
X118471904Y-33172428D01*
X117671904Y-33172428D01*
X118471904Y-32791476D02*
X117671904Y-32791476D01*
X117671904Y-32601000D01*
X117710000Y-32486714D01*
X117786190Y-32410523D01*
X117862380Y-32372428D01*
X118014761Y-32334333D01*
X118129047Y-32334333D01*
X118281428Y-32372428D01*
X118357619Y-32410523D01*
X118433809Y-32486714D01*
X118471904Y-32601000D01*
X118471904Y-32791476D01*
X115170000Y-34010523D02*
X115131904Y-34086714D01*
X115131904Y-34201000D01*
X115170000Y-34315285D01*
X115246190Y-34391476D01*
X115322380Y-34429571D01*
X115474761Y-34467666D01*
X115589047Y-34467666D01*
X115741428Y-34429571D01*
X115817619Y-34391476D01*
X115893809Y-34315285D01*
X115931904Y-34201000D01*
X115931904Y-34124809D01*
X115893809Y-34010523D01*
X115855714Y-33972428D01*
X115589047Y-33972428D01*
X115589047Y-34124809D01*
X115931904Y-33629571D02*
X115131904Y-33629571D01*
X115931904Y-33172428D01*
X115131904Y-33172428D01*
X115931904Y-32791476D02*
X115131904Y-32791476D01*
X115131904Y-32601000D01*
X115170000Y-32486714D01*
X115246190Y-32410523D01*
X115322380Y-32372428D01*
X115474761Y-32334333D01*
X115589047Y-32334333D01*
X115741428Y-32372428D01*
X115817619Y-32410523D01*
X115893809Y-32486714D01*
X115931904Y-32601000D01*
X115931904Y-32791476D01*
X126091904Y-33991476D02*
X125291904Y-33991476D01*
X125291904Y-33801000D01*
X125330000Y-33686714D01*
X125406190Y-33610523D01*
X125482380Y-33572428D01*
X125634761Y-33534333D01*
X125749047Y-33534333D01*
X125901428Y-33572428D01*
X125977619Y-33610523D01*
X126053809Y-33686714D01*
X126091904Y-33801000D01*
X126091904Y-33991476D01*
X125558571Y-32848619D02*
X126091904Y-32848619D01*
X125253809Y-33039095D02*
X125825238Y-33229571D01*
X125825238Y-32734333D01*
X128555714Y-33534333D02*
X128593809Y-33572428D01*
X128631904Y-33686714D01*
X128631904Y-33762904D01*
X128593809Y-33877190D01*
X128517619Y-33953380D01*
X128441428Y-33991476D01*
X128289047Y-34029571D01*
X128174761Y-34029571D01*
X128022380Y-33991476D01*
X127946190Y-33953380D01*
X127870000Y-33877190D01*
X127831904Y-33762904D01*
X127831904Y-33686714D01*
X127870000Y-33572428D01*
X127908095Y-33534333D01*
X127831904Y-32848619D02*
X127831904Y-33001000D01*
X127870000Y-33077190D01*
X127908095Y-33115285D01*
X128022380Y-33191476D01*
X128174761Y-33229571D01*
X128479523Y-33229571D01*
X128555714Y-33191476D01*
X128593809Y-33153380D01*
X128631904Y-33077190D01*
X128631904Y-32924809D01*
X128593809Y-32848619D01*
X128555714Y-32810523D01*
X128479523Y-32772428D01*
X128289047Y-32772428D01*
X128212857Y-32810523D01*
X128174761Y-32848619D01*
X128136666Y-32924809D01*
X128136666Y-33077190D01*
X128174761Y-33153380D01*
X128212857Y-33191476D01*
X128289047Y-33229571D01*
X131171904Y-33991476D02*
X130371904Y-33991476D01*
X130371904Y-33801000D01*
X130410000Y-33686714D01*
X130486190Y-33610523D01*
X130562380Y-33572428D01*
X130714761Y-33534333D01*
X130829047Y-33534333D01*
X130981428Y-33572428D01*
X131057619Y-33610523D01*
X131133809Y-33686714D01*
X131171904Y-33801000D01*
X131171904Y-33991476D01*
X130371904Y-33267666D02*
X130371904Y-32734333D01*
X131171904Y-33077190D01*
X133292857Y-33953380D02*
X133292857Y-33686714D01*
X133711904Y-33572428D02*
X133711904Y-33953380D01*
X132911904Y-33953380D01*
X132911904Y-33572428D01*
X132911904Y-32886714D02*
X132911904Y-33039095D01*
X132950000Y-33115285D01*
X132988095Y-33153380D01*
X133102380Y-33229571D01*
X133254761Y-33267666D01*
X133559523Y-33267666D01*
X133635714Y-33229571D01*
X133673809Y-33191476D01*
X133711904Y-33115285D01*
X133711904Y-32962904D01*
X133673809Y-32886714D01*
X133635714Y-32848619D01*
X133559523Y-32810523D01*
X133369047Y-32810523D01*
X133292857Y-32848619D01*
X133254761Y-32886714D01*
X133216666Y-32962904D01*
X133216666Y-33115285D01*
X133254761Y-33191476D01*
X133292857Y-33229571D01*
X133369047Y-33267666D01*
X135832857Y-33724809D02*
X135870952Y-33610523D01*
X135909047Y-33572428D01*
X135985238Y-33534333D01*
X136099523Y-33534333D01*
X136175714Y-33572428D01*
X136213809Y-33610523D01*
X136251904Y-33686714D01*
X136251904Y-33991476D01*
X135451904Y-33991476D01*
X135451904Y-33724809D01*
X135490000Y-33648619D01*
X135528095Y-33610523D01*
X135604285Y-33572428D01*
X135680476Y-33572428D01*
X135756666Y-33610523D01*
X135794761Y-33648619D01*
X135832857Y-33724809D01*
X135832857Y-33991476D01*
X135718571Y-32848619D02*
X136251904Y-32848619D01*
X135413809Y-33039095D02*
X135985238Y-33229571D01*
X135985238Y-32734333D01*
X138372857Y-33724809D02*
X138410952Y-33610523D01*
X138449047Y-33572428D01*
X138525238Y-33534333D01*
X138639523Y-33534333D01*
X138715714Y-33572428D01*
X138753809Y-33610523D01*
X138791904Y-33686714D01*
X138791904Y-33991476D01*
X137991904Y-33991476D01*
X137991904Y-33724809D01*
X138030000Y-33648619D01*
X138068095Y-33610523D01*
X138144285Y-33572428D01*
X138220476Y-33572428D01*
X138296666Y-33610523D01*
X138334761Y-33648619D01*
X138372857Y-33724809D01*
X138372857Y-33991476D01*
X137991904Y-32810523D02*
X137991904Y-33191476D01*
X138372857Y-33229571D01*
X138334761Y-33191476D01*
X138296666Y-33115285D01*
X138296666Y-32924809D01*
X138334761Y-32848619D01*
X138372857Y-32810523D01*
X138449047Y-32772428D01*
X138639523Y-32772428D01*
X138715714Y-32810523D01*
X138753809Y-32848619D01*
X138791904Y-32924809D01*
X138791904Y-33115285D01*
X138753809Y-33191476D01*
X138715714Y-33229571D01*
X138372857Y-22802809D02*
X138410952Y-22688523D01*
X138449047Y-22650428D01*
X138525238Y-22612333D01*
X138639523Y-22612333D01*
X138715714Y-22650428D01*
X138753809Y-22688523D01*
X138791904Y-22764714D01*
X138791904Y-23069476D01*
X137991904Y-23069476D01*
X137991904Y-22802809D01*
X138030000Y-22726619D01*
X138068095Y-22688523D01*
X138144285Y-22650428D01*
X138220476Y-22650428D01*
X138296666Y-22688523D01*
X138334761Y-22726619D01*
X138372857Y-22802809D01*
X138372857Y-23069476D01*
X137991904Y-21926619D02*
X137991904Y-22079000D01*
X138030000Y-22155190D01*
X138068095Y-22193285D01*
X138182380Y-22269476D01*
X138334761Y-22307571D01*
X138639523Y-22307571D01*
X138715714Y-22269476D01*
X138753809Y-22231380D01*
X138791904Y-22155190D01*
X138791904Y-22002809D01*
X138753809Y-21926619D01*
X138715714Y-21888523D01*
X138639523Y-21850428D01*
X138449047Y-21850428D01*
X138372857Y-21888523D01*
X138334761Y-21926619D01*
X138296666Y-22002809D01*
X138296666Y-22155190D01*
X138334761Y-22231380D01*
X138372857Y-22269476D01*
X138449047Y-22307571D01*
X133292857Y-22802809D02*
X133330952Y-22688523D01*
X133369047Y-22650428D01*
X133445238Y-22612333D01*
X133559523Y-22612333D01*
X133635714Y-22650428D01*
X133673809Y-22688523D01*
X133711904Y-22764714D01*
X133711904Y-23069476D01*
X132911904Y-23069476D01*
X132911904Y-22802809D01*
X132950000Y-22726619D01*
X132988095Y-22688523D01*
X133064285Y-22650428D01*
X133140476Y-22650428D01*
X133216666Y-22688523D01*
X133254761Y-22726619D01*
X133292857Y-22802809D01*
X133292857Y-23069476D01*
X132911904Y-22345666D02*
X132911904Y-21850428D01*
X133216666Y-22117095D01*
X133216666Y-22002809D01*
X133254761Y-21926619D01*
X133292857Y-21888523D01*
X133369047Y-21850428D01*
X133559523Y-21850428D01*
X133635714Y-21888523D01*
X133673809Y-21926619D01*
X133711904Y-22002809D01*
X133711904Y-22231380D01*
X133673809Y-22307571D01*
X133635714Y-22345666D01*
X130752857Y-22802809D02*
X130790952Y-22688523D01*
X130829047Y-22650428D01*
X130905238Y-22612333D01*
X131019523Y-22612333D01*
X131095714Y-22650428D01*
X131133809Y-22688523D01*
X131171904Y-22764714D01*
X131171904Y-23069476D01*
X130371904Y-23069476D01*
X130371904Y-22802809D01*
X130410000Y-22726619D01*
X130448095Y-22688523D01*
X130524285Y-22650428D01*
X130600476Y-22650428D01*
X130676666Y-22688523D01*
X130714761Y-22726619D01*
X130752857Y-22802809D01*
X130752857Y-23069476D01*
X131171904Y-21850428D02*
X131171904Y-22307571D01*
X131171904Y-22079000D02*
X130371904Y-22079000D01*
X130486190Y-22155190D01*
X130562380Y-22231380D01*
X130600476Y-22307571D01*
X120592857Y-22745666D02*
X120592857Y-23012333D01*
X121011904Y-23012333D02*
X120211904Y-23012333D01*
X120211904Y-22631380D01*
X120478571Y-21983761D02*
X121011904Y-21983761D01*
X120173809Y-22174238D02*
X120745238Y-22364714D01*
X120745238Y-21869476D01*
X117671904Y-23545666D02*
X118471904Y-23279000D01*
X117671904Y-23012333D01*
X118395714Y-22288523D02*
X118433809Y-22326619D01*
X118471904Y-22440904D01*
X118471904Y-22517095D01*
X118433809Y-22631380D01*
X118357619Y-22707571D01*
X118281428Y-22745666D01*
X118129047Y-22783761D01*
X118014761Y-22783761D01*
X117862380Y-22745666D01*
X117786190Y-22707571D01*
X117710000Y-22631380D01*
X117671904Y-22517095D01*
X117671904Y-22440904D01*
X117710000Y-22326619D01*
X117748095Y-22288523D01*
X118395714Y-21488523D02*
X118433809Y-21526619D01*
X118471904Y-21640904D01*
X118471904Y-21717095D01*
X118433809Y-21831380D01*
X118357619Y-21907571D01*
X118281428Y-21945666D01*
X118129047Y-21983761D01*
X118014761Y-21983761D01*
X117862380Y-21945666D01*
X117786190Y-21907571D01*
X117710000Y-21831380D01*
X117671904Y-21717095D01*
X117671904Y-21640904D01*
X117710000Y-21526619D01*
X117748095Y-21488523D01*
X115863809Y-22740213D02*
X115901904Y-22625927D01*
X115901904Y-22435451D01*
X115863809Y-22359260D01*
X115825714Y-22321165D01*
X115749523Y-22283070D01*
X115673333Y-22283070D01*
X115597142Y-22321165D01*
X115559047Y-22359260D01*
X115520952Y-22435451D01*
X115482857Y-22587832D01*
X115444761Y-22664022D01*
X115406666Y-22702118D01*
X115330476Y-22740213D01*
X115254285Y-22740213D01*
X115178095Y-22702118D01*
X115140000Y-22664022D01*
X115101904Y-22587832D01*
X115101904Y-22397356D01*
X115140000Y-22283070D01*
X115101904Y-22054499D02*
X115101904Y-21597356D01*
X115901904Y-21825927D02*
X115101904Y-21825927D01*
X112630000Y-23088523D02*
X112591904Y-23164714D01*
X112591904Y-23279000D01*
X112630000Y-23393285D01*
X112706190Y-23469476D01*
X112782380Y-23507571D01*
X112934761Y-23545666D01*
X113049047Y-23545666D01*
X113201428Y-23507571D01*
X113277619Y-23469476D01*
X113353809Y-23393285D01*
X113391904Y-23279000D01*
X113391904Y-23202809D01*
X113353809Y-23088523D01*
X113315714Y-23050428D01*
X113049047Y-23050428D01*
X113049047Y-23202809D01*
X113391904Y-22707571D02*
X112591904Y-22707571D01*
X113391904Y-22250428D01*
X112591904Y-22250428D01*
X113391904Y-21869476D02*
X112591904Y-21869476D01*
X112591904Y-21679000D01*
X112630000Y-21564714D01*
X112706190Y-21488523D01*
X112782380Y-21450428D01*
X112934761Y-21412333D01*
X113049047Y-21412333D01*
X113201428Y-21450428D01*
X113277619Y-21488523D01*
X113353809Y-21564714D01*
X113391904Y-21679000D01*
X113391904Y-21869476D01*
X110851904Y-23031380D02*
X110470952Y-23298047D01*
X110851904Y-23488523D02*
X110051904Y-23488523D01*
X110051904Y-23183761D01*
X110090000Y-23107571D01*
X110128095Y-23069476D01*
X110204285Y-23031380D01*
X110318571Y-23031380D01*
X110394761Y-23069476D01*
X110432857Y-23107571D01*
X110470952Y-23183761D01*
X110470952Y-23488523D01*
X110623333Y-22726619D02*
X110623333Y-22345666D01*
X110851904Y-22802809D02*
X110051904Y-22536142D01*
X110851904Y-22269476D01*
X110051904Y-22079000D02*
X110851904Y-21888523D01*
X110280476Y-21736142D01*
X110851904Y-21583761D01*
X110051904Y-21393285D01*
X123132857Y-22745666D02*
X123132857Y-23012333D01*
X123551904Y-23012333D02*
X122751904Y-23012333D01*
X122751904Y-22631380D01*
X122751904Y-21945666D02*
X122751904Y-22326619D01*
X123132857Y-22364714D01*
X123094761Y-22326619D01*
X123056666Y-22250428D01*
X123056666Y-22059952D01*
X123094761Y-21983761D01*
X123132857Y-21945666D01*
X123209047Y-21907571D01*
X123399523Y-21907571D01*
X123475714Y-21945666D01*
X123513809Y-21983761D01*
X123551904Y-22059952D01*
X123551904Y-22250428D01*
X123513809Y-22326619D01*
X123475714Y-22364714D01*
X125672857Y-22745666D02*
X125672857Y-23012333D01*
X126091904Y-23012333D02*
X125291904Y-23012333D01*
X125291904Y-22631380D01*
X125291904Y-21983761D02*
X125291904Y-22136142D01*
X125330000Y-22212333D01*
X125368095Y-22250428D01*
X125482380Y-22326619D01*
X125634761Y-22364714D01*
X125939523Y-22364714D01*
X126015714Y-22326619D01*
X126053809Y-22288523D01*
X126091904Y-22212333D01*
X126091904Y-22059952D01*
X126053809Y-21983761D01*
X126015714Y-21945666D01*
X125939523Y-21907571D01*
X125749047Y-21907571D01*
X125672857Y-21945666D01*
X125634761Y-21983761D01*
X125596666Y-22059952D01*
X125596666Y-22212333D01*
X125634761Y-22288523D01*
X125672857Y-22326619D01*
X125749047Y-22364714D01*
X128212857Y-22745666D02*
X128212857Y-23012333D01*
X128631904Y-23012333D02*
X127831904Y-23012333D01*
X127831904Y-22631380D01*
X127831904Y-22402809D02*
X127831904Y-21869476D01*
X128631904Y-22212333D01*
X135832857Y-22802809D02*
X135870952Y-22688523D01*
X135909047Y-22650428D01*
X135985238Y-22612333D01*
X136099523Y-22612333D01*
X136175714Y-22650428D01*
X136213809Y-22688523D01*
X136251904Y-22764714D01*
X136251904Y-23069476D01*
X135451904Y-23069476D01*
X135451904Y-22802809D01*
X135490000Y-22726619D01*
X135528095Y-22688523D01*
X135604285Y-22650428D01*
X135680476Y-22650428D01*
X135756666Y-22688523D01*
X135794761Y-22726619D01*
X135832857Y-22802809D01*
X135832857Y-23069476D01*
X135528095Y-22307571D02*
X135490000Y-22269476D01*
X135451904Y-22193285D01*
X135451904Y-22002809D01*
X135490000Y-21926619D01*
X135528095Y-21888523D01*
X135604285Y-21850428D01*
X135680476Y-21850428D01*
X135794761Y-21888523D01*
X136251904Y-22345666D01*
X136251904Y-21850428D01*
X144006666Y-23740761D02*
X144149523Y-23788380D01*
X144387619Y-23788380D01*
X144482857Y-23740761D01*
X144530476Y-23693142D01*
X144578095Y-23597904D01*
X144578095Y-23502666D01*
X144530476Y-23407428D01*
X144482857Y-23359809D01*
X144387619Y-23312190D01*
X144197142Y-23264571D01*
X144101904Y-23216952D01*
X144054285Y-23169333D01*
X144006666Y-23074095D01*
X144006666Y-22978857D01*
X144054285Y-22883619D01*
X144101904Y-22836000D01*
X144197142Y-22788380D01*
X144435238Y-22788380D01*
X144578095Y-22836000D01*
X144911428Y-22788380D02*
X145149523Y-23788380D01*
X145340000Y-23074095D01*
X145530476Y-23788380D01*
X145768571Y-22788380D01*
X146673333Y-23788380D02*
X146101904Y-23788380D01*
X146387619Y-23788380D02*
X146387619Y-22788380D01*
X146292380Y-22931238D01*
X146197142Y-23026476D01*
X146101904Y-23074095D01*
X132953285Y-44775380D02*
X132953285Y-43775380D01*
X133286619Y-44489666D01*
X133619952Y-43775380D01*
X133619952Y-44775380D01*
X134000904Y-43775380D02*
X134667571Y-44775380D01*
X134667571Y-43775380D02*
X134000904Y-44775380D01*
X135572333Y-44775380D02*
X135000904Y-44775380D01*
X135286619Y-44775380D02*
X135286619Y-43775380D01*
X135191380Y-43918238D01*
X135096142Y-44013476D01*
X135000904Y-44061095D01*
X113427095Y-120975380D02*
X113427095Y-119975380D01*
X113760428Y-120689666D01*
X114093761Y-119975380D01*
X114093761Y-120975380D01*
X114474714Y-119975380D02*
X115141380Y-120975380D01*
X115141380Y-119975380D02*
X114474714Y-120975380D01*
X116046142Y-120975380D02*
X115474714Y-120975380D01*
X115760428Y-120975380D02*
X115760428Y-119975380D01*
X115665190Y-120118238D01*
X115569952Y-120213476D01*
X115474714Y-120261095D01*
X116903285Y-119975380D02*
X116712809Y-119975380D01*
X116617571Y-120023000D01*
X116569952Y-120070619D01*
X116474714Y-120213476D01*
X116427095Y-120403952D01*
X116427095Y-120784904D01*
X116474714Y-120880142D01*
X116522333Y-120927761D01*
X116617571Y-120975380D01*
X116808047Y-120975380D01*
X116903285Y-120927761D01*
X116950904Y-120880142D01*
X116998523Y-120784904D01*
X116998523Y-120546809D01*
X116950904Y-120451571D01*
X116903285Y-120403952D01*
X116808047Y-120356333D01*
X116617571Y-120356333D01*
X116522333Y-120403952D01*
X116474714Y-120451571D01*
X116427095Y-120546809D01*
X151527095Y-101925380D02*
X151527095Y-100925380D01*
X151860428Y-101639666D01*
X152193761Y-100925380D01*
X152193761Y-101925380D01*
X152574714Y-100925380D02*
X153241380Y-101925380D01*
X153241380Y-100925380D02*
X152574714Y-101925380D01*
X154146142Y-101925380D02*
X153574714Y-101925380D01*
X153860428Y-101925380D02*
X153860428Y-100925380D01*
X153765190Y-101068238D01*
X153669952Y-101163476D01*
X153574714Y-101211095D01*
X155003285Y-101258714D02*
X155003285Y-101925380D01*
X154765190Y-100877761D02*
X154527095Y-101592047D01*
X155146142Y-101592047D01*
X168001904Y-28791428D02*
X167201904Y-28791428D01*
X167201904Y-28600952D01*
X167240000Y-28486666D01*
X167316190Y-28410476D01*
X167392380Y-28372380D01*
X167544761Y-28334285D01*
X167659047Y-28334285D01*
X167811428Y-28372380D01*
X167887619Y-28410476D01*
X167963809Y-28486666D01*
X168001904Y-28600952D01*
X168001904Y-28791428D01*
X168001904Y-27572380D02*
X168001904Y-28029523D01*
X168001904Y-27800952D02*
X167201904Y-27800952D01*
X167316190Y-27877142D01*
X167392380Y-27953333D01*
X167430476Y-28029523D01*
X167201904Y-27305714D02*
X167201904Y-26772380D01*
X168001904Y-27115238D01*
X170541904Y-28791428D02*
X169741904Y-28791428D01*
X169741904Y-28600952D01*
X169780000Y-28486666D01*
X169856190Y-28410476D01*
X169932380Y-28372380D01*
X170084761Y-28334285D01*
X170199047Y-28334285D01*
X170351428Y-28372380D01*
X170427619Y-28410476D01*
X170503809Y-28486666D01*
X170541904Y-28600952D01*
X170541904Y-28791428D01*
X170541904Y-27572380D02*
X170541904Y-28029523D01*
X170541904Y-27800952D02*
X169741904Y-27800952D01*
X169856190Y-27877142D01*
X169932380Y-27953333D01*
X169970476Y-28029523D01*
X169741904Y-27305714D02*
X169741904Y-26810476D01*
X170046666Y-27077142D01*
X170046666Y-26962857D01*
X170084761Y-26886666D01*
X170122857Y-26848571D01*
X170199047Y-26810476D01*
X170389523Y-26810476D01*
X170465714Y-26848571D01*
X170503809Y-26886666D01*
X170541904Y-26962857D01*
X170541904Y-27191428D01*
X170503809Y-27267619D01*
X170465714Y-27305714D01*
X175621904Y-28410476D02*
X174821904Y-28410476D01*
X174821904Y-28220000D01*
X174860000Y-28105714D01*
X174936190Y-28029523D01*
X175012380Y-27991428D01*
X175164761Y-27953333D01*
X175279047Y-27953333D01*
X175431428Y-27991428D01*
X175507619Y-28029523D01*
X175583809Y-28105714D01*
X175621904Y-28220000D01*
X175621904Y-28410476D01*
X174821904Y-27229523D02*
X174821904Y-27610476D01*
X175202857Y-27648571D01*
X175164761Y-27610476D01*
X175126666Y-27534285D01*
X175126666Y-27343809D01*
X175164761Y-27267619D01*
X175202857Y-27229523D01*
X175279047Y-27191428D01*
X175469523Y-27191428D01*
X175545714Y-27229523D01*
X175583809Y-27267619D01*
X175621904Y-27343809D01*
X175621904Y-27534285D01*
X175583809Y-27610476D01*
X175545714Y-27648571D01*
X178161904Y-28410476D02*
X177361904Y-28410476D01*
X177361904Y-28220000D01*
X177400000Y-28105714D01*
X177476190Y-28029523D01*
X177552380Y-27991428D01*
X177704761Y-27953333D01*
X177819047Y-27953333D01*
X177971428Y-27991428D01*
X178047619Y-28029523D01*
X178123809Y-28105714D01*
X178161904Y-28220000D01*
X178161904Y-28410476D01*
X178161904Y-27191428D02*
X178161904Y-27648571D01*
X178161904Y-27420000D02*
X177361904Y-27420000D01*
X177476190Y-27496190D01*
X177552380Y-27572380D01*
X177590476Y-27648571D01*
X165461904Y-28791428D02*
X164661904Y-28791428D01*
X164661904Y-28600952D01*
X164700000Y-28486666D01*
X164776190Y-28410476D01*
X164852380Y-28372380D01*
X165004761Y-28334285D01*
X165119047Y-28334285D01*
X165271428Y-28372380D01*
X165347619Y-28410476D01*
X165423809Y-28486666D01*
X165461904Y-28600952D01*
X165461904Y-28791428D01*
X165461904Y-27572380D02*
X165461904Y-28029523D01*
X165461904Y-27800952D02*
X164661904Y-27800952D01*
X164776190Y-27877142D01*
X164852380Y-27953333D01*
X164890476Y-28029523D01*
X164661904Y-26886666D02*
X164661904Y-27039047D01*
X164700000Y-27115238D01*
X164738095Y-27153333D01*
X164852380Y-27229523D01*
X165004761Y-27267619D01*
X165309523Y-27267619D01*
X165385714Y-27229523D01*
X165423809Y-27191428D01*
X165461904Y-27115238D01*
X165461904Y-26962857D01*
X165423809Y-26886666D01*
X165385714Y-26848571D01*
X165309523Y-26810476D01*
X165119047Y-26810476D01*
X165042857Y-26848571D01*
X165004761Y-26886666D01*
X164966666Y-26962857D01*
X164966666Y-27115238D01*
X165004761Y-27191428D01*
X165042857Y-27229523D01*
X165119047Y-27267619D01*
X157841904Y-28410476D02*
X157041904Y-28410476D01*
X157041904Y-28220000D01*
X157080000Y-28105714D01*
X157156190Y-28029523D01*
X157232380Y-27991428D01*
X157384761Y-27953333D01*
X157499047Y-27953333D01*
X157651428Y-27991428D01*
X157727619Y-28029523D01*
X157803809Y-28105714D01*
X157841904Y-28220000D01*
X157841904Y-28410476D01*
X157308571Y-27267619D02*
X157841904Y-27267619D01*
X157003809Y-27458095D02*
X157575238Y-27648571D01*
X157575238Y-27153333D01*
X162921904Y-28791428D02*
X162121904Y-28791428D01*
X162121904Y-28600952D01*
X162160000Y-28486666D01*
X162236190Y-28410476D01*
X162312380Y-28372380D01*
X162464761Y-28334285D01*
X162579047Y-28334285D01*
X162731428Y-28372380D01*
X162807619Y-28410476D01*
X162883809Y-28486666D01*
X162921904Y-28600952D01*
X162921904Y-28791428D01*
X162921904Y-27572380D02*
X162921904Y-28029523D01*
X162921904Y-27800952D02*
X162121904Y-27800952D01*
X162236190Y-27877142D01*
X162312380Y-27953333D01*
X162350476Y-28029523D01*
X162198095Y-27267619D02*
X162160000Y-27229523D01*
X162121904Y-27153333D01*
X162121904Y-26962857D01*
X162160000Y-26886666D01*
X162198095Y-26848571D01*
X162274285Y-26810476D01*
X162350476Y-26810476D01*
X162464761Y-26848571D01*
X162921904Y-27305714D01*
X162921904Y-26810476D01*
X160381904Y-28410476D02*
X159581904Y-28410476D01*
X159581904Y-28220000D01*
X159620000Y-28105714D01*
X159696190Y-28029523D01*
X159772380Y-27991428D01*
X159924761Y-27953333D01*
X160039047Y-27953333D01*
X160191428Y-27991428D01*
X160267619Y-28029523D01*
X160343809Y-28105714D01*
X160381904Y-28220000D01*
X160381904Y-28410476D01*
X159924761Y-27496190D02*
X159886666Y-27572380D01*
X159848571Y-27610476D01*
X159772380Y-27648571D01*
X159734285Y-27648571D01*
X159658095Y-27610476D01*
X159620000Y-27572380D01*
X159581904Y-27496190D01*
X159581904Y-27343809D01*
X159620000Y-27267619D01*
X159658095Y-27229523D01*
X159734285Y-27191428D01*
X159772380Y-27191428D01*
X159848571Y-27229523D01*
X159886666Y-27267619D01*
X159924761Y-27343809D01*
X159924761Y-27496190D01*
X159962857Y-27572380D01*
X160000952Y-27610476D01*
X160077142Y-27648571D01*
X160229523Y-27648571D01*
X160305714Y-27610476D01*
X160343809Y-27572380D01*
X160381904Y-27496190D01*
X160381904Y-27343809D01*
X160343809Y-27267619D01*
X160305714Y-27229523D01*
X160229523Y-27191428D01*
X160077142Y-27191428D01*
X160000952Y-27229523D01*
X159962857Y-27267619D01*
X159924761Y-27343809D01*
X173081904Y-28410476D02*
X172281904Y-28410476D01*
X172281904Y-28220000D01*
X172320000Y-28105714D01*
X172396190Y-28029523D01*
X172472380Y-27991428D01*
X172624761Y-27953333D01*
X172739047Y-27953333D01*
X172891428Y-27991428D01*
X172967619Y-28029523D01*
X173043809Y-28105714D01*
X173081904Y-28220000D01*
X173081904Y-28410476D01*
X173081904Y-27572380D02*
X173081904Y-27420000D01*
X173043809Y-27343809D01*
X173005714Y-27305714D01*
X172891428Y-27229523D01*
X172739047Y-27191428D01*
X172434285Y-27191428D01*
X172358095Y-27229523D01*
X172320000Y-27267619D01*
X172281904Y-27343809D01*
X172281904Y-27496190D01*
X172320000Y-27572380D01*
X172358095Y-27610476D01*
X172434285Y-27648571D01*
X172624761Y-27648571D01*
X172700952Y-27610476D01*
X172739047Y-27572380D01*
X172777142Y-27496190D01*
X172777142Y-27343809D01*
X172739047Y-27267619D01*
X172700952Y-27229523D01*
X172624761Y-27191428D01*
X170541904Y-41491428D02*
X169741904Y-41491428D01*
X169741904Y-41300952D01*
X169780000Y-41186666D01*
X169856190Y-41110476D01*
X169932380Y-41072380D01*
X170084761Y-41034285D01*
X170199047Y-41034285D01*
X170351428Y-41072380D01*
X170427619Y-41110476D01*
X170503809Y-41186666D01*
X170541904Y-41300952D01*
X170541904Y-41491428D01*
X170541904Y-40272380D02*
X170541904Y-40729523D01*
X170541904Y-40500952D02*
X169741904Y-40500952D01*
X169856190Y-40577142D01*
X169932380Y-40653333D01*
X169970476Y-40729523D01*
X169741904Y-39548571D02*
X169741904Y-39929523D01*
X170122857Y-39967619D01*
X170084761Y-39929523D01*
X170046666Y-39853333D01*
X170046666Y-39662857D01*
X170084761Y-39586666D01*
X170122857Y-39548571D01*
X170199047Y-39510476D01*
X170389523Y-39510476D01*
X170465714Y-39548571D01*
X170503809Y-39586666D01*
X170541904Y-39662857D01*
X170541904Y-39853333D01*
X170503809Y-39929523D01*
X170465714Y-39967619D01*
X168001904Y-41491428D02*
X167201904Y-41491428D01*
X167201904Y-41300952D01*
X167240000Y-41186666D01*
X167316190Y-41110476D01*
X167392380Y-41072380D01*
X167544761Y-41034285D01*
X167659047Y-41034285D01*
X167811428Y-41072380D01*
X167887619Y-41110476D01*
X167963809Y-41186666D01*
X168001904Y-41300952D01*
X168001904Y-41491428D01*
X168001904Y-40272380D02*
X168001904Y-40729523D01*
X168001904Y-40500952D02*
X167201904Y-40500952D01*
X167316190Y-40577142D01*
X167392380Y-40653333D01*
X167430476Y-40729523D01*
X168001904Y-39891428D02*
X168001904Y-39739047D01*
X167963809Y-39662857D01*
X167925714Y-39624761D01*
X167811428Y-39548571D01*
X167659047Y-39510476D01*
X167354285Y-39510476D01*
X167278095Y-39548571D01*
X167240000Y-39586666D01*
X167201904Y-39662857D01*
X167201904Y-39815238D01*
X167240000Y-39891428D01*
X167278095Y-39929523D01*
X167354285Y-39967619D01*
X167544761Y-39967619D01*
X167620952Y-39929523D01*
X167659047Y-39891428D01*
X167697142Y-39815238D01*
X167697142Y-39662857D01*
X167659047Y-39586666D01*
X167620952Y-39548571D01*
X167544761Y-39510476D01*
X165461904Y-41491428D02*
X164661904Y-41491428D01*
X164661904Y-41300952D01*
X164700000Y-41186666D01*
X164776190Y-41110476D01*
X164852380Y-41072380D01*
X165004761Y-41034285D01*
X165119047Y-41034285D01*
X165271428Y-41072380D01*
X165347619Y-41110476D01*
X165423809Y-41186666D01*
X165461904Y-41300952D01*
X165461904Y-41491428D01*
X165461904Y-40272380D02*
X165461904Y-40729523D01*
X165461904Y-40500952D02*
X164661904Y-40500952D01*
X164776190Y-40577142D01*
X164852380Y-40653333D01*
X164890476Y-40729523D01*
X165004761Y-39815238D02*
X164966666Y-39891428D01*
X164928571Y-39929523D01*
X164852380Y-39967619D01*
X164814285Y-39967619D01*
X164738095Y-39929523D01*
X164700000Y-39891428D01*
X164661904Y-39815238D01*
X164661904Y-39662857D01*
X164700000Y-39586666D01*
X164738095Y-39548571D01*
X164814285Y-39510476D01*
X164852380Y-39510476D01*
X164928571Y-39548571D01*
X164966666Y-39586666D01*
X165004761Y-39662857D01*
X165004761Y-39815238D01*
X165042857Y-39891428D01*
X165080952Y-39929523D01*
X165157142Y-39967619D01*
X165309523Y-39967619D01*
X165385714Y-39929523D01*
X165423809Y-39891428D01*
X165461904Y-39815238D01*
X165461904Y-39662857D01*
X165423809Y-39586666D01*
X165385714Y-39548571D01*
X165309523Y-39510476D01*
X165157142Y-39510476D01*
X165080952Y-39548571D01*
X165042857Y-39586666D01*
X165004761Y-39662857D01*
X162921904Y-41491428D02*
X162121904Y-41491428D01*
X162121904Y-41300952D01*
X162160000Y-41186666D01*
X162236190Y-41110476D01*
X162312380Y-41072380D01*
X162464761Y-41034285D01*
X162579047Y-41034285D01*
X162731428Y-41072380D01*
X162807619Y-41110476D01*
X162883809Y-41186666D01*
X162921904Y-41300952D01*
X162921904Y-41491428D01*
X162921904Y-40272380D02*
X162921904Y-40729523D01*
X162921904Y-40500952D02*
X162121904Y-40500952D01*
X162236190Y-40577142D01*
X162312380Y-40653333D01*
X162350476Y-40729523D01*
X162388571Y-39586666D02*
X162921904Y-39586666D01*
X162083809Y-39777142D02*
X162655238Y-39967619D01*
X162655238Y-39472380D01*
X173081904Y-41491428D02*
X172281904Y-41491428D01*
X172281904Y-41300952D01*
X172320000Y-41186666D01*
X172396190Y-41110476D01*
X172472380Y-41072380D01*
X172624761Y-41034285D01*
X172739047Y-41034285D01*
X172891428Y-41072380D01*
X172967619Y-41110476D01*
X173043809Y-41186666D01*
X173081904Y-41300952D01*
X173081904Y-41491428D01*
X173081904Y-40272380D02*
X173081904Y-40729523D01*
X173081904Y-40500952D02*
X172281904Y-40500952D01*
X172396190Y-40577142D01*
X172472380Y-40653333D01*
X172510476Y-40729523D01*
X173081904Y-39510476D02*
X173081904Y-39967619D01*
X173081904Y-39739047D02*
X172281904Y-39739047D01*
X172396190Y-39815238D01*
X172472380Y-39891428D01*
X172510476Y-39967619D01*
X160381904Y-41491428D02*
X159581904Y-41491428D01*
X159581904Y-41300952D01*
X159620000Y-41186666D01*
X159696190Y-41110476D01*
X159772380Y-41072380D01*
X159924761Y-41034285D01*
X160039047Y-41034285D01*
X160191428Y-41072380D01*
X160267619Y-41110476D01*
X160343809Y-41186666D01*
X160381904Y-41300952D01*
X160381904Y-41491428D01*
X160381904Y-40272380D02*
X160381904Y-40729523D01*
X160381904Y-40500952D02*
X159581904Y-40500952D01*
X159696190Y-40577142D01*
X159772380Y-40653333D01*
X159810476Y-40729523D01*
X159581904Y-39777142D02*
X159581904Y-39700952D01*
X159620000Y-39624761D01*
X159658095Y-39586666D01*
X159734285Y-39548571D01*
X159886666Y-39510476D01*
X160077142Y-39510476D01*
X160229523Y-39548571D01*
X160305714Y-39586666D01*
X160343809Y-39624761D01*
X160381904Y-39700952D01*
X160381904Y-39777142D01*
X160343809Y-39853333D01*
X160305714Y-39891428D01*
X160229523Y-39929523D01*
X160077142Y-39967619D01*
X159886666Y-39967619D01*
X159734285Y-39929523D01*
X159658095Y-39891428D01*
X159620000Y-39853333D01*
X159581904Y-39777142D01*
X175621904Y-41110476D02*
X174821904Y-41110476D01*
X174821904Y-40920000D01*
X174860000Y-40805714D01*
X174936190Y-40729523D01*
X175012380Y-40691428D01*
X175164761Y-40653333D01*
X175279047Y-40653333D01*
X175431428Y-40691428D01*
X175507619Y-40729523D01*
X175583809Y-40805714D01*
X175621904Y-40920000D01*
X175621904Y-41110476D01*
X174821904Y-40386666D02*
X174821904Y-39853333D01*
X175621904Y-40196190D01*
X157841904Y-41110476D02*
X157041904Y-41110476D01*
X157041904Y-40920000D01*
X157080000Y-40805714D01*
X157156190Y-40729523D01*
X157232380Y-40691428D01*
X157384761Y-40653333D01*
X157499047Y-40653333D01*
X157651428Y-40691428D01*
X157727619Y-40729523D01*
X157803809Y-40805714D01*
X157841904Y-40920000D01*
X157841904Y-41110476D01*
X157041904Y-39967619D02*
X157041904Y-40120000D01*
X157080000Y-40196190D01*
X157118095Y-40234285D01*
X157232380Y-40310476D01*
X157384761Y-40348571D01*
X157689523Y-40348571D01*
X157765714Y-40310476D01*
X157803809Y-40272380D01*
X157841904Y-40196190D01*
X157841904Y-40043809D01*
X157803809Y-39967619D01*
X157765714Y-39929523D01*
X157689523Y-39891428D01*
X157499047Y-39891428D01*
X157422857Y-39929523D01*
X157384761Y-39967619D01*
X157346666Y-40043809D01*
X157346666Y-40196190D01*
X157384761Y-40272380D01*
X157422857Y-40310476D01*
X157499047Y-40348571D01*
X178161904Y-41110476D02*
X177361904Y-41110476D01*
X177361904Y-40920000D01*
X177400000Y-40805714D01*
X177476190Y-40729523D01*
X177552380Y-40691428D01*
X177704761Y-40653333D01*
X177819047Y-40653333D01*
X177971428Y-40691428D01*
X178047619Y-40729523D01*
X178123809Y-40805714D01*
X178161904Y-40920000D01*
X178161904Y-41110476D01*
X177361904Y-40386666D02*
X177361904Y-39891428D01*
X177666666Y-40158095D01*
X177666666Y-40043809D01*
X177704761Y-39967619D01*
X177742857Y-39929523D01*
X177819047Y-39891428D01*
X178009523Y-39891428D01*
X178085714Y-39929523D01*
X178123809Y-39967619D01*
X178161904Y-40043809D01*
X178161904Y-40272380D01*
X178123809Y-40348571D01*
X178085714Y-40386666D01*
X155301904Y-41110476D02*
X154501904Y-41110476D01*
X154501904Y-40920000D01*
X154540000Y-40805714D01*
X154616190Y-40729523D01*
X154692380Y-40691428D01*
X154844761Y-40653333D01*
X154959047Y-40653333D01*
X155111428Y-40691428D01*
X155187619Y-40729523D01*
X155263809Y-40805714D01*
X155301904Y-40920000D01*
X155301904Y-41110476D01*
X154578095Y-40348571D02*
X154540000Y-40310476D01*
X154501904Y-40234285D01*
X154501904Y-40043809D01*
X154540000Y-39967619D01*
X154578095Y-39929523D01*
X154654285Y-39891428D01*
X154730476Y-39891428D01*
X154844761Y-39929523D01*
X155301904Y-40386666D01*
X155301904Y-39891428D01*
X155301904Y-28410476D02*
X154501904Y-28410476D01*
X154501904Y-28220000D01*
X154540000Y-28105714D01*
X154616190Y-28029523D01*
X154692380Y-27991428D01*
X154844761Y-27953333D01*
X154959047Y-27953333D01*
X155111428Y-27991428D01*
X155187619Y-28029523D01*
X155263809Y-28105714D01*
X155301904Y-28220000D01*
X155301904Y-28410476D01*
X154501904Y-27458095D02*
X154501904Y-27381904D01*
X154540000Y-27305714D01*
X154578095Y-27267619D01*
X154654285Y-27229523D01*
X154806666Y-27191428D01*
X154997142Y-27191428D01*
X155149523Y-27229523D01*
X155225714Y-27267619D01*
X155263809Y-27305714D01*
X155301904Y-27381904D01*
X155301904Y-27458095D01*
X155263809Y-27534285D01*
X155225714Y-27572380D01*
X155149523Y-27610476D01*
X154997142Y-27648571D01*
X154806666Y-27648571D01*
X154654285Y-27610476D01*
X154578095Y-27572380D01*
X154540000Y-27534285D01*
X154501904Y-27458095D01*
X170577095Y-120975380D02*
X170577095Y-119975380D01*
X170910428Y-120689666D01*
X171243761Y-119975380D01*
X171243761Y-120975380D01*
X171624714Y-119975380D02*
X172291380Y-120975380D01*
X172291380Y-119975380D02*
X171624714Y-120975380D01*
X173196142Y-120975380D02*
X172624714Y-120975380D01*
X172910428Y-120975380D02*
X172910428Y-119975380D01*
X172815190Y-120118238D01*
X172719952Y-120213476D01*
X172624714Y-120261095D01*
X173672333Y-120975380D02*
X173862809Y-120975380D01*
X173958047Y-120927761D01*
X174005666Y-120880142D01*
X174100904Y-120737285D01*
X174148523Y-120546809D01*
X174148523Y-120165857D01*
X174100904Y-120070619D01*
X174053285Y-120023000D01*
X173958047Y-119975380D01*
X173767571Y-119975380D01*
X173672333Y-120023000D01*
X173624714Y-120070619D01*
X173577095Y-120165857D01*
X173577095Y-120403952D01*
X173624714Y-120499190D01*
X173672333Y-120546809D01*
X173767571Y-120594428D01*
X173958047Y-120594428D01*
X174053285Y-120546809D01*
X174100904Y-120499190D01*
X174148523Y-120403952D01*
X151527095Y-120975380D02*
X151527095Y-119975380D01*
X151860428Y-120689666D01*
X152193761Y-119975380D01*
X152193761Y-120975380D01*
X152574714Y-119975380D02*
X153241380Y-120975380D01*
X153241380Y-119975380D02*
X152574714Y-120975380D01*
X154146142Y-120975380D02*
X153574714Y-120975380D01*
X153860428Y-120975380D02*
X153860428Y-119975380D01*
X153765190Y-120118238D01*
X153669952Y-120213476D01*
X153574714Y-120261095D01*
X154717571Y-120403952D02*
X154622333Y-120356333D01*
X154574714Y-120308714D01*
X154527095Y-120213476D01*
X154527095Y-120165857D01*
X154574714Y-120070619D01*
X154622333Y-120023000D01*
X154717571Y-119975380D01*
X154908047Y-119975380D01*
X155003285Y-120023000D01*
X155050904Y-120070619D01*
X155098523Y-120165857D01*
X155098523Y-120213476D01*
X155050904Y-120308714D01*
X155003285Y-120356333D01*
X154908047Y-120403952D01*
X154717571Y-120403952D01*
X154622333Y-120451571D01*
X154574714Y-120499190D01*
X154527095Y-120594428D01*
X154527095Y-120784904D01*
X154574714Y-120880142D01*
X154622333Y-120927761D01*
X154717571Y-120975380D01*
X154908047Y-120975380D01*
X155003285Y-120927761D01*
X155050904Y-120880142D01*
X155098523Y-120784904D01*
X155098523Y-120594428D01*
X155050904Y-120499190D01*
X155003285Y-120451571D01*
X154908047Y-120403952D01*
X132477095Y-120975380D02*
X132477095Y-119975380D01*
X132810428Y-120689666D01*
X133143761Y-119975380D01*
X133143761Y-120975380D01*
X133524714Y-119975380D02*
X134191380Y-120975380D01*
X134191380Y-119975380D02*
X133524714Y-120975380D01*
X135096142Y-120975380D02*
X134524714Y-120975380D01*
X134810428Y-120975380D02*
X134810428Y-119975380D01*
X134715190Y-120118238D01*
X134619952Y-120213476D01*
X134524714Y-120261095D01*
X135429476Y-119975380D02*
X136096142Y-119975380D01*
X135667571Y-120975380D01*
X170577095Y-101925380D02*
X170577095Y-100925380D01*
X170910428Y-101639666D01*
X171243761Y-100925380D01*
X171243761Y-101925380D01*
X171624714Y-100925380D02*
X172291380Y-101925380D01*
X172291380Y-100925380D02*
X171624714Y-101925380D01*
X173196142Y-101925380D02*
X172624714Y-101925380D01*
X172910428Y-101925380D02*
X172910428Y-100925380D01*
X172815190Y-101068238D01*
X172719952Y-101163476D01*
X172624714Y-101211095D01*
X174100904Y-100925380D02*
X173624714Y-100925380D01*
X173577095Y-101401571D01*
X173624714Y-101353952D01*
X173719952Y-101306333D01*
X173958047Y-101306333D01*
X174053285Y-101353952D01*
X174100904Y-101401571D01*
X174148523Y-101496809D01*
X174148523Y-101734904D01*
X174100904Y-101830142D01*
X174053285Y-101877761D01*
X173958047Y-101925380D01*
X173719952Y-101925380D01*
X173624714Y-101877761D01*
X173577095Y-101830142D01*
X132477095Y-101925380D02*
X132477095Y-100925380D01*
X132810428Y-101639666D01*
X133143761Y-100925380D01*
X133143761Y-101925380D01*
X133524714Y-100925380D02*
X134191380Y-101925380D01*
X134191380Y-100925380D02*
X133524714Y-101925380D01*
X135096142Y-101925380D02*
X134524714Y-101925380D01*
X134810428Y-101925380D02*
X134810428Y-100925380D01*
X134715190Y-101068238D01*
X134619952Y-101163476D01*
X134524714Y-101211095D01*
X135429476Y-100925380D02*
X136048523Y-100925380D01*
X135715190Y-101306333D01*
X135858047Y-101306333D01*
X135953285Y-101353952D01*
X136000904Y-101401571D01*
X136048523Y-101496809D01*
X136048523Y-101734904D01*
X136000904Y-101830142D01*
X135953285Y-101877761D01*
X135858047Y-101925380D01*
X135572333Y-101925380D01*
X135477095Y-101877761D01*
X135429476Y-101830142D01*
X113427095Y-101925380D02*
X113427095Y-100925380D01*
X113760428Y-101639666D01*
X114093761Y-100925380D01*
X114093761Y-101925380D01*
X114474714Y-100925380D02*
X115141380Y-101925380D01*
X115141380Y-100925380D02*
X114474714Y-101925380D01*
X116046142Y-101925380D02*
X115474714Y-101925380D01*
X115760428Y-101925380D02*
X115760428Y-100925380D01*
X115665190Y-101068238D01*
X115569952Y-101163476D01*
X115474714Y-101211095D01*
X116427095Y-101020619D02*
X116474714Y-100973000D01*
X116569952Y-100925380D01*
X116808047Y-100925380D01*
X116903285Y-100973000D01*
X116950904Y-101020619D01*
X116998523Y-101115857D01*
X116998523Y-101211095D01*
X116950904Y-101353952D01*
X116379476Y-101925380D01*
X116998523Y-101925380D01*
X170577095Y-82875380D02*
X170577095Y-81875380D01*
X170910428Y-82589666D01*
X171243761Y-81875380D01*
X171243761Y-82875380D01*
X171624714Y-81875380D02*
X172291380Y-82875380D01*
X172291380Y-81875380D02*
X171624714Y-82875380D01*
X173196142Y-82875380D02*
X172624714Y-82875380D01*
X172910428Y-82875380D02*
X172910428Y-81875380D01*
X172815190Y-82018238D01*
X172719952Y-82113476D01*
X172624714Y-82161095D01*
X174148523Y-82875380D02*
X173577095Y-82875380D01*
X173862809Y-82875380D02*
X173862809Y-81875380D01*
X173767571Y-82018238D01*
X173672333Y-82113476D01*
X173577095Y-82161095D01*
X151527095Y-82875380D02*
X151527095Y-81875380D01*
X151860428Y-82589666D01*
X152193761Y-81875380D01*
X152193761Y-82875380D01*
X152574714Y-81875380D02*
X153241380Y-82875380D01*
X153241380Y-81875380D02*
X152574714Y-82875380D01*
X154146142Y-82875380D02*
X153574714Y-82875380D01*
X153860428Y-82875380D02*
X153860428Y-81875380D01*
X153765190Y-82018238D01*
X153669952Y-82113476D01*
X153574714Y-82161095D01*
X154765190Y-81875380D02*
X154860428Y-81875380D01*
X154955666Y-81923000D01*
X155003285Y-81970619D01*
X155050904Y-82065857D01*
X155098523Y-82256333D01*
X155098523Y-82494428D01*
X155050904Y-82684904D01*
X155003285Y-82780142D01*
X154955666Y-82827761D01*
X154860428Y-82875380D01*
X154765190Y-82875380D01*
X154669952Y-82827761D01*
X154622333Y-82780142D01*
X154574714Y-82684904D01*
X154527095Y-82494428D01*
X154527095Y-82256333D01*
X154574714Y-82065857D01*
X154622333Y-81970619D01*
X154669952Y-81923000D01*
X154765190Y-81875380D01*
X132953285Y-82875380D02*
X132953285Y-81875380D01*
X133286619Y-82589666D01*
X133619952Y-81875380D01*
X133619952Y-82875380D01*
X134000904Y-81875380D02*
X134667571Y-82875380D01*
X134667571Y-81875380D02*
X134000904Y-82875380D01*
X135096142Y-82875380D02*
X135286619Y-82875380D01*
X135381857Y-82827761D01*
X135429476Y-82780142D01*
X135524714Y-82637285D01*
X135572333Y-82446809D01*
X135572333Y-82065857D01*
X135524714Y-81970619D01*
X135477095Y-81923000D01*
X135381857Y-81875380D01*
X135191380Y-81875380D01*
X135096142Y-81923000D01*
X135048523Y-81970619D01*
X135000904Y-82065857D01*
X135000904Y-82303952D01*
X135048523Y-82399190D01*
X135096142Y-82446809D01*
X135191380Y-82494428D01*
X135381857Y-82494428D01*
X135477095Y-82446809D01*
X135524714Y-82399190D01*
X135572333Y-82303952D01*
X113903285Y-82875380D02*
X113903285Y-81875380D01*
X114236619Y-82589666D01*
X114569952Y-81875380D01*
X114569952Y-82875380D01*
X114950904Y-81875380D02*
X115617571Y-82875380D01*
X115617571Y-81875380D02*
X114950904Y-82875380D01*
X116141380Y-82303952D02*
X116046142Y-82256333D01*
X115998523Y-82208714D01*
X115950904Y-82113476D01*
X115950904Y-82065857D01*
X115998523Y-81970619D01*
X116046142Y-81923000D01*
X116141380Y-81875380D01*
X116331857Y-81875380D01*
X116427095Y-81923000D01*
X116474714Y-81970619D01*
X116522333Y-82065857D01*
X116522333Y-82113476D01*
X116474714Y-82208714D01*
X116427095Y-82256333D01*
X116331857Y-82303952D01*
X116141380Y-82303952D01*
X116046142Y-82351571D01*
X115998523Y-82399190D01*
X115950904Y-82494428D01*
X115950904Y-82684904D01*
X115998523Y-82780142D01*
X116046142Y-82827761D01*
X116141380Y-82875380D01*
X116331857Y-82875380D01*
X116427095Y-82827761D01*
X116474714Y-82780142D01*
X116522333Y-82684904D01*
X116522333Y-82494428D01*
X116474714Y-82399190D01*
X116427095Y-82351571D01*
X116331857Y-82303952D01*
X171053285Y-63825380D02*
X171053285Y-62825380D01*
X171386619Y-63539666D01*
X171719952Y-62825380D01*
X171719952Y-63825380D01*
X172100904Y-62825380D02*
X172767571Y-63825380D01*
X172767571Y-62825380D02*
X172100904Y-63825380D01*
X173053285Y-62825380D02*
X173719952Y-62825380D01*
X173291380Y-63825380D01*
X152003285Y-63825380D02*
X152003285Y-62825380D01*
X152336619Y-63539666D01*
X152669952Y-62825380D01*
X152669952Y-63825380D01*
X153050904Y-62825380D02*
X153717571Y-63825380D01*
X153717571Y-62825380D02*
X153050904Y-63825380D01*
X154527095Y-62825380D02*
X154336619Y-62825380D01*
X154241380Y-62873000D01*
X154193761Y-62920619D01*
X154098523Y-63063476D01*
X154050904Y-63253952D01*
X154050904Y-63634904D01*
X154098523Y-63730142D01*
X154146142Y-63777761D01*
X154241380Y-63825380D01*
X154431857Y-63825380D01*
X154527095Y-63777761D01*
X154574714Y-63730142D01*
X154622333Y-63634904D01*
X154622333Y-63396809D01*
X154574714Y-63301571D01*
X154527095Y-63253952D01*
X154431857Y-63206333D01*
X154241380Y-63206333D01*
X154146142Y-63253952D01*
X154098523Y-63301571D01*
X154050904Y-63396809D01*
X132953285Y-63825380D02*
X132953285Y-62825380D01*
X133286619Y-63539666D01*
X133619952Y-62825380D01*
X133619952Y-63825380D01*
X134000904Y-62825380D02*
X134667571Y-63825380D01*
X134667571Y-62825380D02*
X134000904Y-63825380D01*
X135524714Y-62825380D02*
X135048523Y-62825380D01*
X135000904Y-63301571D01*
X135048523Y-63253952D01*
X135143761Y-63206333D01*
X135381857Y-63206333D01*
X135477095Y-63253952D01*
X135524714Y-63301571D01*
X135572333Y-63396809D01*
X135572333Y-63634904D01*
X135524714Y-63730142D01*
X135477095Y-63777761D01*
X135381857Y-63825380D01*
X135143761Y-63825380D01*
X135048523Y-63777761D01*
X135000904Y-63730142D01*
X113903285Y-63825380D02*
X113903285Y-62825380D01*
X114236619Y-63539666D01*
X114569952Y-62825380D01*
X114569952Y-63825380D01*
X114950904Y-62825380D02*
X115617571Y-63825380D01*
X115617571Y-62825380D02*
X114950904Y-63825380D01*
X116427095Y-63158714D02*
X116427095Y-63825380D01*
X116189000Y-62777761D02*
X115950904Y-63492047D01*
X116569952Y-63492047D01*
X171053285Y-44775380D02*
X171053285Y-43775380D01*
X171386619Y-44489666D01*
X171719952Y-43775380D01*
X171719952Y-44775380D01*
X172100904Y-43775380D02*
X172767571Y-44775380D01*
X172767571Y-43775380D02*
X172100904Y-44775380D01*
X173053285Y-43775380D02*
X173672333Y-43775380D01*
X173339000Y-44156333D01*
X173481857Y-44156333D01*
X173577095Y-44203952D01*
X173624714Y-44251571D01*
X173672333Y-44346809D01*
X173672333Y-44584904D01*
X173624714Y-44680142D01*
X173577095Y-44727761D01*
X173481857Y-44775380D01*
X173196142Y-44775380D01*
X173100904Y-44727761D01*
X173053285Y-44680142D01*
X152003285Y-44775380D02*
X152003285Y-43775380D01*
X152336619Y-44489666D01*
X152669952Y-43775380D01*
X152669952Y-44775380D01*
X153050904Y-43775380D02*
X153717571Y-44775380D01*
X153717571Y-43775380D02*
X153050904Y-44775380D01*
X154050904Y-43870619D02*
X154098523Y-43823000D01*
X154193761Y-43775380D01*
X154431857Y-43775380D01*
X154527095Y-43823000D01*
X154574714Y-43870619D01*
X154622333Y-43965857D01*
X154622333Y-44061095D01*
X154574714Y-44203952D01*
X154003285Y-44775380D01*
X154622333Y-44775380D01*
X113903285Y-44775380D02*
X113903285Y-43775380D01*
X114236619Y-44489666D01*
X114569952Y-43775380D01*
X114569952Y-44775380D01*
X114950904Y-43775380D02*
X115617571Y-44775380D01*
X115617571Y-43775380D02*
X114950904Y-44775380D01*
X116189000Y-43775380D02*
X116284238Y-43775380D01*
X116379476Y-43823000D01*
X116427095Y-43870619D01*
X116474714Y-43965857D01*
X116522333Y-44156333D01*
X116522333Y-44394428D01*
X116474714Y-44584904D01*
X116427095Y-44680142D01*
X116379476Y-44727761D01*
X116284238Y-44775380D01*
X116189000Y-44775380D01*
X116093761Y-44727761D01*
X116046142Y-44680142D01*
X115998523Y-44584904D01*
X115950904Y-44394428D01*
X115950904Y-44156333D01*
X115998523Y-43965857D01*
X116046142Y-43870619D01*
X116093761Y-43823000D01*
X116189000Y-43775380D01*
X144946873Y-33186666D02*
X144470683Y-33520000D01*
X144946873Y-33758095D02*
X143946873Y-33758095D01*
X143946873Y-33377142D01*
X143994493Y-33281904D01*
X144042112Y-33234285D01*
X144137350Y-33186666D01*
X144280207Y-33186666D01*
X144375445Y-33234285D01*
X144423064Y-33281904D01*
X144470683Y-33377142D01*
X144470683Y-33758095D01*
X143946873Y-32329523D02*
X143946873Y-32520000D01*
X143994493Y-32615238D01*
X144042112Y-32662857D01*
X144184969Y-32758095D01*
X144375445Y-32805714D01*
X144756397Y-32805714D01*
X144851635Y-32758095D01*
X144899254Y-32710476D01*
X144946873Y-32615238D01*
X144946873Y-32424761D01*
X144899254Y-32329523D01*
X144851635Y-32281904D01*
X144756397Y-32234285D01*
X144518302Y-32234285D01*
X144423064Y-32281904D01*
X144375445Y-32329523D01*
X144327826Y-32424761D01*
X144327826Y-32615238D01*
X144375445Y-32710476D01*
X144423064Y-32758095D01*
X144518302Y-32805714D01*
X146332380Y-33186666D02*
X145856190Y-33520000D01*
X146332380Y-33758095D02*
X145332380Y-33758095D01*
X145332380Y-33377142D01*
X145380000Y-33281904D01*
X145427619Y-33234285D01*
X145522857Y-33186666D01*
X145665714Y-33186666D01*
X145760952Y-33234285D01*
X145808571Y-33281904D01*
X145856190Y-33377142D01*
X145856190Y-33758095D01*
X146332380Y-32234285D02*
X146332380Y-32805714D01*
X146332380Y-32520000D02*
X145332380Y-32520000D01*
X145475238Y-32615238D01*
X145570476Y-32710476D01*
X145618095Y-32805714D01*
X146922380Y-26519047D02*
X146922380Y-26995238D01*
X145922380Y-26995238D01*
X146398571Y-26185714D02*
X146398571Y-25852380D01*
X146922380Y-25709523D02*
X146922380Y-26185714D01*
X145922380Y-26185714D01*
X145922380Y-25709523D01*
X146922380Y-25280952D02*
X145922380Y-25280952D01*
X145922380Y-25042857D01*
X145970000Y-24900000D01*
X146065238Y-24804761D01*
X146160476Y-24757142D01*
X146350952Y-24709523D01*
X146493809Y-24709523D01*
X146684285Y-24757142D01*
X146779523Y-24804761D01*
X146874761Y-24900000D01*
X146922380Y-25042857D01*
X146922380Y-25280952D01*
X146922380Y-23757142D02*
X146922380Y-24328571D01*
X146922380Y-24042857D02*
X145922380Y-24042857D01*
X146065238Y-24138095D01*
X146160476Y-24233333D01*
X146208095Y-24328571D01*
M02*
