G04 #@! TF.GenerationSoftware,KiCad,Pcbnew,(5.1.6)-1*
G04 #@! TF.CreationDate,2020-07-06T19:45:24+02:00*
G04 #@! TF.ProjectId,numpad,6e756d70-6164-42e6-9b69-6361645f7063,rev?*
G04 #@! TF.SameCoordinates,Original*
G04 #@! TF.FileFunction,Legend,Bot*
G04 #@! TF.FilePolarity,Positive*
%FSLAX46Y46*%
G04 Gerber Fmt 4.6, Leading zero omitted, Abs format (unit mm)*
G04 Created by KiCad (PCBNEW (5.1.6)-1) date 2020-07-06 19:45:24*
%MOMM*%
%LPD*%
G01*
G04 APERTURE LIST*
%ADD10C,0.381000*%
%ADD11C,0.150000*%
G04 APERTURE END LIST*
D10*
X111760000Y-34290000D02*
X111760000Y-36830000D01*
X109220000Y-34290000D02*
X111760000Y-34290000D01*
D11*
G36*
X115509030Y-21895365D02*
G01*
X115609030Y-21895365D01*
X115609030Y-21795365D01*
X115509030Y-21795365D01*
X115509030Y-21895365D01*
G37*
X115509030Y-21895365D02*
X115609030Y-21895365D01*
X115609030Y-21795365D01*
X115509030Y-21795365D01*
X115509030Y-21895365D01*
G36*
X115109030Y-21695365D02*
G01*
X115909030Y-21695365D01*
X115909030Y-21595365D01*
X115109030Y-21595365D01*
X115109030Y-21695365D01*
G37*
X115109030Y-21695365D02*
X115909030Y-21695365D01*
X115909030Y-21595365D01*
X115109030Y-21595365D01*
X115109030Y-21695365D01*
G36*
X115709030Y-22095365D02*
G01*
X115909030Y-22095365D01*
X115909030Y-21995365D01*
X115709030Y-21995365D01*
X115709030Y-22095365D01*
G37*
X115709030Y-22095365D02*
X115909030Y-22095365D01*
X115909030Y-21995365D01*
X115709030Y-21995365D01*
X115709030Y-22095365D01*
G36*
X115109030Y-22095365D02*
G01*
X115409030Y-22095365D01*
X115409030Y-21995365D01*
X115109030Y-21995365D01*
X115109030Y-22095365D01*
G37*
X115109030Y-22095365D02*
X115409030Y-22095365D01*
X115409030Y-21995365D01*
X115109030Y-21995365D01*
X115109030Y-22095365D01*
G36*
X115109030Y-22095365D02*
G01*
X115209030Y-22095365D01*
X115209030Y-21595365D01*
X115109030Y-21595365D01*
X115109030Y-22095365D01*
G37*
X115109030Y-22095365D02*
X115209030Y-22095365D01*
X115209030Y-21595365D01*
X115109030Y-21595365D01*
X115109030Y-22095365D01*
D10*
X139700000Y-19050000D02*
X106680000Y-19050000D01*
X139700000Y-36830000D02*
X139700000Y-19050000D01*
X106680000Y-36830000D02*
X139700000Y-36830000D01*
X106680000Y-19050000D02*
X106680000Y-36830000D01*
X109220000Y-34290000D02*
X109220000Y-36830000D01*
D11*
X115873809Y-22366666D02*
X115911904Y-22480952D01*
X115911904Y-22671428D01*
X115873809Y-22747619D01*
X115835714Y-22785714D01*
X115759523Y-22823809D01*
X115683333Y-22823809D01*
X115607142Y-22785714D01*
X115569047Y-22747619D01*
X115530952Y-22671428D01*
X115492857Y-22519047D01*
X115454761Y-22442857D01*
X115416666Y-22404761D01*
X115340476Y-22366666D01*
X115264285Y-22366666D01*
X115188095Y-22404761D01*
X115150000Y-22442857D01*
X115111904Y-22519047D01*
X115111904Y-22709523D01*
X115150000Y-22823809D01*
X115111904Y-23052380D02*
X115111904Y-23509523D01*
X115911904Y-23280952D02*
X115111904Y-23280952D01*
X110051904Y-29321395D02*
X110051904Y-29778538D01*
X110851904Y-29549967D02*
X110051904Y-29549967D01*
X110051904Y-29969014D02*
X110851904Y-30502348D01*
X110051904Y-30502348D02*
X110851904Y-29969014D01*
X110051904Y-30959491D02*
X110051904Y-31035681D01*
X110090000Y-31111872D01*
X110128095Y-31149967D01*
X110204285Y-31188062D01*
X110356666Y-31226157D01*
X110547142Y-31226157D01*
X110699523Y-31188062D01*
X110775714Y-31149967D01*
X110813809Y-31111872D01*
X110851904Y-31035681D01*
X110851904Y-30959491D01*
X110813809Y-30883300D01*
X110775714Y-30845205D01*
X110699523Y-30807110D01*
X110547142Y-30769014D01*
X110356666Y-30769014D01*
X110204285Y-30807110D01*
X110128095Y-30845205D01*
X110090000Y-30883300D01*
X110051904Y-30959491D01*
X110013809Y-32140443D02*
X111042380Y-31454729D01*
X110851904Y-32407110D02*
X110051904Y-32407110D01*
X110051904Y-32597586D01*
X110090000Y-32711872D01*
X110166190Y-32788062D01*
X110242380Y-32826157D01*
X110394761Y-32864252D01*
X110509047Y-32864252D01*
X110661428Y-32826157D01*
X110737619Y-32788062D01*
X110813809Y-32711872D01*
X110851904Y-32597586D01*
X110851904Y-32407110D01*
X110051904Y-33130919D02*
X110051904Y-33626157D01*
X110356666Y-33359491D01*
X110356666Y-33473776D01*
X110394761Y-33549967D01*
X110432857Y-33588062D01*
X110509047Y-33626157D01*
X110699523Y-33626157D01*
X110775714Y-33588062D01*
X110813809Y-33549967D01*
X110851904Y-33473776D01*
X110851904Y-33245205D01*
X110813809Y-33169014D01*
X110775714Y-33130919D01*
X135832857Y-22155190D02*
X135870952Y-22269476D01*
X135909047Y-22307571D01*
X135985238Y-22345666D01*
X136099523Y-22345666D01*
X136175714Y-22307571D01*
X136213809Y-22269476D01*
X136251904Y-22193285D01*
X136251904Y-21888523D01*
X135451904Y-21888523D01*
X135451904Y-22155190D01*
X135490000Y-22231380D01*
X135528095Y-22269476D01*
X135604285Y-22307571D01*
X135680476Y-22307571D01*
X135756666Y-22269476D01*
X135794761Y-22231380D01*
X135832857Y-22155190D01*
X135832857Y-21888523D01*
X135528095Y-22650428D02*
X135490000Y-22688523D01*
X135451904Y-22764714D01*
X135451904Y-22955190D01*
X135490000Y-23031380D01*
X135528095Y-23069476D01*
X135604285Y-23107571D01*
X135680476Y-23107571D01*
X135794761Y-23069476D01*
X136251904Y-22612333D01*
X136251904Y-23107571D01*
X128212857Y-22212333D02*
X128212857Y-21945666D01*
X128631904Y-21945666D02*
X127831904Y-21945666D01*
X127831904Y-22326619D01*
X127831904Y-22555190D02*
X127831904Y-23088523D01*
X128631904Y-22745666D01*
X125672857Y-22212333D02*
X125672857Y-21945666D01*
X126091904Y-21945666D02*
X125291904Y-21945666D01*
X125291904Y-22326619D01*
X125291904Y-22974238D02*
X125291904Y-22821857D01*
X125330000Y-22745666D01*
X125368095Y-22707571D01*
X125482380Y-22631380D01*
X125634761Y-22593285D01*
X125939523Y-22593285D01*
X126015714Y-22631380D01*
X126053809Y-22669476D01*
X126091904Y-22745666D01*
X126091904Y-22898047D01*
X126053809Y-22974238D01*
X126015714Y-23012333D01*
X125939523Y-23050428D01*
X125749047Y-23050428D01*
X125672857Y-23012333D01*
X125634761Y-22974238D01*
X125596666Y-22898047D01*
X125596666Y-22745666D01*
X125634761Y-22669476D01*
X125672857Y-22631380D01*
X125749047Y-22593285D01*
X123132857Y-22212333D02*
X123132857Y-21945666D01*
X123551904Y-21945666D02*
X122751904Y-21945666D01*
X122751904Y-22326619D01*
X122751904Y-23012333D02*
X122751904Y-22631380D01*
X123132857Y-22593285D01*
X123094761Y-22631380D01*
X123056666Y-22707571D01*
X123056666Y-22898047D01*
X123094761Y-22974238D01*
X123132857Y-23012333D01*
X123209047Y-23050428D01*
X123399523Y-23050428D01*
X123475714Y-23012333D01*
X123513809Y-22974238D01*
X123551904Y-22898047D01*
X123551904Y-22707571D01*
X123513809Y-22631380D01*
X123475714Y-22593285D01*
X110851904Y-21926619D02*
X110470952Y-21659952D01*
X110851904Y-21469476D02*
X110051904Y-21469476D01*
X110051904Y-21774238D01*
X110090000Y-21850428D01*
X110128095Y-21888523D01*
X110204285Y-21926619D01*
X110318571Y-21926619D01*
X110394761Y-21888523D01*
X110432857Y-21850428D01*
X110470952Y-21774238D01*
X110470952Y-21469476D01*
X110623333Y-22231380D02*
X110623333Y-22612333D01*
X110851904Y-22155190D02*
X110051904Y-22421857D01*
X110851904Y-22688523D01*
X110051904Y-22879000D02*
X110851904Y-23069476D01*
X110280476Y-23221857D01*
X110851904Y-23374238D01*
X110051904Y-23564714D01*
X112630000Y-21869476D02*
X112591904Y-21793285D01*
X112591904Y-21679000D01*
X112630000Y-21564714D01*
X112706190Y-21488523D01*
X112782380Y-21450428D01*
X112934761Y-21412333D01*
X113049047Y-21412333D01*
X113201428Y-21450428D01*
X113277619Y-21488523D01*
X113353809Y-21564714D01*
X113391904Y-21679000D01*
X113391904Y-21755190D01*
X113353809Y-21869476D01*
X113315714Y-21907571D01*
X113049047Y-21907571D01*
X113049047Y-21755190D01*
X113391904Y-22250428D02*
X112591904Y-22250428D01*
X113391904Y-22707571D01*
X112591904Y-22707571D01*
X113391904Y-23088523D02*
X112591904Y-23088523D01*
X112591904Y-23279000D01*
X112630000Y-23393285D01*
X112706190Y-23469476D01*
X112782380Y-23507571D01*
X112934761Y-23545666D01*
X113049047Y-23545666D01*
X113201428Y-23507571D01*
X113277619Y-23469476D01*
X113353809Y-23393285D01*
X113391904Y-23279000D01*
X113391904Y-23088523D01*
X117671904Y-21412333D02*
X118471904Y-21679000D01*
X117671904Y-21945666D01*
X118395714Y-22669476D02*
X118433809Y-22631380D01*
X118471904Y-22517095D01*
X118471904Y-22440904D01*
X118433809Y-22326619D01*
X118357619Y-22250428D01*
X118281428Y-22212333D01*
X118129047Y-22174238D01*
X118014761Y-22174238D01*
X117862380Y-22212333D01*
X117786190Y-22250428D01*
X117710000Y-22326619D01*
X117671904Y-22440904D01*
X117671904Y-22517095D01*
X117710000Y-22631380D01*
X117748095Y-22669476D01*
X118395714Y-23469476D02*
X118433809Y-23431380D01*
X118471904Y-23317095D01*
X118471904Y-23240904D01*
X118433809Y-23126619D01*
X118357619Y-23050428D01*
X118281428Y-23012333D01*
X118129047Y-22974238D01*
X118014761Y-22974238D01*
X117862380Y-23012333D01*
X117786190Y-23050428D01*
X117710000Y-23126619D01*
X117671904Y-23240904D01*
X117671904Y-23317095D01*
X117710000Y-23431380D01*
X117748095Y-23469476D01*
X120592857Y-22212333D02*
X120592857Y-21945666D01*
X121011904Y-21945666D02*
X120211904Y-21945666D01*
X120211904Y-22326619D01*
X120478571Y-22974238D02*
X121011904Y-22974238D01*
X120173809Y-22783761D02*
X120745238Y-22593285D01*
X120745238Y-23088523D01*
X130752857Y-22155190D02*
X130790952Y-22269476D01*
X130829047Y-22307571D01*
X130905238Y-22345666D01*
X131019523Y-22345666D01*
X131095714Y-22307571D01*
X131133809Y-22269476D01*
X131171904Y-22193285D01*
X131171904Y-21888523D01*
X130371904Y-21888523D01*
X130371904Y-22155190D01*
X130410000Y-22231380D01*
X130448095Y-22269476D01*
X130524285Y-22307571D01*
X130600476Y-22307571D01*
X130676666Y-22269476D01*
X130714761Y-22231380D01*
X130752857Y-22155190D01*
X130752857Y-21888523D01*
X131171904Y-23107571D02*
X131171904Y-22650428D01*
X131171904Y-22879000D02*
X130371904Y-22879000D01*
X130486190Y-22802809D01*
X130562380Y-22726619D01*
X130600476Y-22650428D01*
X133292857Y-22155190D02*
X133330952Y-22269476D01*
X133369047Y-22307571D01*
X133445238Y-22345666D01*
X133559523Y-22345666D01*
X133635714Y-22307571D01*
X133673809Y-22269476D01*
X133711904Y-22193285D01*
X133711904Y-21888523D01*
X132911904Y-21888523D01*
X132911904Y-22155190D01*
X132950000Y-22231380D01*
X132988095Y-22269476D01*
X133064285Y-22307571D01*
X133140476Y-22307571D01*
X133216666Y-22269476D01*
X133254761Y-22231380D01*
X133292857Y-22155190D01*
X133292857Y-21888523D01*
X132911904Y-22612333D02*
X132911904Y-23107571D01*
X133216666Y-22840904D01*
X133216666Y-22955190D01*
X133254761Y-23031380D01*
X133292857Y-23069476D01*
X133369047Y-23107571D01*
X133559523Y-23107571D01*
X133635714Y-23069476D01*
X133673809Y-23031380D01*
X133711904Y-22955190D01*
X133711904Y-22726619D01*
X133673809Y-22650428D01*
X133635714Y-22612333D01*
X138372857Y-22155190D02*
X138410952Y-22269476D01*
X138449047Y-22307571D01*
X138525238Y-22345666D01*
X138639523Y-22345666D01*
X138715714Y-22307571D01*
X138753809Y-22269476D01*
X138791904Y-22193285D01*
X138791904Y-21888523D01*
X137991904Y-21888523D01*
X137991904Y-22155190D01*
X138030000Y-22231380D01*
X138068095Y-22269476D01*
X138144285Y-22307571D01*
X138220476Y-22307571D01*
X138296666Y-22269476D01*
X138334761Y-22231380D01*
X138372857Y-22155190D01*
X138372857Y-21888523D01*
X137991904Y-23031380D02*
X137991904Y-22879000D01*
X138030000Y-22802809D01*
X138068095Y-22764714D01*
X138182380Y-22688523D01*
X138334761Y-22650428D01*
X138639523Y-22650428D01*
X138715714Y-22688523D01*
X138753809Y-22726619D01*
X138791904Y-22802809D01*
X138791904Y-22955190D01*
X138753809Y-23031380D01*
X138715714Y-23069476D01*
X138639523Y-23107571D01*
X138449047Y-23107571D01*
X138372857Y-23069476D01*
X138334761Y-23031380D01*
X138296666Y-22955190D01*
X138296666Y-22802809D01*
X138334761Y-22726619D01*
X138372857Y-22688523D01*
X138449047Y-22650428D01*
X138372857Y-33077190D02*
X138410952Y-33191476D01*
X138449047Y-33229571D01*
X138525238Y-33267666D01*
X138639523Y-33267666D01*
X138715714Y-33229571D01*
X138753809Y-33191476D01*
X138791904Y-33115285D01*
X138791904Y-32810523D01*
X137991904Y-32810523D01*
X137991904Y-33077190D01*
X138030000Y-33153380D01*
X138068095Y-33191476D01*
X138144285Y-33229571D01*
X138220476Y-33229571D01*
X138296666Y-33191476D01*
X138334761Y-33153380D01*
X138372857Y-33077190D01*
X138372857Y-32810523D01*
X137991904Y-33991476D02*
X137991904Y-33610523D01*
X138372857Y-33572428D01*
X138334761Y-33610523D01*
X138296666Y-33686714D01*
X138296666Y-33877190D01*
X138334761Y-33953380D01*
X138372857Y-33991476D01*
X138449047Y-34029571D01*
X138639523Y-34029571D01*
X138715714Y-33991476D01*
X138753809Y-33953380D01*
X138791904Y-33877190D01*
X138791904Y-33686714D01*
X138753809Y-33610523D01*
X138715714Y-33572428D01*
X135832857Y-33077190D02*
X135870952Y-33191476D01*
X135909047Y-33229571D01*
X135985238Y-33267666D01*
X136099523Y-33267666D01*
X136175714Y-33229571D01*
X136213809Y-33191476D01*
X136251904Y-33115285D01*
X136251904Y-32810523D01*
X135451904Y-32810523D01*
X135451904Y-33077190D01*
X135490000Y-33153380D01*
X135528095Y-33191476D01*
X135604285Y-33229571D01*
X135680476Y-33229571D01*
X135756666Y-33191476D01*
X135794761Y-33153380D01*
X135832857Y-33077190D01*
X135832857Y-32810523D01*
X135718571Y-33953380D02*
X136251904Y-33953380D01*
X135413809Y-33762904D02*
X135985238Y-33572428D01*
X135985238Y-34067666D01*
X133292857Y-32848619D02*
X133292857Y-33115285D01*
X133711904Y-33229571D02*
X133711904Y-32848619D01*
X132911904Y-32848619D01*
X132911904Y-33229571D01*
X132911904Y-33915285D02*
X132911904Y-33762904D01*
X132950000Y-33686714D01*
X132988095Y-33648619D01*
X133102380Y-33572428D01*
X133254761Y-33534333D01*
X133559523Y-33534333D01*
X133635714Y-33572428D01*
X133673809Y-33610523D01*
X133711904Y-33686714D01*
X133711904Y-33839095D01*
X133673809Y-33915285D01*
X133635714Y-33953380D01*
X133559523Y-33991476D01*
X133369047Y-33991476D01*
X133292857Y-33953380D01*
X133254761Y-33915285D01*
X133216666Y-33839095D01*
X133216666Y-33686714D01*
X133254761Y-33610523D01*
X133292857Y-33572428D01*
X133369047Y-33534333D01*
X131171904Y-32810523D02*
X130371904Y-32810523D01*
X130371904Y-33001000D01*
X130410000Y-33115285D01*
X130486190Y-33191476D01*
X130562380Y-33229571D01*
X130714761Y-33267666D01*
X130829047Y-33267666D01*
X130981428Y-33229571D01*
X131057619Y-33191476D01*
X131133809Y-33115285D01*
X131171904Y-33001000D01*
X131171904Y-32810523D01*
X130371904Y-33534333D02*
X130371904Y-34067666D01*
X131171904Y-33724809D01*
X128555714Y-33267666D02*
X128593809Y-33229571D01*
X128631904Y-33115285D01*
X128631904Y-33039095D01*
X128593809Y-32924809D01*
X128517619Y-32848619D01*
X128441428Y-32810523D01*
X128289047Y-32772428D01*
X128174761Y-32772428D01*
X128022380Y-32810523D01*
X127946190Y-32848619D01*
X127870000Y-32924809D01*
X127831904Y-33039095D01*
X127831904Y-33115285D01*
X127870000Y-33229571D01*
X127908095Y-33267666D01*
X127831904Y-33953380D02*
X127831904Y-33801000D01*
X127870000Y-33724809D01*
X127908095Y-33686714D01*
X128022380Y-33610523D01*
X128174761Y-33572428D01*
X128479523Y-33572428D01*
X128555714Y-33610523D01*
X128593809Y-33648619D01*
X128631904Y-33724809D01*
X128631904Y-33877190D01*
X128593809Y-33953380D01*
X128555714Y-33991476D01*
X128479523Y-34029571D01*
X128289047Y-34029571D01*
X128212857Y-33991476D01*
X128174761Y-33953380D01*
X128136666Y-33877190D01*
X128136666Y-33724809D01*
X128174761Y-33648619D01*
X128212857Y-33610523D01*
X128289047Y-33572428D01*
X126091904Y-32810523D02*
X125291904Y-32810523D01*
X125291904Y-33001000D01*
X125330000Y-33115285D01*
X125406190Y-33191476D01*
X125482380Y-33229571D01*
X125634761Y-33267666D01*
X125749047Y-33267666D01*
X125901428Y-33229571D01*
X125977619Y-33191476D01*
X126053809Y-33115285D01*
X126091904Y-33001000D01*
X126091904Y-32810523D01*
X125558571Y-33953380D02*
X126091904Y-33953380D01*
X125253809Y-33762904D02*
X125825238Y-33572428D01*
X125825238Y-34067666D01*
X115170000Y-32791476D02*
X115131904Y-32715285D01*
X115131904Y-32601000D01*
X115170000Y-32486714D01*
X115246190Y-32410523D01*
X115322380Y-32372428D01*
X115474761Y-32334333D01*
X115589047Y-32334333D01*
X115741428Y-32372428D01*
X115817619Y-32410523D01*
X115893809Y-32486714D01*
X115931904Y-32601000D01*
X115931904Y-32677190D01*
X115893809Y-32791476D01*
X115855714Y-32829571D01*
X115589047Y-32829571D01*
X115589047Y-32677190D01*
X115931904Y-33172428D02*
X115131904Y-33172428D01*
X115931904Y-33629571D01*
X115131904Y-33629571D01*
X115931904Y-34010523D02*
X115131904Y-34010523D01*
X115131904Y-34201000D01*
X115170000Y-34315285D01*
X115246190Y-34391476D01*
X115322380Y-34429571D01*
X115474761Y-34467666D01*
X115589047Y-34467666D01*
X115741428Y-34429571D01*
X115817619Y-34391476D01*
X115893809Y-34315285D01*
X115931904Y-34201000D01*
X115931904Y-34010523D01*
X117710000Y-32791476D02*
X117671904Y-32715285D01*
X117671904Y-32601000D01*
X117710000Y-32486714D01*
X117786190Y-32410523D01*
X117862380Y-32372428D01*
X118014761Y-32334333D01*
X118129047Y-32334333D01*
X118281428Y-32372428D01*
X118357619Y-32410523D01*
X118433809Y-32486714D01*
X118471904Y-32601000D01*
X118471904Y-32677190D01*
X118433809Y-32791476D01*
X118395714Y-32829571D01*
X118129047Y-32829571D01*
X118129047Y-32677190D01*
X118471904Y-33172428D02*
X117671904Y-33172428D01*
X118471904Y-33629571D01*
X117671904Y-33629571D01*
X118471904Y-34010523D02*
X117671904Y-34010523D01*
X117671904Y-34201000D01*
X117710000Y-34315285D01*
X117786190Y-34391476D01*
X117862380Y-34429571D01*
X118014761Y-34467666D01*
X118129047Y-34467666D01*
X118281428Y-34429571D01*
X118357619Y-34391476D01*
X118433809Y-34315285D01*
X118471904Y-34201000D01*
X118471904Y-34010523D01*
X121011904Y-32810523D02*
X120211904Y-32810523D01*
X120211904Y-33001000D01*
X120250000Y-33115285D01*
X120326190Y-33191476D01*
X120402380Y-33229571D01*
X120554761Y-33267666D01*
X120669047Y-33267666D01*
X120821428Y-33229571D01*
X120897619Y-33191476D01*
X120973809Y-33115285D01*
X121011904Y-33001000D01*
X121011904Y-32810523D01*
X121011904Y-34029571D02*
X121011904Y-33572428D01*
X121011904Y-33801000D02*
X120211904Y-33801000D01*
X120326190Y-33724809D01*
X120402380Y-33648619D01*
X120440476Y-33572428D01*
X123551904Y-32810523D02*
X122751904Y-32810523D01*
X122751904Y-33001000D01*
X122790000Y-33115285D01*
X122866190Y-33191476D01*
X122942380Y-33229571D01*
X123094761Y-33267666D01*
X123209047Y-33267666D01*
X123361428Y-33229571D01*
X123437619Y-33191476D01*
X123513809Y-33115285D01*
X123551904Y-33001000D01*
X123551904Y-32810523D01*
X122751904Y-33762904D02*
X122751904Y-33839095D01*
X122790000Y-33915285D01*
X122828095Y-33953380D01*
X122904285Y-33991476D01*
X123056666Y-34029571D01*
X123247142Y-34029571D01*
X123399523Y-33991476D01*
X123475714Y-33953380D01*
X123513809Y-33915285D01*
X123551904Y-33839095D01*
X123551904Y-33762904D01*
X123513809Y-33686714D01*
X123475714Y-33648619D01*
X123399523Y-33610523D01*
X123247142Y-33572428D01*
X123056666Y-33572428D01*
X122904285Y-33610523D01*
X122828095Y-33648619D01*
X122790000Y-33686714D01*
X122751904Y-33762904D01*
X113391904Y-32810523D02*
X112591904Y-32810523D01*
X112591904Y-33001000D01*
X112630000Y-33115285D01*
X112706190Y-33191476D01*
X112782380Y-33229571D01*
X112934761Y-33267666D01*
X113049047Y-33267666D01*
X113201428Y-33229571D01*
X113277619Y-33191476D01*
X113353809Y-33115285D01*
X113391904Y-33001000D01*
X113391904Y-32810523D01*
X112668095Y-33572428D02*
X112630000Y-33610523D01*
X112591904Y-33686714D01*
X112591904Y-33877190D01*
X112630000Y-33953380D01*
X112668095Y-33991476D01*
X112744285Y-34029571D01*
X112820476Y-34029571D01*
X112934761Y-33991476D01*
X113391904Y-33534333D01*
X113391904Y-34029571D01*
M02*
